<?xml version="1.0" encoding="UTF-8" standalone="no"?>
<!-- Created with Inkscape (http://www.inkscape.org/) -->

<svg
   xmlns:dc="http://purl.org/dc/elements/1.1/"
   xmlns:cc="http://creativecommons.org/ns#"
   xmlns:rdf="http://www.w3.org/1999/02/22-rdf-syntax-ns#"
   xmlns:svg="http://www.w3.org/2000/svg"
   xmlns="http://www.w3.org/2000/svg"
   xmlns:sodipodi="http://sodipodi.sourceforge.net/DTD/sodipodi-0.dtd"
   xmlns:inkscape="http://www.inkscape.org/namespaces/inkscape"
   version="1.0"
   width="23"
   height="23"
   viewBox="0 0 22.96173 22.961693"
   id="Layer_1"
   xml:space="preserve"
   sodipodi:version="0.32"
   inkscape:version="0.48.2 r9819"
   sodipodi:docname="I-blank.svg"
   inkscape:output_extension="org.inkscape.output.svg.inkscape"
   sodipodi:modified="true">
   <metadata id="metadata36">
     <rdf:RDF>
       <cc:Work rdf:about="">
         <dc:format>image/svg+xml</dc:format>
         <dc:type rdf:resource="http://purl.org/dc/dcmitype/StillImage" />
       </cc:Work>
     </rdf:RDF>
   </metadata>
   <sodipodi:namedview
   inkscape:window-height="957"
   inkscape:window-width="1155"
   inkscape:pageshadow="2"
   inkscape:pageopacity="0.0"
   guidetolerance="10.0"
   gridtolerance="10.0"
   objecttolerance="10.0"
   borderopacity="1.0"
   bordercolor="#666666"
   pagecolor="#ffffff"
   id="base"
   width="601px"
   height="601px"
   inkscape:zoom="27.123269"
   inkscape:cx="11.459137"
   inkscape:cy="11.457399"
   inkscape:window-x="1928"
   inkscape:window-y="0"
   inkscape:current-layer="Layer_1"
   showgrid="false"
   inkscape:window-maximized="0" />
   <defs id="defs1659" />
<g
   transform="matrix(0.03806156,0,0,0.03806169,0.06239589,0.0623388)"
   style="fill:#ffffff;fill-opacity:1;stroke:#000000;stroke-width:0.99999923;stroke-miterlimit:4;stroke-opacity:1;stroke-dasharray:none"
   id="g1600">
		<path
   id="path1602"
   style="fill:#ffffff;fill-opacity:1;stroke:#000000;stroke-width:0.99999923;stroke-miterlimit:4;stroke-opacity:1;stroke-dasharray:none"
   d="m 80.75293,0 c 34.67578,10.583496 71.48486,16.276856 109.62402,16.276856 38.13868,0 74.94727,-5.69336 109.62305,-16.2763677 34.67578,10.5830077 71.48438,16.2763677 109.62305,16.2763677 38.13867,0 74.94824,-5.69336 109.62402,-16.276856 C 569.8125,63.908203 600,144.67822 600,232.5 600,413.92383 471.16992,565.25391 300,599.99902 128.83008,565.25391 0,413.92383 0,232.5 0,144.67822 30.187988,63.907715 80.75293,0 z"
   inkscape:connector-curvature="0" />
		
			<path
   id="path1604"
   style="fill:#ffffff;fill-opacity:1;stroke:#000000;stroke-width:0.99999923;stroke-linecap:round;stroke-linejoin:round;stroke-miterlimit:4;stroke-opacity:1;stroke-dasharray:none"
   d="m 80.75293,0 c 34.67578,10.583496 71.48486,16.276856 109.62402,16.276856 38.13868,0 74.94727,-5.69336 109.62305,-16.2763677 34.67578,10.5830077 71.48438,16.2763677 109.62305,16.2763677 38.13867,0 74.94824,-5.69336 109.62402,-16.276856 C 569.8125,63.908203 600,144.67822 600,232.5 600,413.92383 471.16992,565.25391 300,599.99902 128.83008,565.25391 0,413.92383 0,232.5 0,144.67822 30.187988,63.907715 80.75293,0 z"
   inkscape:connector-curvature="0" />
	</g>
<g
   style="fill:#3979c6;fill-opacity:1;stroke:none"
   transform="matrix(0.03839547,0,0,0.03851718,-0.03776616,-0.09655341)"
   id="g1606">
		<path
   id="path1608"
   style="fill:#3979c6;fill-opacity:1;stroke:none"
   d="m 15,232.5 c 0,-31.979 4.169434,-62.98389 11.994629,-92.50098 l 546.011231,0 C 580.83008,169.51611 585,200.521 585,232.5 585,405.60547 462.82617,550.17188 300,584.67676 137.17432,550.17188 15,405.60547 15,232.5 z"
   inkscape:connector-curvature="0" />
	</g>
<g
   style="fill:#db6161;fill-opacity:1;stroke:none"
   transform="matrix(0.03860334,0,0,0.0391601,-0.10012995,-0.07493179)"
   id="g1610">
		<path
   id="path1612"
   style="fill:#db6161;fill-opacity:1;stroke:none"
   d="M 31.324219,124.99902 C 43.579102,85.77832 62.362793,49.44043 86.402832,17.259766 c 33.101558,9.132812 67.967778,14.012695 103.974118,14.012695 38.06055,0 74.84766,-5.45166 109.62305,-15.617676 34.77539,10.166016 71.5625,15.617676 109.62305,15.617676 36.00586,0 70.87304,-4.879883 103.97461,-14.012695 24.03906,32.180664 42.82324,68.518554 55.07812,107.739254 l -537.351561,0 0,0 z"
   inkscape:connector-curvature="0" />
	</g>






</svg>
