<?xml version="1.0" encoding="UTF-8" standalone="no"?>
<!-- Generator: Adobe Illustrator 12.0.0, SVG Export Plug-In . SVG Version: 6.00 Build 51448)  -->
<svg
   xmlns:dc="http://purl.org/dc/elements/1.1/"
   xmlns:cc="http://web.resource.org/cc/"
   xmlns:rdf="http://www.w3.org/1999/02/22-rdf-syntax-ns#"
   xmlns:svg="http://www.w3.org/2000/svg"
   xmlns="http://www.w3.org/2000/svg"
   xmlns:sodipodi="http://sodipodi.sourceforge.net/DTD/sodipodi-0.dtd"
   xmlns:inkscape="http://www.inkscape.org/namespaces/inkscape"
   version="1.0"
   id="Layer_1"
   width="384"
   height="384"
   viewBox="0 0 384 384"
   overflow="visible"
   enable-background="new 0 0 384 384"
   xml:space="preserve"
   sodipodi:version="0.32"
   inkscape:version="0.45.1"
   sodipodi:docname="TCH ALT.svg"
   inkscape:output_extension="org.inkscape.output.svg.inkscape"
   sodipodi:docbase="C:\Documents and Settings\hp\My Documents\My Pictures\Canada Shields"><metadata
   id="metadata16"><rdf:RDF><cc:Work
       rdf:about=""><dc:format>image/svg+xml</dc:format><dc:type
         rdf:resource="http://purl.org/dc/dcmitype/StillImage" /></cc:Work></rdf:RDF></metadata><defs
   id="defs14" /><sodipodi:namedview
   inkscape:window-height="653"
   inkscape:window-width="898"
   inkscape:pageshadow="2"
   inkscape:pageopacity="0.0"
   guidetolerance="10.0"
   gridtolerance="10.0"
   objecttolerance="10.0"
   borderopacity="1.0"
   bordercolor="#666666"
   pagecolor="#ffffff"
   id="base"
   showguides="true"
   inkscape:guide-bbox="true"
   inkscape:zoom="0.98177083"
   inkscape:cx="214.40849"
   inkscape:cy="191.287"
   inkscape:window-x="116"
   inkscape:window-y="42"
   inkscape:current-layer="Layer_1" />
<path
   style="fill:#217821;stroke-width:5;stroke-miterlimit:4"
   d="M 31.569744,6.8139938e-015 L 352.43025,6.8139938e-015 C 369.91989,6.8139938e-015 384,14.06464 384,31.535068 L 384,352.46493 C 384,369.93536 369.91989,384 352.43025,384 L 31.569744,384 C 14.080106,384 0,369.93536 0,352.46493 L 0,31.535068 C 0,14.06464 14.080106,6.8139938e-015 31.569744,6.8139938e-015 z "
   id="rect2168" />
<path
   style="fill:#ffffff;fill-opacity:1;fill-rule:evenodd;stroke:none;stroke-width:0.19036415px;stroke-linecap:butt;stroke-linejoin:miter;stroke-opacity:1"
   d="M 186.8056,347.51549 C 186.8056,347.51549 186.96671,336.38849 186.88991,336.21778 C 186.64966,335.68391 93.166749,346.20367 93.00906,345.36629 C 92.856427,344.55558 104.23927,308.18217 103.80216,307.88701 C 103.01122,307.35286 8.5761598,220.1133 8.4504898,219.76268 C 8.3856487,219.58166 34.46145,206.08467 34.659746,205.59781 C 34.402146,205.55765 16.148701,133.06354 16.524186,132.72934 C 17.436377,131.91743 73.393227,147.50691 74.353647,147.1759 C 75.030869,146.94255 83.059865,112.20832 83.562224,112.39546 C 84.639227,112.79676 101.05979,130.38843 111.56222,140.63065 C 116.55191,145.49672 120.00443,147.44353 122.59142,147.40967 C 125.31939,147.37396 137.32935,148.82972 134.61293,132.22408 C 129.74018,102.43672 120.7721,47.16736 120.7721,47.16736 L 155.52266,69.129939 L 190.16751,17.408409 L 228.46662,68.065153 L 263.89288,47.795764 C 263.89288,47.795764 259.25441,90.004269 255.74123,126.17789 C 254.55207,138.42216 256.47007,146.51192 264.56199,146.93558 C 268.26414,147.12941 274.48138,144.88114 278.1464,140.48337 C 291.72873,124.18551 301.16491,113.67454 301.16491,113.67454 L 310.16107,147.27462 L 367.92857,133.45346 L 349.18829,206.93145 L 375.76338,219.92961 L 280.6086,308.93303 L 291.59554,346.50041 L 198.60925,335.89065 L 198.47131,347.57902 L 186.8056,347.51549 z "
   id="path2235" /><path
   transform="translate(-2.0371353,102.87533)"
   style="font-size:35px;text-align:center;text-anchor:middle;fill:#000000;fill-opacity:1;font-family:Roadgeek 2005 Series D"
   d="M 84.439606,70.320621 L 84.439606,90.480228 L 80.730042,90.480228 L 80.730042,70.320621 L 75.374512,70.320621 L 75.374512,67.029758 L 89.864563,67.029758 L 89.864563,70.320621 L 84.439606,70.320621 z M 105.23367,90.480228 L 101.45361,80.260502 L 97.009186,80.260502 L 97.009186,90.480228 L 93.298553,90.480228 L 93.298553,67.029758 L 101.03384,67.029758 C 101.94387,67.029782 102.72555,67.082297 103.37889,67.187305 C 104.03221,67.29236 104.65047,67.485154 105.23367,67.76569 C 105.74707,68.02206 106.21971,68.354421 106.6516,68.762775 C 107.08345,69.171173 107.45676,69.63776 107.77151,70.16254 C 108.08624,70.687361 108.33119,71.247409 108.50638,71.842686 C 108.68153,72.438 108.76912,73.027243 108.76913,73.610416 C 108.76912,74.24062 108.68153,74.853184 108.50638,75.448108 C 108.33119,76.043063 108.08624,76.602933 107.77151,77.12772 C 107.45676,77.652533 107.07188,78.124996 106.61688,78.545109 C 106.16185,78.965245 105.66589,79.292088 105.129,79.525638 L 109.2594,90.480228 L 105.23367,90.480228 z M 105.0585,73.610416 C 105.05849,73.120525 104.93031,72.653937 104.67398,72.210651 C 104.41762,71.767402 104.05588,71.417239 103.58878,71.16016 C 103.28542,70.997114 103.00539,70.886386 102.7487,70.827976 C 102.49199,70.769605 102.06029,70.74041 101.45361,70.740391 L 97.009186,70.740391 L 97.009186,76.480442 L 101.45361,76.480442 C 102.0375,76.480456 102.4635,76.457135 102.73161,76.41048 C 102.9997,76.363853 103.28542,76.258644 103.58878,76.094852 C 104.05588,75.838519 104.41762,75.482837 104.67398,75.027805 C 104.93031,74.572804 105.05849,74.100341 105.0585,73.610416 L 105.0585,73.610416 z M 127.01682,90.480228 L 124.70648,83.900638 L 117.39203,83.900638 L 115.0817,90.480228 L 111.12646,90.480228 L 119.2121,67.029758 L 122.88641,67.029758 L 130.97205,90.480228 L 127.01682,90.480228 z M 121.10159,73.539921 L 118.68658,80.120579 L 123.37668,80.120579 L 121.10159,73.539921 z M 147.18924,90.480228 L 138.22989,74.589878 L 138.22989,90.480228 L 134.51926,90.480228 L 134.51926,67.029758 L 138.22989,67.029758 L 146.76947,82.010074 L 146.76947,67.029758 L 150.4801,67.029758 L 150.4801,90.480228 L 147.18924,90.480228 z M 170.36841,83.725467 C 170.36839,84.798573 170.1699,85.790139 169.77293,86.700168 C 169.37594,87.610205 168.80432,88.403458 168.05807,89.079929 C 167.40437,89.663121 166.64014,90.112263 165.76537,90.427357 C 164.89057,90.74245 163.95152,90.899997 162.94821,90.899998 C 160.91807,90.899997 159.18541,90.357573 157.75023,89.272724 C 156.31503,88.187877 155.20081,86.747169 154.40756,84.950596 L 157.94302,83.654972 C 158.43293,84.775074 159.10958,85.632592 159.97298,86.227527 C 160.83636,86.822471 161.82811,87.119941 162.94821,87.119938 C 164.0448,87.119941 164.92564,86.787402 165.59073,86.122318 C 166.2558,85.457243 166.58834,84.634795 166.58835,83.654972 C 166.58834,82.885224 166.38415,82.255393 165.97578,81.765476 C 165.5674,81.275576 165.03654,80.861326 164.38322,80.522724 C 163.72988,80.184142 163.01229,79.886494 162.23044,79.62978 C 161.44857,79.373087 160.67276,79.093063 159.90302,78.789707 C 159.55267,78.650152 159.12097,78.452017 158.60793,78.195301 C 158.09487,77.93861 157.59909,77.58275 157.12057,77.12772 C 156.64206,76.672716 156.23368,76.106794 155.89545,75.429951 C 155.55721,74.753137 155.38809,73.924815 155.38809,72.94498 C 155.38809,71.802116 155.57465,70.828174 155.94778,70.023151 C 156.32091,69.21817 156.82844,68.56484 157.47038,68.06316 C 158.11232,67.561525 158.88243,67.193915 159.78072,66.960331 C 160.67899,66.726793 161.65294,66.610013 162.70255,66.609989 C 164.35954,66.610013 165.74221,67.041709 166.85057,67.905079 C 167.9589,68.768494 168.80467,69.935052 169.38788,71.404758 L 166.09808,72.385288 C 165.91151,72.012178 165.66655,71.673942 165.36322,71.370579 C 165.10615,71.113538 164.75011,70.879977 164.2951,70.669895 C 163.84008,70.459852 163.28608,70.343428 162.63312,70.320621 C 162.21298,70.297143 161.77541,70.32616 161.3204,70.407673 C 160.86538,70.489225 160.46288,70.635023 160.1129,70.845066 C 159.76291,71.055148 159.48288,71.341047 159.27283,71.702762 C 159.06276,72.064516 158.98123,72.513836 159.02823,73.050724 C 159.07451,73.773499 159.38942,74.327494 159.97298,74.712711 C 160.55652,75.09796 161.26824,75.4305 162.10814,75.710331 C 162.94802,75.990191 163.85218,76.275912 164.82062,76.567493 C 165.78903,76.859102 166.68144,77.279049 167.49785,77.827335 C 168.31423,78.375646 168.99675,79.110687 169.54543,80.032459 C 170.09406,80.954252 170.36839,82.185254 170.36841,83.725467 L 170.36841,83.725467 z M 172.23975,80.784946 L 172.23975,77.075382 L 180.4653,77.075382 L 180.4653,80.784946 L 172.23975,80.784946 z M 199.48203,85.720707 C 198.08207,89.173569 195.72545,90.899997 192.41217,90.899998 C 190.66188,90.899997 189.21512,90.561761 188.07188,89.885288 C 186.92864,89.208816 185.98354,88.147111 185.23657,86.700168 C 184.70037,85.64986 184.28061,84.424733 183.97726,83.024784 C 183.67392,81.62485 183.52225,80.190016 183.52225,78.72028 C 183.52225,76.85394 183.75545,75.068943 184.22186,73.365284 C 184.68827,71.661659 185.32985,70.285038 186.14661,69.235416 C 186.84657,68.371689 187.69252,67.718181 188.68445,67.274891 C 189.67636,66.831647 190.83705,66.610013 192.1665,66.609989 C 193.94027,66.610013 195.40466,66.995068 196.55966,67.765156 C 197.71463,68.535289 198.68875,69.748488 199.48203,71.404758 L 196.01706,72.875553 C 195.6902,72.385662 195.39255,71.977287 195.12411,71.650425 C 194.85565,71.323601 194.57562,71.066897 194.28404,70.880314 C 193.99243,70.693769 193.67752,70.565418 193.33929,70.495258 C 193.00105,70.425139 192.61012,70.390069 192.1665,70.390049 C 191.21017,70.390069 190.41123,70.611703 189.76965,71.054951 C 189.12806,71.498237 188.60896,72.245027 188.21234,73.295322 C 187.90899,73.99531 187.68148,74.823633 187.52982,75.780292 C 187.37814,76.736981 187.3023,77.716976 187.30231,78.72028 C 187.3023,80.003452 187.43065,81.234276 187.68736,82.412754 C 187.94406,83.591248 188.30562,84.553619 188.77203,85.299869 C 189.19215,85.906563 189.68224,86.36158 190.24229,86.664921 C 190.80233,86.968269 191.49038,87.119941 192.30643,87.119938 C 193.10038,87.119941 193.78896,86.904182 194.37216,86.47266 C 194.95534,86.041146 195.48014,85.346872 195.94656,84.389835 L 199.48203,85.720707 L 199.48203,85.720707 z M 218.4133,90.480228 L 216.10297,83.900638 L 208.78851,83.900638 L 206.47818,90.480228 L 202.52295,90.480228 L 210.60858,67.029758 L 214.2829,67.029758 L 222.36853,90.480228 L 218.4133,90.480228 z M 212.49808,73.539921 L 210.08307,80.120579 L 214.77316,80.120579 L 212.49808,73.539921 z M 238.58572,90.480228 L 229.62637,74.589878 L 229.62637,90.480228 L 225.91574,90.480228 L 225.91574,67.029758 L 229.62637,67.029758 L 238.16595,82.010074 L 238.16595,67.029758 L 241.87659,67.029758 L 241.87659,90.480228 L 238.58572,90.480228 z M 261.27463,90.480228 L 258.96429,83.900638 L 251.64984,83.900638 L 249.33951,90.480228 L 245.38428,90.480228 L 253.46991,67.029758 L 257.14423,67.029758 L 265.22986,90.480228 L 261.27463,90.480228 z M 255.35941,73.539921 L 252.9444,80.120579 L 257.63449,80.120579 L 255.35941,73.539921 z M 284.73792,78.72028 C 284.7379,81.077263 284.38204,83.148159 283.67033,84.932972 C 282.9586,86.717796 281.93766,88.123612 280.60751,89.150425 C 280.16388,89.570551 279.64459,89.885467 279.04967,90.095173 C 278.45471,90.304879 277.8539,90.433231 277.24722,90.480228 L 275.91742,90.480228 L 268.77707,90.480228 L 268.77707,67.029758 L 276.33719,67.029758 C 276.92108,67.029782 277.42879,67.047406 277.86032,67.08263 C 278.29183,67.117901 278.68258,67.182166 279.03258,67.275425 C 279.38255,67.36873 279.69747,67.497082 279.97733,67.66048 C 280.25716,67.823925 280.5605,68.02206 280.88736,68.254886 C 282.12422,69.328719 283.0752,70.758034 283.7403,72.542835 C 284.40536,74.327672 284.7379,76.386818 284.73792,78.72028 L 284.73792,78.72028 z M 280.95786,78.72028 C 280.95784,77.133786 280.78854,75.722095 280.44997,74.485203 C 280.11136,73.248342 279.65047,72.32656 279.06729,71.719852 C 278.76393,71.440025 278.41395,71.20682 278.01733,71.020237 C 277.6207,70.833692 277.17743,70.74041 276.68753,70.740391 L 272.4877,70.740391 L 272.4877,86.700168 L 276.19727,86.700168 C 276.80394,86.700172 277.31148,86.630211 277.71986,86.490284 C 278.12823,86.350365 278.49584,86.116982 278.82269,85.790134 C 279.52265,85.090168 280.0535,84.127619 280.41525,82.902485 C 280.77697,81.677365 280.95784,80.283298 280.95786,78.72028 L 280.95786,78.72028 z M 303.65744,90.480228 L 301.34711,83.900638 L 294.03265,83.900638 L 291.72232,90.480228 L 287.76709,90.480228 L 295.85272,67.029758 L 299.52704,67.029758 L 307.61267,90.480228 L 303.65744,90.480228 z M 297.74222,73.539921 L 295.32721,80.120579 L 300.0173,80.120579 L 297.74222,73.539921 z M 55.215973,114.07062 L 55.215973,134.23023 L 51.506409,134.23023 L 51.506409,114.07062 L 46.150879,114.07062 L 46.150879,110.77976 L 60.64093,110.77976 L 60.64093,114.07062 L 55.215973,114.07062 z M 76.01004,134.23023 L 72.22998,124.0105 L 67.785553,124.0105 L 67.785553,134.23023 L 64.074921,134.23023 L 64.074921,110.77976 L 71.810211,110.77976 C 72.720234,110.77978 73.501915,110.8323 74.155258,110.93731 C 74.808575,111.04236 75.426835,111.23515 76.01004,111.51569 C 76.523432,111.77206 76.996073,112.10442 77.427963,112.51278 C 77.859821,112.92117 78.233127,113.38776 78.547882,113.91254 C 78.862602,114.43736 79.107557,114.99741 79.282745,115.59269 C 79.457898,116.188 79.545483,116.77724 79.545502,117.36042 C 79.545483,117.99062 79.457898,118.60318 79.282745,119.19811 C 79.107557,119.79306 78.862602,120.35293 78.547882,120.87772 C 78.233127,121.40253 77.84825,121.875 77.39325,122.29511 C 76.938217,122.71525 76.442256,123.04209 75.905365,123.27564 L 80.035767,134.23023 L 76.01004,134.23023 z M 75.834869,117.36042 C 75.834855,116.87052 75.706681,116.40394 75.450348,115.96065 C 75.193986,115.5174 74.832252,115.16724 74.365143,114.91016 C 74.061785,114.74711 73.781761,114.63639 73.52507,114.57798 C 73.268355,114.51961 72.836658,114.49041 72.22998,114.49039 L 67.785553,114.49039 L 67.785553,120.23044 L 72.22998,120.23044 C 72.813872,120.23046 73.239871,120.20714 73.50798,120.16048 C 73.776065,120.11385 74.061785,120.00864 74.365143,119.84485 C 74.832252,119.58852 75.193986,119.23284 75.450348,118.77781 C 75.706681,118.3228 75.834855,117.85034 75.834869,117.36042 L 75.834869,117.36042 z M 97.793182,134.23023 L 95.482849,127.65064 L 88.168396,127.65064 L 85.858063,134.23023 L 81.902832,134.23023 L 89.988464,110.77976 L 93.662781,110.77976 L 101.74841,134.23023 L 97.793182,134.23023 z M 91.87796,117.28992 L 89.462952,123.87058 L 94.153046,123.87058 L 91.87796,117.28992 z M 117.96561,134.23023 L 109.00626,118.33988 L 109.00626,134.23023 L 105.29562,134.23023 L 105.29562,110.77976 L 109.00626,110.77976 L 117.54584,125.76007 L 117.54584,110.77976 L 121.25647,110.77976 L 121.25647,134.23023 L 117.96561,134.23023 z M 141.14478,127.47547 C 141.14476,128.54857 140.94627,129.54014 140.5493,130.45017 C 140.1523,131.36021 139.58068,132.15346 138.83444,132.82993 C 138.18074,133.41312 137.41651,133.86226 136.54173,134.17736 C 135.66693,134.49245 134.72788,134.65 133.72458,134.65 C 131.69444,134.65 129.96178,134.10757 128.5266,133.02272 C 127.0914,131.93788 125.97718,130.49717 125.18393,128.7006 L 128.71939,127.40497 C 129.20929,128.52507 129.88594,129.38259 130.74934,129.97753 C 131.61273,130.57247 132.60447,130.86994 133.72458,130.86994 C 134.82117,130.86994 135.702,130.5374 136.3671,129.87232 C 137.03216,129.20724 137.3647,128.3848 137.36472,127.40497 C 137.3647,126.63522 137.16051,126.00539 136.75215,125.51548 C 136.34376,125.02558 135.81291,124.61133 135.15959,124.27272 C 134.50625,123.93414 133.78866,123.63649 133.00681,123.37978 C 132.22494,123.12309 131.44913,122.84306 130.67938,122.53971 C 130.32903,122.40015 129.89734,122.20202 129.38429,121.9453 C 128.87124,121.68861 128.37545,121.33275 127.89694,120.87772 C 127.41842,120.42272 127.01005,119.85679 126.67181,119.17995 C 126.33358,118.50314 126.16446,117.67481 126.16446,116.69498 C 126.16446,115.55212 126.35102,114.57817 126.72415,113.77315 C 127.09728,112.96817 127.60481,112.31484 128.24675,111.81316 C 128.88868,111.31152 129.65879,110.94392 130.55708,110.71033 C 131.45536,110.47679 132.4293,110.36001 133.47891,110.35999 C 135.1359,110.36001 136.51858,110.79171 137.62694,111.65508 C 138.73527,112.51849 139.58104,113.68505 140.16425,115.15476 L 136.87445,116.13529 C 136.68787,115.76218 136.44292,115.42394 136.13959,115.12058 C 135.88252,114.86354 135.52648,114.62998 135.07147,114.41989 C 134.61644,114.20985 134.06245,114.09343 133.40948,114.07062 C 132.98935,114.04714 132.55178,114.07616 132.09677,114.15767 C 131.64175,114.23923 131.23925,114.38502 130.88927,114.59507 C 130.53927,114.80515 130.25925,115.09105 130.04919,115.45276 C 129.83913,115.81452 129.75759,116.26384 129.8046,116.80072 C 129.85088,117.5235 130.16579,118.07749 130.74934,118.46271 C 131.33288,118.84796 132.0446,119.1805 132.88451,119.46033 C 133.72439,119.74019 134.62855,120.02591 135.59698,120.31749 C 136.5654,120.6091 137.45781,121.02905 138.27422,121.57734 C 139.0906,122.12565 139.77312,122.86069 140.32179,123.78246 C 140.87043,124.70425 141.14476,125.93525 141.14478,127.47547 L 141.14478,127.47547 z M 160.55136,129.47071 C 159.1514,132.92357 156.79479,134.65 153.48151,134.65 C 151.73121,134.65 150.28445,134.31176 149.14122,133.63529 C 147.99798,132.95882 147.05287,131.89711 146.30591,130.45017 C 145.76971,129.39986 145.34994,128.17473 145.0466,126.77478 C 144.74325,125.37485 144.59158,123.94002 144.59158,122.47028 C 144.59158,120.60394 144.82479,118.81894 145.2912,117.11528 C 145.75761,115.41166 146.39919,114.03504 147.21594,112.98542 C 147.91591,112.12169 148.76185,111.46818 149.75378,111.02489 C 150.7457,110.58165 151.90638,110.36001 153.23584,110.35999 C 155.00961,110.36001 156.474,110.74507 157.629,111.51516 C 158.78397,112.28529 159.75809,113.49849 160.55136,115.15476 L 157.0864,116.62555 C 156.75954,116.13566 156.46189,115.72729 156.19345,115.40042 C 155.92498,115.0736 155.64496,114.8169 155.35338,114.63031 C 155.06177,114.44377 154.74685,114.31542 154.40863,114.24526 C 154.07038,114.17514 153.67945,114.14007 153.23584,114.14005 C 152.27951,114.14007 151.48056,114.3617 150.83899,114.80495 C 150.1974,115.24824 149.6783,115.99503 149.28168,117.04532 C 148.97833,117.74531 148.75082,118.57363 148.59915,119.53029 C 148.44747,120.48698 148.37164,121.46698 148.37164,122.47028 C 148.37164,123.75345 148.49999,124.98428 148.7567,126.16275 C 149.0134,127.34125 149.37495,128.30362 149.84137,129.04987 C 150.26149,129.65656 150.75157,130.11158 151.31163,130.41492 C 151.87167,130.71827 152.55971,130.86994 153.37576,130.86994 C 154.16972,130.86994 154.85829,130.65418 155.4415,130.22266 C 156.02467,129.79115 156.54948,129.09687 157.0159,128.13984 L 160.55136,129.47071 L 160.55136,129.47071 z M 179.48264,134.23023 L 177.1723,127.65064 L 169.85785,127.65064 L 167.54752,134.23023 L 163.59229,134.23023 L 171.67792,110.77976 L 175.35223,110.77976 L 183.43787,134.23023 L 179.48264,134.23023 z M 173.56741,117.28992 L 171.1524,123.87058 L 175.8425,123.87058 L 173.56741,117.28992 z M 199.65506,134.23023 L 190.69571,118.33988 L 190.69571,134.23023 L 186.98508,134.23023 L 186.98508,110.77976 L 190.69571,110.77976 L 199.23529,125.76007 L 199.23529,110.77976 L 202.94592,110.77976 L 202.94592,134.23023 L 199.65506,134.23023 z M 222.34396,134.23023 L 220.03363,127.65064 L 212.71918,127.65064 L 210.40884,134.23023 L 206.45361,134.23023 L 214.53925,110.77976 L 218.21356,110.77976 L 226.29919,134.23023 L 222.34396,134.23023 z M 216.42874,117.28992 L 214.01373,123.87058 L 218.70383,123.87058 L 216.42874,117.28992 z M 245.80725,122.47028 C 245.80723,124.82726 245.45137,126.89816 244.73967,128.68297 C 244.02793,130.4678 243.00699,131.87361 241.67685,132.90042 C 241.23321,133.32055 240.71393,133.63547 240.119,133.84517 C 239.52405,134.05488 238.92324,134.18323 238.31656,134.23023 L 236.98676,134.23023 L 229.84641,134.23023 L 229.84641,110.77976 L 237.40652,110.77976 C 237.99042,110.77978 238.49813,110.79741 238.92966,110.83263 C 239.36116,110.8679 239.75191,110.93217 240.10191,111.02542 C 240.45189,111.11873 240.7668,111.24708 241.04666,111.41048 C 241.32649,111.57392 241.62984,111.77206 241.9567,112.00489 C 243.19356,113.07872 244.14453,114.50803 244.80963,116.29284 C 245.47469,118.07767 245.80723,120.13682 245.80725,122.47028 L 245.80725,122.47028 z M 242.02719,122.47028 C 242.02718,120.88379 241.85788,119.47209 241.5193,118.2352 C 241.1807,116.99834 240.7198,116.07656 240.13663,115.46985 C 239.83327,115.19003 239.48328,114.95682 239.08667,114.77024 C 238.69003,114.58369 238.24676,114.49041 237.75687,114.49039 L 233.55704,114.49039 L 233.55704,130.45017 L 237.2666,130.45017 C 237.87328,130.45017 238.38081,130.38021 238.7892,130.24028 C 239.19756,130.10036 239.56517,129.86698 239.89203,129.54013 C 240.59199,128.84017 241.12284,127.87762 241.48459,126.65248 C 241.84631,125.42737 242.02718,124.0333 242.02719,122.47028 L 242.02719,122.47028 z M 250.90109,134.23023 L 250.90109,110.77976 L 254.68115,110.77976 L 254.68115,134.23023 L 250.90109,134.23023 z M 260.26633,134.23023 L 260.26633,110.77976 L 274.09201,110.77976 L 274.09201,114.49039 L 263.97696,114.49039 L 263.97696,120.23044 L 270.80222,120.23044 L 270.80222,124.0105 L 263.97696,124.0105 L 263.97696,130.45017 L 274.82687,130.45017 L 274.82687,134.23023 L 260.26633,134.23023 z M 291.4617,134.23023 L 282.50235,118.33988 L 282.50235,134.23023 L 278.79172,134.23023 L 278.79172,110.77976 L 282.50235,110.77976 L 291.04193,125.76007 L 291.04193,110.77976 L 294.75256,110.77976 L 294.75256,134.23023 L 291.4617,134.23023 z M 312.9949,134.23023 L 304.03555,118.33988 L 304.03555,134.23023 L 300.32492,134.23023 L 300.32492,110.77976 L 304.03555,110.77976 L 312.57513,125.76007 L 312.57513,110.77976 L 316.28577,110.77976 L 316.28577,134.23023 L 312.9949,134.23023 z M 321.85812,134.23023 L 321.85812,110.77976 L 335.68381,110.77976 L 335.68381,114.49039 L 325.56876,114.49039 L 325.56876,120.23044 L 332.39401,120.23044 L 332.39401,124.0105 L 325.56876,124.0105 L 325.56876,130.45017 L 336.41867,130.45017 L 336.41867,134.23023 L 321.85812,134.23023 z "
   id="flowRoot3349" /></svg>