<?xml version="1.0" encoding="UTF-8" standalone="no"?>
<!-- Generator: Adobe Illustrator 12.0.0, SVG Export Plug-In . SVG Version: 6.00 Build 51448)  -->

<svg
   xmlns:dc="http://purl.org/dc/elements/1.1/"
   xmlns:cc="http://creativecommons.org/ns#"
   xmlns:rdf="http://www.w3.org/1999/02/22-rdf-syntax-ns#"
   xmlns:svg="http://www.w3.org/2000/svg"
   xmlns="http://www.w3.org/2000/svg"
   xmlns:sodipodi="http://sodipodi.sourceforge.net/DTD/sodipodi-0.dtd"
   xmlns:inkscape="http://www.inkscape.org/namespaces/inkscape"
   version="1.1"
   id="Layer_1"
   width="384"
   height="384"
   viewBox="0 0 384 384"
   overflow="visible"
   enable-background="new 0 0 384 384"
   xml:space="preserve"
   inkscape:version="0.48.2 r9819"
   sodipodi:docname="U-blank.svg"><metadata
   id="metadata29"><rdf:RDF><cc:Work
       rdf:about=""><dc:format>image/svg+xml</dc:format><dc:type
         rdf:resource="http://purl.org/dc/dcmitype/StillImage" /><dc:title /></cc:Work></rdf:RDF></metadata><defs
   id="defs27" /><sodipodi:namedview
   pagecolor="#ffffff"
   bordercolor="#666666"
   borderopacity="1"
   objecttolerance="10"
   gridtolerance="10"
   guidetolerance="10"
   inkscape:pageopacity="0"
   inkscape:pageshadow="2"
   inkscape:window-width="640"
   inkscape:window-height="480"
   id="namedview25"
   showgrid="false"
   inkscape:zoom="0.61458333"
   inkscape:cx="192"
   inkscape:cy="192"
   inkscape:window-x="2052"
   inkscape:window-y="247"
   inkscape:window-maximized="0"
   inkscape:current-layer="Layer_1" />
<g
   id="g1234"><path
   fill-rule="evenodd"
   clip-rule="evenodd"
   fill="#FFFFFF"
   d="M192,0.003418    c-14.8681641,14.0512695-34.9277344,22.6665039-57,22.6665039c-22.0732422,0-42.1318359-8.6176758-57-22.6699219L0,80.7714844    c19.4160156,14.3930664,32,37.4790039,32,63.5043945c0,16.487793-5.0517578,31.7973633-13.6904297,44.4628906    C6.793457,205.5878906,0,226.0507813,0,248c0,57.7871094,46.6801758,104.6699219,104.390625,104.9980469    C137.668457,352.9980469,167.9755859,364.609375,192,384c24.0244141-19.390625,54.3320313-31.0019531,87.609375-31.0019531    C337.3193359,352.6699219,384,305.7871094,384,248c0-21.9492188-6.7929688-42.4121094-18.3095703-59.2612305    C357.0517578,176.0732422,352,160.7636719,352,144.2758789c0-26.0253906,12.5839844-49.1113281,32-63.5043945L306,0    c-14.8681641,14.0522461-34.9267578,22.6699219-57,22.6699219C226.9277344,22.6699219,206.8681641,14.0546875,192,0.003418z"
   id="path7" /><path
   clip-rule="evenodd"
   d="m 303.87207,28.027344 20.00136,20.712028 30.36485,31.443734 C 339.74805,97.525391 331,119.88574 331,144.27588 c 0,20.84326 6.40527,40.26269 17.34766,56.3042 C 357.56543,214.06836 363,230.43164 363,248 c 0,46.22949 -37.34375,83.73633 -83.50977,83.99902 C 247.12109,332.02148 217.1582,341.61621 192,358.06055 166.81152,341.5957 136.80469,331.99805 104.39063,331.99805 58.279785,331.67285 21,294.19043 21,248 21,230.43262 26.43457,214.06836 35.652344,200.58008 46.594238,184.53857 53,165.11914 53,144.27588 53,119.88525 44.252441,97.525391 29.761719,80.183106 L 80.12793,28.027344 C 96.056641,37.936523 114.87451,43.669922 135,43.669922 c 21.02832,0 40.62988,-6.258789 57,-17 16.37012,10.741211 35.97168,17 57,17 20.12598,0 38.94336,-5.733399 54.87207,-15.642578 z M 249,31.669922 c 21.25488,0 40.83789,-7.217773 56.41211,-19.322266 l 65.40332,67.726563 C 353.70605,96.120117 343,118.94775 343,144.27588 c 0,18.35449 5.63184,35.42529 15.25781,49.5376 C 368.78906,209.22266 375,227.92773 375,248 c 0,52.83398 -42.67871,95.69922 -95.44141,95.99805 C 246.71582,344.00977 216.57715,354.6543 192,372.65039 167.41064,354.64551 137.25244,343.99805 104.39062,343.99805 51.651367,343.67187 9,300.81641 9,248 9,227.92773 15.210938,209.22266 25.742187,193.81348 35.368164,179.70117 41,162.63037 41,144.27588 41,118.94775 30.293457,96.120117 13.18457,80.074219 L 78.587891,12.347656 C 94.162598,24.452148 113.74512,31.669922 135,31.669922 c 21.52197,0 41.33105,-7.398926 57,-19.780273 15.66895,12.381347 35.47754,19.780273 57,19.780273 z"
   id="path13"
   inkscape:connector-curvature="0"
   style="fill-rule:evenodd;fill:#000000"
   sodipodi:nodetypes="cccscscccscsccscscsccscscccscsccscs" />
</g>
</svg>
