<?xml version="1.0" encoding="UTF-8" standalone="no"?>
<!-- Created with Inkscape (http://www.inkscape.org/) -->

<svg
   xmlns:dc="http://purl.org/dc/elements/1.1/"
   xmlns:cc="http://creativecommons.org/ns#"
   xmlns:rdf="http://www.w3.org/1999/02/22-rdf-syntax-ns#"
   xmlns:svg="http://www.w3.org/2000/svg"
   xmlns="http://www.w3.org/2000/svg"
   xmlns:sodipodi="http://sodipodi.sourceforge.net/DTD/sodipodi-0.dtd"
   xmlns:inkscape="http://www.inkscape.org/namespaces/inkscape"
   width="32px"
   height="32px"
   id="svg16072"
   version="1.1"
   inkscape:version="0.48.2 r9819"
   sodipodi:docname="New document 57">
  <defs
     id="defs16074" />
  <sodipodi:namedview
     id="base"
     pagecolor="#ffffff"
     bordercolor="#666666"
     borderopacity="1.0"
     inkscape:pageopacity="0.0"
     inkscape:pageshadow="2"
     inkscape:zoom="4"
     inkscape:cx="16"
     inkscape:cy="16"
     inkscape:current-layer="layer1"
     showgrid="true"
     inkscape:grid-bbox="true"
     inkscape:document-units="px"
     inkscape:window-width="768"
     inkscape:window-height="722"
     inkscape:window-x="2020"
     inkscape:window-y="100"
     inkscape:window-maximized="0" />
  <metadata
     id="metadata16077">
    <rdf:RDF>
      <cc:Work
         rdf:about="">
        <dc:format>image/svg+xml</dc:format>
        <dc:type
           rdf:resource="http://purl.org/dc/dcmitype/StillImage" />
        <dc:title></dc:title>
      </cc:Work>
    </rdf:RDF>
  </metadata>
  <g
     id="layer1"
     inkscape:label="Layer 1"
     inkscape:groupmode="layer">
    <g
       id="g1970"
       transform="matrix(0.06545462,0,0,0.06456428,1.334209,1.0454166)"
       style="fill:#675747;fill-opacity:1;stroke:#ffffff;stroke-width:20;stroke-linejoin:round;stroke-miterlimit:4;stroke-opacity:1;stroke-dasharray:none">
      <path
         style="fill:#675747;fill-opacity:1;stroke:#ffffff;stroke-width:20;stroke-linejoin:round;stroke-miterlimit:4;stroke-opacity:1;stroke-dasharray:none"
         d="m 221.15625,-6.09375 c -22.6451,-0.397455 -39.62105,24.739876 -34.25,45.9375 -0.18847,42.270502 0.45101,80.546 -0.375,122.8125 -15.35775,12.84432 -34.63105,19.695 -50.52914,31.81918 -47.014433,29.35061 -95.511214,56.60393 -141.4752379,87.46278 -9.3424151,18.08568 -2.2085221,38.85406 -4.5893721,58.09304 2.0028067,10.46605 16.1341172,13.52623 23.987514,7.52 58.444429,-18.06956 115.911676,-39.23205 174.606236,-56.48875 -0.24041,22.3332 0.95126,44.65871 0.28125,67 -0.49366,6.82099 0.62611,14.36034 -1.40625,20.71875 -13.02858,14.61442 -34.75048,21.16057 -42.96875,39.875 -2.70931,12.16774 -0.4196,24.80504 -1.1875,37.125 0.96676,8.65418 10.19035,16.54952 18.81024,12.49328 17.07474,-5.43627 34.41272,-10.03948 51.15851,-16.14953 8.85331,-3.22398 18.39094,-2.04849 26.82761,1.64794 18.84147,5.7476 37.69929,14.72146 57.64114,14.44581 9.63744,-4.51553 8.06307,-16.83129 7.10093,-25.49489 1.71279,-12.74309 2.08405,-29.12832 -10.1318,-36.97356 -11.55669,-9.30644 -24.14591,-17.49835 -34.87538,-27.84405 -0.71271,-28.88255 -1.60206,-59.12192 0.21875,-87.1875 22.5026,7.73071 45.47965,14.059 67.92923,22.0237 39.76748,13.09664 79.25545,27.50644 119.82077,37.82005 10.17467,-1.71302 12.57269,-14.80025 9.6875,-23.28125 -0.35411,-14.86652 4.16657,-31.50663 -4.21875,-44.9375 -34.33894,-24.76885 -72.40765,-43.73509 -107.97821,-66.64991 -28.73639,-17.24195 -57.44445,-34.531 -86.11554,-51.88134 -3.23256,-18.59021 0.90709,-37.62616 -1.10385,-56.37495 -0.13673,-32.245371 2.38735,-60.812063 -2.8649,-92.7813 -5.77796,-12.96082 -19.88967,-21.341485 -34,-20.75 z"
         id="path1972"
         sodipodi:nodetypes="ccccccccccccccccccccccccccccc"
         inkscape:connector-curvature="0" />
    </g>
  </g>
</svg>
