<?xml version="1.0" encoding="UTF-8" standalone="no"?>
<!-- Created with Inkscape (http://www.inkscape.org/) -->

<svg
   xmlns:dc="http://purl.org/dc/elements/1.1/"
   xmlns:cc="http://creativecommons.org/ns#"
   xmlns:rdf="http://www.w3.org/1999/02/22-rdf-syntax-ns#"
   xmlns:svg="http://www.w3.org/2000/svg"
   xmlns="http://www.w3.org/2000/svg"
   xmlns:sodipodi="http://sodipodi.sourceforge.net/DTD/sodipodi-0.dtd"
   xmlns:inkscape="http://www.inkscape.org/namespaces/inkscape"
   width="32px"
   height="32px"
   id="svg17338"
   version="1.1"
   inkscape:version="0.48.2 r9819"
   sodipodi:docname="New document 63">
  <defs
     id="defs17340" />
  <sodipodi:namedview
     id="base"
     pagecolor="#ffffff"
     bordercolor="#666666"
     borderopacity="1.0"
     inkscape:pageopacity="0.0"
     inkscape:pageshadow="2"
     inkscape:zoom="11.197802"
     inkscape:cx="16"
     inkscape:cy="16"
     inkscape:current-layer="layer1"
     showgrid="true"
     inkscape:grid-bbox="true"
     inkscape:document-units="px"
     inkscape:window-width="912"
     inkscape:window-height="602"
     inkscape:window-x="2170"
     inkscape:window-y="250"
     inkscape:window-maximized="0" />
  <metadata
     id="metadata17343">
    <rdf:RDF>
      <cc:Work
         rdf:about="">
        <dc:format>image/svg+xml</dc:format>
        <dc:type
           rdf:resource="http://purl.org/dc/dcmitype/StillImage" />
        <dc:title></dc:title>
      </cc:Work>
    </rdf:RDF>
  </metadata>
  <g
     id="layer1"
     inkscape:label="Layer 1"
     inkscape:groupmode="layer">
    <g
       id="g2117"
       transform="matrix(0.06608837,0,0,0.06596895,4.4220618,1.9058048)"
       style="fill:#000000">
      <g
         id="g2119"
         style="fill:#000000">
        <g
           id="g2121"
           style="fill:#000000">
          <path
             inkscape:connector-curvature="0"
             id="path2125"
             style="fill:#000000;stroke:none"
             d="" />
        </g>
        <g
           id="g2127"
           style="fill:#000000">
          <path
             inkscape:connector-curvature="0"
             id="path2131"
             style="fill:#000000;stroke:none"
             d="" />
        </g>
      </g>
    </g>
    <path
       transform="matrix(0.05226027,0,0,0.05216584,4.6823224,0.02895433)"
       d="m 505.71429,305.71429 a 288.57144,288.57144 0 1 1 -577.142879,0 288.57144,288.57144 0 1 1 577.142879,0 z"
       sodipodi:ry="288.57144"
       sodipodi:rx="288.57144"
       sodipodi:cy="305.71429"
       sodipodi:cx="217.14285"
       id="path3267"
       style="opacity:0.1;fill:#ffffff;fill-opacity:1;stroke:#ffffff;stroke-width:25.1376152;stroke-miterlimit:4;stroke-opacity:1;stroke-dasharray:none;stroke-dashoffset:0"
       sodipodi:type="arc" />
    <path
       sodipodi:type="arc"
       style="fill:#ffffff;stroke:#000000;stroke-width:25.13761519999999900;stroke-miterlimit:4;stroke-opacity:1;stroke-dasharray:none;stroke-dashoffset:0"
       id="path3276"
       sodipodi:cx="217.14285"
       sodipodi:cy="305.71429"
       sodipodi:rx="288.57144"
       sodipodi:ry="288.57144"
       d="m 505.71429,305.71429 a 288.57144,288.57144 0 1 1 -577.142879,0 288.57144,288.57144 0 1 1 577.142879,0 z"
       transform="matrix(0.05226027,0,0,0.05216584,4.6823224,0.02895433)" />
    <path
       inkscape:connector-curvature="0"
       style="fill:#000000;stroke:none"
       d="m 15.953512,4.1311222 c 0.02925,0 0.0596,0.001 0.08916,0.001 0.02975,-2.2e-4 0.05971,-0.001 0.08916,-0.001 l -0.178365,0 z m 0.08916,0.001 C 13.966184,4.1485216 11.152825,4.73217 9.9785563,5.2205619 8.7874682,5.7159535 7.9931623,6.2115851 7.7450432,7.4500292 l -0.8931308,6.8664548 0,9.46009 1.5390039,0 0,1.483615 c 0,1.808943 2.6510227,1.808943 2.6510227,0 l 0,-1.483615 4.896696,0 0.01483,0 5.089918,0 0,1.483615 c 0,1.808943 2.652375,1.808943 2.652375,0 l 0,-1.483615 1.539004,0 0,-9.46009 -0.893141,-6.8664548 C 24.093509,6.2115851 23.299203,5.7159535 22.108115,5.2205619 20.933736,4.73212 18.119195,4.1484416 16.042639,4.1321222 z m -3.780611,1.7331358 3.691434,0 3.871151,0 c 0.744458,0 0.744458,1.1140687 0,1.1140687 l -3.879256,0 -3.683329,0 c -0.744457,0 -0.744457,-1.1140687 0,-1.1140687 z m -2.007864,2.2402669 5.691193,0 5.885768,0 c 0.786391,0 0.992226,0.3984552 1.087705,1.0034628 l 0.695851,4.9795653 c 0.06482,0.477302 -0.07443,0.950865 -0.735041,0.950865 l -6.926178,0 -6.7478137,0 c -0.6606292,0 -0.7985233,-0.473563 -0.7336985,-0.950865 L 9.1678414,9.1089877 C 9.2633104,8.5039801 9.4678023,8.1055249 10.254194,8.1055249 z M 9.7177747,18.271008 c 0.7025233,-10e-6 1.2714703,0.569259 1.2714703,1.270513 0,0.701244 -0.568947,1.269163 -1.2714703,1.269163 -0.7025134,0 -1.2728127,-0.567919 -1.2728127,-1.269163 0,-0.701254 0.5702993,-1.270513 1.2728127,-1.270513 z m 12.6511513,0 c 0.702514,0 1.271461,0.569259 1.271461,1.270513 0,0.701244 -0.568947,1.269163 -1.271461,1.269163 -0.702523,0 -1.272822,-0.567919 -1.272822,-1.269163 0,-0.701254 0.570299,-1.270523 1.272822,-1.270513 z"
       id="path2115" />
  </g>
</svg>
