<?xml version="1.0" encoding="UTF-8" standalone="no"?>
<!-- Created with Inkscape (http://www.inkscape.org/) -->

<svg
   xmlns:dc="http://purl.org/dc/elements/1.1/"
   xmlns:cc="http://creativecommons.org/ns#"
   xmlns:rdf="http://www.w3.org/1999/02/22-rdf-syntax-ns#"
   xmlns:svg="http://www.w3.org/2000/svg"
   xmlns="http://www.w3.org/2000/svg"
   xmlns:sodipodi="http://sodipodi.sourceforge.net/DTD/sodipodi-0.dtd"
   xmlns:inkscape="http://www.inkscape.org/namespaces/inkscape"
   width="32px"
   height="32px"
   id="svg7225"
   version="1.1"
   inkscape:version="0.48.2 r9819"
   sodipodi:docname="cemetery.svg">
  <defs
     id="defs7227" />
  <sodipodi:namedview
     id="base"
     pagecolor="#ffffff"
     bordercolor="#666666"
     borderopacity="1.0"
     inkscape:pageopacity="0.0"
     inkscape:pageshadow="2"
     inkscape:zoom="8"
     inkscape:cx="16"
     inkscape:cy="16"
     inkscape:current-layer="layer1"
     showgrid="true"
     inkscape:grid-bbox="true"
     inkscape:document-units="px"
     inkscape:window-width="929"
     inkscape:window-height="631"
     inkscape:window-x="2070"
     inkscape:window-y="150"
     inkscape:window-maximized="0" />
  <metadata
     id="metadata7230">
    <rdf:RDF>
      <cc:Work
         rdf:about="">
        <dc:format>image/svg+xml</dc:format>
        <dc:type
           rdf:resource="http://purl.org/dc/dcmitype/StillImage" />
        <dc:title />
      </cc:Work>
    </rdf:RDF>
  </metadata>
  <g
     id="layer1"
     inkscape:label="Layer 1"
     inkscape:groupmode="layer">
    <path
       style="fill:#645849;fill-opacity:1"
       d="M 12.25 0 C 10.000883 -0.03664035 7.6347477 1.1667698 7.15625 3.625 C 6.9536547 4.6658038 6.7782133 5.009887 5.5 5.03125 C 1.5624073 5.09706 -0.10790028 10.651955 3.21875 13.28125 C 3.5483749 13.541782 3.3596849 13.780401 2.25 14.59375 C -3.3975056 18.733117 2.6923253 26.995442 8.46875 23.03125 C 9.3144473 22.450872 9.434172 22.426973 9.625 22.90625 C 10.027801 23.91791 9.8462542 28.797022 9.34375 30.40625 L 8.84375 32 L 11.875 32 C 12.174113 32 12.319997 32.001 12.5625 32 C 12.808031 32.001 12.946063 32 13.25 32 L 16.28125 32 L 15.78125 30.40625 C 15.278744 28.797022 15.097195 23.91791 15.5 22.90625 C 15.690829 22.426973 15.841802 22.450872 16.6875 23.03125 C 22.463924 26.995442 28.522506 18.733117 22.875 14.59375 C 21.765315 13.780401 21.539501 13.428445 21.9375 13.28125 C 25.264149 12.050931 23.465821 5.6566521 19.625 5.03125 C 18.364458 4.8259976 18.202595 4.6658038 18 3.625 C 17.498847 1.0503966 14.901514 -0.12912773 12.5625 0.03125 C 12.455896 0.02389419 12.357368 0.00174942 12.25 0 z M 28 23.125 C 27 23.125 26 23.75 25 25 L 25 32 L 31 32 L 31 25 C 30 23.75 29 23.125 28 23.125 z "
       id="path2985" />
  </g>
</svg>
