<?xml version="1.0" encoding="UTF-8" standalone="no"?>
<!-- Created with Inkscape (http://www.inkscape.org/) -->

<svg
   xmlns:dc="http://purl.org/dc/elements/1.1/"
   xmlns:cc="http://creativecommons.org/ns#"
   xmlns:rdf="http://www.w3.org/1999/02/22-rdf-syntax-ns#"
   xmlns:svg="http://www.w3.org/2000/svg"
   xmlns="http://www.w3.org/2000/svg"
   xmlns:sodipodi="http://sodipodi.sourceforge.net/DTD/sodipodi-0.dtd"
   xmlns:inkscape="http://www.inkscape.org/namespaces/inkscape"
   width="32px"
   height="32px"
   id="svg7225"
   version="1.1"
   inkscape:version="0.48.2 r9819"
   sodipodi:docname="cemetery.svg">
  <defs
     id="defs7227" />
  <sodipodi:namedview
     id="base"
     pagecolor="#ffffff"
     bordercolor="#666666"
     borderopacity="1.0"
     inkscape:pageopacity="0.0"
     inkscape:pageshadow="2"
     inkscape:zoom="8"
     inkscape:cx="16"
     inkscape:cy="16"
     inkscape:current-layer="layer1"
     showgrid="true"
     inkscape:grid-bbox="true"
     inkscape:document-units="px"
     inkscape:window-width="786"
     inkscape:window-height="631"
     inkscape:window-x="2070"
     inkscape:window-y="150"
     inkscape:window-maximized="0">
  </sodipodi:namedview>
  <metadata
     id="metadata7230">
    <rdf:RDF>
      <cc:Work
         rdf:about="">
        <dc:format>image/svg+xml</dc:format>
        <dc:type
           rdf:resource="http://purl.org/dc/dcmitype/StillImage" />
        <dc:title></dc:title>
      </cc:Work>
    </rdf:RDF>
  </metadata>
  <g
     id="layer1"
     inkscape:label="Layer 1"
     inkscape:groupmode="layer">
    <path
       inkscape:connector-curvature="0"
       style="fill:#645849;fill-opacity:1"
       d="M 12.25009,8.140314e-4 C 10.000973,-0.03582632 7.6335564,1.1636604 7.1550587,3.6218906 6.9524634,4.6626944 6.7832391,4.997383 5.5050258,5.018746 c -3.9375927,0.06581 -5.61216748,5.644383 -2.2855172,8.273678 0.3296249,0.260532 0.1397342,0.4868 -0.9699507,1.300149 C -3.3979477,18.73194 2.683051,26.99162 8.4594757,23.027428 9.305173,22.44705 9.4392781,22.4407 9.6301061,22.919977 c 0.4028009,1.01166 0.223783,5.869318 -0.2787212,7.478546 l -0.5016992,1.60101 3.0213433,0 c 0.299113,0 0.448727,10e-4 0.69123,0 0.245531,10e-4 0.39844,0 0.702377,0 l 3.021343,0 -0.490549,-1.60101 c -0.502506,-1.609228 -0.692676,-6.466886 -0.289871,-7.478546 0.190829,-0.479277 0.324933,-0.472927 1.170631,0.107451 5.776424,3.964192 11.857423,-4.295488 6.209917,-8.434855 -1.109685,-0.813349 -1.3568,-1.152954 -0.958801,-1.300149 C 25.253955,12.062105 23.47146,5.6441481 19.630639,5.018746 18.370097,4.8134936 18.194351,4.6626944 17.991756,3.6218906 17.490603,1.0472872 14.912421,-0.13807464 12.573407,0.02230309 12.466803,0.01494728 12.357458,0.00256345 12.25009,8.140314e-4 z"
       id="path9696" />
    <path
       sodipodi:type="star"
       style="fill:#645849;fill-opacity:1;fill-rule:evenodd;stroke:none"
       id="path7752"
       sodipodi:sides="4"
       sodipodi:cx="25"
       sodipodi:cy="27"
       sodipodi:r1="5.6568542"
       sodipodi:r2="4"
       sodipodi:arg1="0.78539816"
       sodipodi:arg2="1.5707963"
       inkscape:flatsided="true"
       inkscape:rounded="0"
       inkscape:randomized="0"
       d="m 29,31 -8,0 0,-8 8,0 z"
       transform="matrix(0.75000005,0,0,0.87500002,9.2499985,4.8749994)" />
  </g>
</svg>
