<?xml version="1.0" encoding="UTF-8" standalone="no"?>
<!-- Created with Inkscape (http://www.inkscape.org/) -->

<svg
   xmlns:dc="http://purl.org/dc/elements/1.1/"
   xmlns:cc="http://creativecommons.org/ns#"
   xmlns:rdf="http://www.w3.org/1999/02/22-rdf-syntax-ns#"
   xmlns:svg="http://www.w3.org/2000/svg"
   xmlns="http://www.w3.org/2000/svg"
   xmlns:sodipodi="http://sodipodi.sourceforge.net/DTD/sodipodi-0.dtd"
   xmlns:inkscape="http://www.inkscape.org/namespaces/inkscape"
   width="32"
   height="32"
   id="svg2"
   version="1.1"
   inkscape:version="0.48.2 r9819"
   sodipodi:docname="circus.svg">
  <defs
     id="defs4" />
  <sodipodi:namedview
     id="base"
     pagecolor="#ffffff"
     bordercolor="#666666"
     borderopacity="1.0"
     inkscape:pageopacity="0.0"
     inkscape:pageshadow="2"
     inkscape:zoom="13.360924"
     inkscape:cx="15.983447"
     inkscape:cy="15.83636"
     inkscape:document-units="px"
     inkscape:current-layer="layer1"
     showgrid="false"
     inkscape:window-width="695"
     inkscape:window-height="641"
     inkscape:window-x="2145"
     inkscape:window-y="225"
     inkscape:window-maximized="0" />
  <metadata
     id="metadata7">
    <rdf:RDF>
      <cc:Work
         rdf:about="">
        <dc:format>image/svg+xml</dc:format>
        <dc:type
           rdf:resource="http://purl.org/dc/dcmitype/StillImage" />
        <dc:title />
      </cc:Work>
    </rdf:RDF>
  </metadata>
  <g
     inkscape:label="Layer 1"
     inkscape:groupmode="layer"
     id="layer1"
     transform="translate(0,-1020.3622)">
    <path
       style="fill:#000000;stroke:#000000;stroke-width:0.03330213000000000px;stroke-linecap:butt;stroke-linejoin:miter;stroke-opacity:1"
       d="m 15.756252,1032.0491 c -0.196583,0 -0.355917,0.1516 -0.355917,0.3392 0,0.1872 0.158226,0.3393 0.353824,0.3403 l -0.09219,3.7991 -0.164901,0.2129 -1.811843,2.7828 -1.5527,1.8764 -2.038716,1.9096 -0.3559179,-0.1299 -2.2655884,-1.7474 -0.5172206,-0.6462 -0.3559171,-0.1299 -0.032272,-2.3291 0.3236457,-0.033 0.4204465,0.2579 0.5172207,0.098 0.5505307,-0.4214 -0.9709639,-0.097 0,-0.3882 -0.8408797,-0.2591 -0.064545,-0.356 -0.015589,0 c 0.1248471,-0.049 0.2091775,-0.1449 0.2091775,-0.2548 0,-0.1608 -0.1814603,-0.2914 -0.4048307,-0.2914 -0.2233847,0 -0.403792,0.1312 -0.403792,0.2914 0,0.1243 0.1074812,0.2285 0.2591306,0.2705 l 0,3.4821 -0.3892148,0.064 c -0.2046693,0.248 -0.4093387,0.4961 -0.6140081,0.7441 -0.6147005,0.5394 -1.2294011,1.0788 -1.8441016,1.6183 -0.6365569,0.3774 -1.2731138,0.7548 -1.9096707,1.1322 -0.3429936,0.1429 -0.6859872,0.2858 -1.0289809,0.4287 l -0.2979683,4.6843 14.949523,0 0,-3.0741 2.976382,0.033 0.03227,3.0096 13.914042,-0.033 -0.336981,-4.4379 -1.281289,-0.5782 -1.552714,-1.0021 -1.812883,-1.327 -1.367157,-1.4662 -0.02323,-2.0284 0.614008,0.033 0.259129,0.2268 0.711835,0 0.615047,-0.4536 -1.067752,-0.064 -0.486002,-0.4528 -0.711835,-0.2269 0.03227,-0.3881 0.127414,-0.111 0.06511,-0.1766 c -0.0186,-0.1176 -0.150636,-0.2116 -0.318463,-0.2279 l -0.0028,0 -10e-4,0 c -0.01546,0 -0.03186,0 -0.04786,0 -0.205498,0 -0.37152,0.1148 -0.37152,0.2581 0,0.1052 0.08956,0.1955 0.218545,0.2362 l 0.07288,0.087 0.02323,3.3063 -0.185556,0.1566 -1.747329,1.6506 -1.58637,1.1296 -0.419035,-0.3211 -2.135503,-1.844 -1.489225,-1.9097 -1.488184,-2.4914 -0.259144,-0.2904 0.06564,-2.4268 0.452704,-0.033 0.647306,0.388 0.614007,0 0.745131,-0.3559 -1.423654,-0.3559 -0.389229,-0.4215 -0.744093,-0.097 -0.02284,-0.5275 c 0.110216,-0.057 0.185234,-0.1691 0.185234,-0.2977 0,-0.1876 -0.159334,-0.3392 -0.355903,-0.3392 z"
       id="path3891"
       inkscape:connector-curvature="0"
       sodipodi:nodetypes="csccccccccccccccccccccssscccccccccccccccccccccccccccccccsssccccccccccccccccccccscc" />
    <g
       id="g3006">
      <path
         transform="matrix(0.03257735,0,0,0.03257735,1.2136013,1071.7954)"
         d="m 750.24142,-1373.2141 a 103.60477,102.41391 0 1 1 -207.20953,0 103.60477,102.41391 0 1 1 207.20953,0 z"
         sodipodi:ry="102.41391"
         sodipodi:rx="103.60477"
         sodipodi:cy="-1373.2141"
         sodipodi:cx="646.63666"
         id="path3903"
         style="fill:#000000;fill-opacity:1;fill-rule:evenodd;stroke:none;stroke-width:2;stroke-linecap:round;stroke-linejoin:miter;stroke-miterlimit:4;stroke-opacity:1;stroke-dasharray:none"
         sodipodi:type="arc" />
      <path
         inkscape:connector-curvature="0"
         id="path3905"
         d="m 18.95466,1027.7682 2.337807,4.851 -0.03031,0.8062 2.132107,0.01 -0.01335,-0.8604 2.206075,-4.7633 z"
         style="fill:#000000;stroke:none"
         sodipodi:nodetypes="ccccccc" />
      <rect
         y="1035.0515"
         x="21.619795"
         height="1.3190315"
         width="1.4742117"
         id="rect3907"
         style="fill:#000000;fill-opacity:1;fill-rule:evenodd;stroke:none" />
      <path
         inkscape:connector-curvature="0"
         id="path3909"
         d="m 19.025769,1028.0357 2.614233,7.0361"
         style="fill:#000000;stroke:#000000;stroke-width:0.0651547;stroke-linecap:butt;stroke-linejoin:miter;stroke-opacity:1"
         sodipodi:nodetypes="cc" />
      <path
         inkscape:connector-curvature="0"
         id="path3909-1"
         d="m 25.482332,1028.209 -2.442467,6.8543"
         style="fill:#000000;stroke:#000000;stroke-width:0.0651547;stroke-linecap:butt;stroke-linejoin:miter;stroke-opacity:1"
         sodipodi:nodetypes="cc" />
    </g>
  </g>
</svg>
