<?xml version="1.0" encoding="UTF-8" standalone="no"?>
<!-- Created with Inkscape (http://www.inkscape.org/) -->

<svg
   xmlns:dc="http://purl.org/dc/elements/1.1/"
   xmlns:cc="http://creativecommons.org/ns#"
   xmlns:rdf="http://www.w3.org/1999/02/22-rdf-syntax-ns#"
   xmlns:svg="http://www.w3.org/2000/svg"
   xmlns="http://www.w3.org/2000/svg"
   xmlns:sodipodi="http://sodipodi.sourceforge.net/DTD/sodipodi-0.dtd"
   xmlns:inkscape="http://www.inkscape.org/namespaces/inkscape"
   width="32px"
   height="32px"
   id="svg10193"
   version="1.1"
   inkscape:version="0.48.2 r9819"
   sodipodi:docname="New document 32">
  <defs
     id="defs10195" />
  <sodipodi:namedview
     id="base"
     pagecolor="#ffffff"
     bordercolor="#666666"
     borderopacity="1.0"
     inkscape:pageopacity="0.0"
     inkscape:pageshadow="2"
     inkscape:zoom="4"
     inkscape:cx="14.564221"
     inkscape:cy="16"
     inkscape:current-layer="layer1"
     showgrid="true"
     inkscape:grid-bbox="true"
     inkscape:document-units="px"
     inkscape:window-width="708"
     inkscape:window-height="636"
     inkscape:window-x="2837"
     inkscape:window-y="173"
     inkscape:window-maximized="0" />
  <metadata
     id="metadata10198">
    <rdf:RDF>
      <cc:Work
         rdf:about="">
        <dc:format>image/svg+xml</dc:format>
        <dc:type
           rdf:resource="http://purl.org/dc/dcmitype/StillImage" />
        <dc:title></dc:title>
      </cc:Work>
    </rdf:RDF>
  </metadata>
  <g
     id="layer1"
     inkscape:label="Layer 1"
     inkscape:groupmode="layer">
    <path
       inkscape:connector-curvature="0"
       style="opacity:1;fill:#4040c0;fill-opacity:1;fill-rule:evenodd;stroke:none;stroke-opacity:1"
       d="m 4.6152937,6.4140879 -0.3070414,2.4522871 -0.8333974,2.145754 -1.491343,2.758824 -0.5702197,2.05817 0.9649867,2.715035 1.3597543,2.671243 0.5702191,3.678433 3.114276,-2.408499 1.6229319,1.751635 -2.6756447,2.802616 0.4824932,0.437908 1.798384,0.175163 1.6667953,0.437909 2.851097,1.664052 2.017701,0.613074 1.929973,-0.262746 2.456328,-1.094771 2.14929,-0.832027 2.324741,-0.306536 1.00885,-0.613073 -2.500193,-2.58366 1.798383,-1.664052 2.675647,2.539869 0.482493,-0.788236 0.263178,-2.364705 1.184303,-2.277126 1.272026,-2.408497 0.307042,-1.707845 -0.789535,-2.189543 -1.31589,-2.452288 L 27.906566,8.866375 27.687248,6.9395779 26.152044,8.0781407 24.572974,9.4794472 22.993905,7.7716047 25.494098,5.0565707 24.967742,4.4872894 22.599138,4.2245439 20.362123,3.3487267 17.905793,1.9912094 16.107409,1.5970921 l -2.149288,0.4816991 -2.061564,1.2261447 -1.88611,0.5692813 -2.9826862,0.2189542 0,0.5254905 L 9.5718171,7.5088592 7.7295693,9.0853301 4.6152937,6.4140879 z"
       id="path6053" />
    <path
       inkscape:connector-curvature="0"
       style="fill:#ffffff;stroke:#ffffff;stroke-width:1;stroke-linecap:round;stroke-linejoin:round;stroke-miterlimit:4;stroke-opacity:1;stroke-dasharray:none"
       d="M 15.868721,1.3674534 C 14.513176,1.3711838 13.389742,2.225085 12.25289,2.8542603 10.949087,3.5355299 9.4590845,3.8286939 7.9915505,3.7456897 7.5495766,3.7625341 6.8831061,3.7635627 6.7480456,4.290362 6.6289664,4.8356278 7.1803652,5.1671788 7.4524124,5.5522763 8.0846234,6.2911452 8.7258451,7.0137214 9.3923371,7.718687 9.4932234,7.5777669 9.9131535,7.4836274 9.6549453,7.3074947 8.9119129,6.422836 8.0693965,5.6094705 7.4132145,4.6583828 7.3557336,4.2599849 7.8375328,4.1740873 8.1357174,4.2078458 c 1.1361151,-0.00871 2.3308836,0.057863 3.3602566,-0.5014114 1.517379,-0.6898603 2.91606,-1.8672448 4.662735,-1.8826345 1.676847,0.032431 3.05537,1.1202565 4.484153,1.861371 1.012647,0.5717519 2.140334,0.9858134 3.316013,0.945406 0.384737,0.030302 0.870412,-0.057017 1.150118,0.2584329 0.158707,0.3933407 -0.312762,0.5978841 -0.506666,0.8624051 -0.64933,0.6494248 -1.301426,1.2959149 -1.95413,1.9411011 0.16499,0.069377 0.330978,0.4056959 0.477683,0.2601751 C 24.01549,7.036927 24.98409,6.195829 25.790545,5.2063264 25.91712,4.8579015 25.760142,4.3658481 25.333375,4.3447287 24.340447,4.1201629 23.292234,4.2367091 22.310698,3.928883 20.445195,3.4316564 19.014209,1.9132429 17.133524,1.4655929 16.7214,1.3777887 16.293389,1.3595616 15.868721,1.3674534 z M 4.7984136,6.1321047 C 4.3856197,6.1261056 4.2780464,6.6164615 4.2815639,6.9381722 4.1854272,7.90706 4.2163229,8.9180625 3.8088811,9.8205893 3.1229155,11.730569 1.5438817,13.285863 1.3366833,15.363496 c -0.1408683,1.440364 0.58298,2.748792 1.2419163,3.977031 0.742395,1.389633 1.3824539,2.925769 1.2318908,4.535118 -0.020933,0.447479 -0.016375,1.094083 0.4620138,1.292164 C 4.6919273,25.282131 4.9755643,24.8567 5.3013858,24.67875 6.1323943,24.064622 6.9002909,23.384744 7.6655197,22.69307 7.509686,22.564852 7.4003339,22.119782 7.1987071,22.425239 6.3686594,23.107688 5.5905208,23.863351 4.711581,24.477564 4.325171,24.533251 4.2425948,24.055214 4.2888879,23.770963 4.3162057,22.804436 4.2985683,21.806223 3.8448958,20.933109 3.1200823,19.254838 1.8693147,17.721965 1.7887709,15.826608 1.7845164,14.086551 2.9016356,12.642045 3.7007213,11.187901 4.2776766,10.189217 4.711454,9.0817084 4.672261,7.9133283 4.7064672,7.5708695 4.5976833,7.0808249 4.9393115,6.8730547 5.3506163,6.7599263 5.5505595,7.2475671 5.8371252,7.4422611 6.4801863,8.0704771 7.0895102,8.7244829 7.7490756,9.3379806 7.8980434,9.1472069 8.2056285,8.9566319 7.8702231,8.7843877 6.9671647,7.8799424 6.1185118,6.9184198 5.1047841,6.1370118 5.0029361,6.1279884 4.9005222,6.1299162 4.7984136,6.1321052 z M 27.28144,6.7552879 c -0.405816,0.1966973 -0.645277,0.6136743 -1.017391,0.8618146 -0.636461,0.5874789 -1.286702,1.1597546 -1.911972,1.7584976 0.149462,0.1015997 0.253485,0.5382158 0.428897,0.2970233 0.833819,-0.7293245 1.605042,-1.5514922 2.505381,-2.2041921 0.378902,-0.086098 0.490868,0.3847734 0.435802,0.6640749 -0.02373,1.0260505 0.02537,2.0860518 0.50917,3.0145148 0.719688,1.711272 1.906013,3.31486 1.971286,5.230801 -0.04594,1.668512 -1.143807,3.031953 -1.921781,4.429343 -0.562559,0.945493 -0.978489,2.012538 -0.933857,3.13227 -0.03835,0.359353 0.06018,0.866309 -0.291627,1.089343 -0.401185,0.131401 -0.636368,-0.336609 -0.907053,-0.535394 -0.60185,-0.573017 -1.203889,-1.145835 -1.806047,-1.718532 -0.06844,0.158048 -0.432748,0.321753 -0.185133,0.457983 0.939495,0.86683 1.789125,1.840738 2.81468,2.59087 0.425444,0.07147 0.729824,-0.356726 0.720871,-0.745856 0.134568,-0.903815 0.06545,-1.85438 0.429247,-2.715181 0.574113,-1.765732 1.949962,-3.162832 2.414922,-4.967472 0.294066,-1.279023 -0.01332,-2.62642 -0.625849,-3.766904 -0.810422,-1.701302 -1.824663,-3.449543 -1.73337,-5.4041889 -0.02276,-0.4761004 0.0378,-1.0580769 -0.329307,-1.4164749 -0.177392,-0.072436 -0.380388,-0.046697 -0.566869,-0.05234 z M 8.6305058,24.268201 c -0.7961218,0.900666 -1.7753905,1.634541 -2.4509663,2.633397 -0.1333249,0.434538 0.2932355,0.832875 0.7168526,0.805346 0.9096828,0.118735 1.8646789,0.04958 2.7285901,0.416486 1.6840728,0.543914 3.0477488,1.826895 4.7530558,2.324934 1.471205,0.385934 3.047742,0.06219 4.340114,-0.697081 1.604016,-0.780212 3.291664,-1.644473 5.130932,-1.526273 0.443033,-0.02224 0.973389,0.0127 1.318889,-0.28968 0.164047,-0.3218 0.06903,-0.717779 -0.221494,-0.934167 -0.735531,-0.872112 -1.538821,-1.70282 -2.286814,-2.567761 -0.07583,0.127732 -0.540359,0.243772 -0.286711,0.361478 0.708635,0.81924 1.529767,1.577587 2.175726,2.461655 0.142892,0.362384 -0.319903,0.549422 -0.611104,0.502145 -1.241265,-0.08842 -2.491864,0.124666 -3.602722,0.695152 -1.582648,0.737385 -3.170477,1.798264 -4.996958,1.691263 -1.835475,-0.124392 -3.265498,-1.413815 -4.857698,-2.183594 -0.8559785,-0.432825 -1.8047301,-0.633465 -2.7606127,-0.623183 -0.303922,-4.4e-4 -0.8330865,0.02238 -0.8453871,-0.394193 0.061758,-0.377 0.473777,-0.551878 0.6755924,-0.849106 0.5739248,-0.592305 1.1455015,-1.186421 1.7196702,-1.777748 -0.1831469,-0.09437 -0.3625178,-0.477364 -0.5211829,-0.1703 -0.039256,0.04041 -0.078516,0.08082 -0.1177721,0.12123 z"
       id="path3575" />
    <path
       inkscape:connector-curvature="0"
       sodipodi:nodetypes="cscccccccccccc"
       id="path4356"
       d="M 10.71568,23.505785 C 9.102034,22.597148 8.1185602,20.472647 8.8447422,17.297443 9.3541687,15.069991 10.838602,12.320965 9.700938,10.031946 c 1.380047,0.952305 2.814863,3.216846 4.261911,5.774503 0.09978,-2.765937 -1.337844,-4.578175 -0.304423,-8.3578339 0.709102,4.6759199 3.553538,4.9657369 4.997595,9.2189439 0.614229,-1.999731 1.89194,-2.657923 1.268424,-7.6233572 6.278834,8.5609142 2.700219,11.6020342 1.446004,14.6641992 l 0.405897,-4.254898 c -1.969266,5.683119 -3.547054,6.73158 -4.972226,8.003259 0.796517,-2.667753 1.110603,-5.335506 -0.507371,-8.003259 -0.392813,4.380138 -1.501481,3.468634 -1.725057,6.990187 -2.216755,-1.670352 -2.672035,-3.3838 -3.06959,-6.17973 -0.301592,0.327166 -0.810841,1.694622 -0.786422,3.241825 z"
       style="fill:#c04040;fill-opacity:1;fill-rule:evenodd;stroke:none" />
    <path
       inkscape:connector-curvature="0"
       sodipodi:nodetypes="ccc"
       id="path4358"
       d="M 15.307379,3.0670851 C 13.665318,9.72382 16.66332,9.6653339 18.326232,13.577693 19.492634,7.5449806 16.003223,8.902342 15.307379,3.0670851 z"
       style="fill:#c04040;fill-opacity:1;fill-rule:evenodd;stroke:none" />
  </g>
</svg>
