<?xml version="1.0" encoding="UTF-8" standalone="no"?>
<!-- Created with Inkscape (http://www.inkscape.org/) -->

<svg
   xmlns:dc="http://purl.org/dc/elements/1.1/"
   xmlns:cc="http://creativecommons.org/ns#"
   xmlns:rdf="http://www.w3.org/1999/02/22-rdf-syntax-ns#"
   xmlns:svg="http://www.w3.org/2000/svg"
   xmlns="http://www.w3.org/2000/svg"
   xmlns:sodipodi="http://sodipodi.sourceforge.net/DTD/sodipodi-0.dtd"
   xmlns:inkscape="http://www.inkscape.org/namespaces/inkscape"
   width="32px"
   height="32px"
   id="svg7774"
   version="1.1"
   inkscape:version="0.48.2 r9819"
   sodipodi:docname="golf.svg">
  <defs
     id="defs7776" />
  <sodipodi:namedview
     id="base"
     pagecolor="#ffff80"
     bordercolor="#666666"
     borderopacity="1.0"
     inkscape:pageopacity="0"
     inkscape:pageshadow="2"
     inkscape:zoom="9.2307692"
     inkscape:cx="19.625"
     inkscape:cy="13"
     inkscape:current-layer="layer1"
     showgrid="true"
     inkscape:grid-bbox="true"
     inkscape:document-units="px"
     inkscape:window-width="831"
     inkscape:window-height="669"
     inkscape:window-x="2546"
     inkscape:window-y="141"
     inkscape:window-maximized="0"
     inkscape:snap-global="true" />
  <metadata
     id="metadata7779">
    <rdf:RDF>
      <cc:Work
         rdf:about="">
        <dc:format>image/svg+xml</dc:format>
        <dc:type
           rdf:resource="http://purl.org/dc/dcmitype/StillImage" />
        <dc:title />
      </cc:Work>
    </rdf:RDF>
  </metadata>
  <g
     id="layer1"
     inkscape:label="Layer 1"
     inkscape:groupmode="layer">
    <path
       style="font-size:40px;font-style:normal;font-weight:normal;fill:#537347;fill-opacity:1;stroke:#ffffff;stroke-width:0.74567378;stroke-opacity:1;font-family:Bitstream Vera Sans"
       d="m 21.47731,7.9048135 c -1.8e-5,-0.636175 -0.24768,-1.1722674 -0.742986,-1.6082802 -0.495346,-0.435971 -1.086017,-0.6539674 -1.772013,-0.6539871 -0.685256,1.97e-5 -1.269337,0.2180161 -1.752244,0.6539871 -0.482941,0.4360128 -0.724401,0.9721052 -0.724387,1.6082802 -1.4e-5,0.6354963 0.241446,1.1712308 0.724387,1.6072043 0.482907,0.4360072 1.066988,0.6540042 1.752244,0.6539892 0.685996,1.5e-5 1.276667,-0.217982 1.772013,-0.6539892 0.495306,-0.4359735 0.742968,-0.971708 0.742986,-1.6072043 z M 14.924125,31.436514 c 0.533294,-4e-6 0.965057,-0.235433 1.295287,-0.706285 l 7.162467,-10.000136 0.381374,1.378066 -1.06623,7.490937 c -0.05116,0.376679 0.03758,0.712388 0.266265,1.00713 0.228651,0.294728 0.546078,0.477321 0.952284,0.547772 0.406936,0.07045 0.781726,-0.0062 1.124369,-0.229675 0.342593,-0.223572 0.539484,-0.524057 0.590669,-0.901458 l 1.104598,-7.666698 c 0.02557,-0.259507 2.66e-4,-0.530518 -0.07558,-0.81304 l -2.439424,-9.010257 6.363662,-1.059965 c 0.33019,-0.04671 0.596844,-0.205581 0.799966,-0.476611 0.203062,-0.270994 0.279027,-0.559621 0.227897,-0.865871 C 31.535745,9.8242029 31.345438,9.5650515 31.040831,9.3529698 L 16.410102,0.41387697 14.953807,2.2007188 c -0.26891,0.5291279 -0.05458,0.9392999 0.290376,1.245513 0.07599,0.043079 0.14487,0.1288844 0.234858,0.1629469 0.273667,0.1035886 0.350342,0.14072 0.530052,0.1286781 0.30531,0.028479 0.592383,-0.2305702 0.771562,-0.4358843 L 17.202446,2.840947 28.466183,9.6464247 19.420431,10.907875 c -0.355816,0.07047 -0.641656,0.241197 -0.857522,0.512194 -0.215898,0.271027 -0.273064,0.55965 -0.171502,0.865871 l 2.09525,7.596611 -6.857823,9.505197 c -0.127136,0.211344 -0.1907,0.434912 -0.19069,0.670702 -10e-6,0.376682 0.146107,0.700529 0.438352,0.971545 0.292224,0.271007 0.641433,0.406515 1.047629,0.406519 z"
       id="flowRoot2383"
       inkscape:connector-curvature="0"
       sodipodi:nodetypes="cccccccsccccccccccccccccccccscscccccccccc" />
    <path
       style="fill:#537347;fill-opacity:1;fill-rule:evenodd;stroke:#ffffff;stroke-width:1.52950180000000000;stroke-linecap:round;stroke-linejoin:miter;stroke-miterlimit:4;stroke-opacity:1;stroke-dasharray:none"
       d="M 1.96875 2 L 1.96875 30.03125 L 4.96875 30.03125 L 4.96875 9.53125 L 14.53125 6.34375 L 4.96875 3.15625 L 4.96875 2 L 1.96875 2 z "
       id="path3759" />
  </g>
</svg>
