<?xml version="1.0" encoding="UTF-8" standalone="no"?>
<!-- Created with Inkscape (http://www.inkscape.org/) -->

<svg
   xmlns:dc="http://purl.org/dc/elements/1.1/"
   xmlns:cc="http://creativecommons.org/ns#"
   xmlns:rdf="http://www.w3.org/1999/02/22-rdf-syntax-ns#"
   xmlns:svg="http://www.w3.org/2000/svg"
   xmlns="http://www.w3.org/2000/svg"
   xmlns:sodipodi="http://sodipodi.sourceforge.net/DTD/sodipodi-0.dtd"
   xmlns:inkscape="http://www.inkscape.org/namespaces/inkscape"
   width="32px"
   height="32px"
   id="svg3011"
   version="1.1"
   inkscape:version="0.48.2 r9819"
   sodipodi:docname="New document 2">
  <defs
     id="defs3013" />
  <sodipodi:namedview
     id="base"
     pagecolor="#ffffff"
     bordercolor="#666666"
     borderopacity="1.0"
     inkscape:pageopacity="0.0"
     inkscape:pageshadow="2"
     inkscape:zoom="8"
     inkscape:cx="12.772648"
     inkscape:cy="16.102945"
     inkscape:current-layer="layer1"
     showgrid="true"
     inkscape:grid-bbox="true"
     inkscape:document-units="px"
     inkscape:window-width="885"
     inkscape:window-height="724"
     inkscape:window-x="2120"
     inkscape:window-y="200"
     inkscape:window-maximized="0" />
  <metadata
     id="metadata3016">
    <rdf:RDF>
      <cc:Work
         rdf:about="">
        <dc:format>image/svg+xml</dc:format>
        <dc:type
           rdf:resource="http://purl.org/dc/dcmitype/StillImage" />
        <dc:title></dc:title>
      </cc:Work>
    </rdf:RDF>
  </metadata>
  <g
     id="layer1"
     inkscape:label="Layer 1"
     inkscape:groupmode="layer">
    <g
       id="g3037"
       transform="matrix(1.0321585,0,0,1.5083578,-0.1702878,1.2293026)">
      <path
         sodipodi:nodetypes="ccccc"
         id="path2459"
         d="m 7.7711184,1.4240525 1.4082039,0 0,15.4222535 -1.393498,0 -0.014706,-15.4222535 z"
         style="fill:#000000;fill-opacity:1;fill-rule:evenodd;stroke:#000000;stroke-width:0.57774746;stroke-linecap:round;stroke-linejoin:round;stroke-miterlimit:4;stroke-opacity:1;stroke-dasharray:none"
         inkscape:connector-curvature="0" />
      <path
         sodipodi:nodetypes="cccccc"
         id="path3239"
         d="m 15.331376,3.3853965 -1.047701,0.863305 -6.160482,-0.251448 0.033526,-1.533835 6.101811,-0.100579 1.072846,1.022557 z"
         style="fill:#000000;fill-opacity:1;fill-rule:evenodd;stroke:#000000;stroke-width:0.58093017;stroke-linecap:round;stroke-linejoin:round;stroke-miterlimit:4;stroke-opacity:1;stroke-dasharray:none"
         inkscape:connector-curvature="0" />
      <path
         sodipodi:nodetypes="cccccc"
         id="path3263"
         d="M 1.4849597,4.7222625 2.5326608,5.5855675 8.6931424,5.3341195 8.6596164,3.8002855 2.557806,3.6997055 1.4849602,4.7222625 z"
         style="fill:#000000;fill-opacity:1;fill-rule:evenodd;stroke:#000000;stroke-width:0.58093017;stroke-linecap:round;stroke-linejoin:round;stroke-miterlimit:4;stroke-opacity:1;stroke-dasharray:none"
         inkscape:connector-curvature="0" />
    </g>
    <path
       inkscape:connector-curvature="0"
       style="font-size:40px;font-style:normal;font-variant:normal;font-weight:normal;font-stretch:normal;text-align:start;line-height:125%;writing-mode:lr-tb;text-anchor:start;fill:#000000;fill-opacity:1;stroke:none;font-family:NPSPICT3;-inkscape-font-specification:NPSPICT3"
       d="m 21.490539,22.533471 -0.849106,6.966925 c -0.102216,0.760623 -0.559144,1.203996 -1.370797,1.330119 -0.55837,0.0766 -1.04686,-0.08164 -1.465474,-0.47471 -0.418576,-0.393076 -0.589927,-0.868559 -0.514048,-1.426452 l 1.00245,-7.916345 c 0.101478,-0.583416 0.455402,-0.936477 0.793256,-1.407168 l 2.598781,-3.620562 -2.512739,-4.373365 -1.255788,1.597066 c -0.10144,0.152449 -0.254006,0.26658 -0.457706,0.342396 l -2.822544,1.369579 c -0.126215,0.05031 -0.24006,0.07545 -0.341538,0.07543 -0.355453,1.2e-5 -0.660202,-0.139459 -0.914251,-0.418418 C 13.127037,14.299034 13.000025,13.981981 13,13.626806 c 2.5e-5,-0.633707 0.304775,-1.051929 0.914254,-1.254673 l 2.175478,-1.216366 3.121466,-3.7663397 c 0.43139,-0.5068013 1.040503,-0.8236602 1.82734,-0.9505802 1.370036,-0.2027075 2.397743,0.2789664 3.08313,1.4450216 l 3.464163,5.9715913 c 0.228475,0.380711 0.329929,0.849616 0.304366,1.406721 l -0.113852,7.568661 2.626585,5.629201 c 0.101465,0.228262 0.164579,0.418223 0.189358,0.569885 0.07668,0.482057 -0.02459,0.906857 -0.303784,1.274405 -0.279188,0.367537 -0.66003,0.58961 -1.142522,0.666215 -0.811631,0.126122 -1.382407,-0.152821 -1.712335,-0.836835 l -2.89377,-6.16194 c -0.10144,-0.228258 -0.15217,-0.468902 -0.15218,-0.72193 l 0.03833,-4.678619 -2.935494,3.962243 z M 19.477227,6.0964602 C 18.791843,6.0964815 18.19551,5.8492614 17.68822,5.3547975 17.180966,4.8603812 16.927329,4.2583848 16.927312,3.5488125 16.927329,2.8640474 17.180966,2.2680497 17.68822,1.7608161 18.19551,1.253634 18.791843,1.000031 19.477227,1.000004 c 0.710968,2.7e-5 1.313886,0.25363 1.808751,0.7608121 0.494896,0.5072336 0.742336,1.1032313 0.742323,1.7879964 1.3e-5,0.7095723 -0.247427,1.3115687 -0.742323,1.805985 -0.494865,0.4944639 -1.097783,0.741684 -1.808751,0.7416627 l 0,0 z M 28.385075,13.056932 24.578213,6.5154566 C 24.324199,6.0844878 24.412877,5.7548614 24.844242,5.5265763 l 1.218613,-0.7230914 c 0.431382,-0.2530013 0.761303,-0.1640175 0.989761,0.2669514 l 3.806863,6.5414767 c 0.253252,0.431007 0.16419,0.760634 -0.267187,0.988884 l -1.217455,0.721927 c -0.431368,0.253811 -0.761289,0.165215 -0.989762,-0.265792 l 0,0 z"
       id="flowRoot3192"
       sodipodi:nodetypes="cccsccscccccsssccccccccccscccccccsscsssscccccccccccc" />
  </g>
</svg>
