<?xml version="1.0" encoding="UTF-8" standalone="no"?>
<!-- Created with Inkscape (http://www.inkscape.org/) -->

<svg
   xmlns:dc="http://purl.org/dc/elements/1.1/"
   xmlns:cc="http://creativecommons.org/ns#"
   xmlns:rdf="http://www.w3.org/1999/02/22-rdf-syntax-ns#"
   xmlns:svg="http://www.w3.org/2000/svg"
   xmlns="http://www.w3.org/2000/svg"
   xmlns:sodipodi="http://sodipodi.sourceforge.net/DTD/sodipodi-0.dtd"
   xmlns:inkscape="http://www.inkscape.org/namespaces/inkscape"
   width="32px"
   height="32px"
   id="svg2985"
   version="1.1"
   inkscape:version="0.48.2 r9819"
   sodipodi:docname="New document 2">
  <defs
     id="defs2987" />
  <sodipodi:namedview
     id="base"
     pagecolor="#ffffff"
     bordercolor="#666666"
     borderopacity="1.0"
     inkscape:pageopacity="0.0"
     inkscape:pageshadow="2"
     inkscape:zoom="1"
     inkscape:cx="18.782636"
     inkscape:cy="16"
     inkscape:current-layer="layer1"
     showgrid="true"
     inkscape:grid-bbox="true"
     inkscape:document-units="px"
     inkscape:window-width="708"
     inkscape:window-height="749"
     inkscape:window-x="1945"
     inkscape:window-y="25"
     inkscape:window-maximized="0">
    <inkscape:grid
       type="xygrid"
       id="grid2995" />
  </sodipodi:namedview>
  <metadata
     id="metadata2990">
    <rdf:RDF>
      <cc:Work
         rdf:about="">
        <dc:format>image/svg+xml</dc:format>
        <dc:type
           rdf:resource="http://purl.org/dc/dcmitype/StillImage" />
        <dc:title></dc:title>
      </cc:Work>
    </rdf:RDF>
  </metadata>
  <g
     id="layer1"
     inkscape:label="Layer 1"
     inkscape:groupmode="layer">
    <path
       style="fill:#666666;fill-opacity:1;fill-rule:evenodd;stroke:none"
       d="M 0 5 L 0 22 L 0 28 L 0 32 L 32 32 L 32 22 L 11 22 L 11 5 L 7 5 L 7 22 L 4 22 L 4 5 L 0 5 z "
       id="rect2997" />
    <rect
       style="fill:#ffffff;fill-opacity:1;fill-rule:evenodd;stroke:none"
       id="rect3771"
       width="3"
       height="2"
       x="12"
       y="24" />
    <rect
       style="fill:#ffffff;fill-opacity:1;fill-rule:evenodd;stroke:none"
       id="rect3773"
       width="3"
       height="2"
       x="17"
       y="24" />
    <rect
       style="fill:#ffffff;fill-opacity:1;fill-rule:evenodd;stroke:none"
       id="rect3775"
       width="3"
       height="2"
       x="22"
       y="24" />
    <rect
       style="fill:#ffffff;fill-opacity:1;fill-rule:evenodd;stroke:none"
       id="rect3777"
       width="3"
       height="2"
       x="27"
       y="24" />
    <rect
       style="fill:#ffffff;fill-opacity:1;fill-rule:evenodd;stroke:none"
       id="rect3779"
       width="3"
       height="2"
       x="12"
       y="27" />
    <rect
       style="fill:#ffffff;fill-opacity:1;fill-rule:evenodd;stroke:none"
       id="rect3781"
       width="3"
       height="2"
       x="17"
       y="27" />
    <rect
       style="fill:#ffffff;fill-opacity:1;fill-rule:evenodd;stroke:none"
       id="rect3783"
       width="3"
       height="2"
       x="22"
       y="27" />
    <rect
       style="fill:#ffffff;fill-opacity:1;fill-rule:evenodd;stroke:none"
       id="rect3785"
       width="3"
       height="2"
       x="27"
       y="27" />
    <path
       style="fill:none;stroke:#000000;stroke-width:1px;stroke-linecap:butt;stroke-linejoin:miter;stroke-opacity:1"
       d="M 9,5 C 9,4.7333333 9,4.4666667 9,4.2 9,4.1666667 8.9764298,4.1235702 9,4.1 9.0062074,3.8184262 9.2254644,4.0745356 9.3,4 9.32357,3.97643 9.27643,3.92357 9.3,3.9 9.5666667,3.9 9.266667,3.933333 9.4,3.8 9.410301,3.789699 9.8750706,3.80831 9.9,3.8 9.944721,3.785093 9.957836,3.721082 10,3.7 c 0.06163,-0.030814 0.536752,0.031624 0.6,0 0.06667,-0.033333 0.0473,-0.1472954 0.1,-0.2 0.02357,-0.02357 0.06667,0 0.1,0 0.2,0 0.4,0 0.6,0 0.03333,0 0.06667,0 0.1,0 0.03333,0 0.07643,0.02357 0.1,0 0.02357,-0.02357 -0.02357,-0.07643 0,-0.1 0.03066,-0.030657 0.469096,0.030905 0.5,0 0.02357,-0.02357 -0.02357,-0.07643 0,-0.1 0.04714,-0.04714 0.140372,0.029814 0.2,0 0.04216,-0.021082 0.05528,-0.085093 0.1,-0.1 0.15,-0.05 0.175,0.025 0.3,0 0.134768,-0.026954 0.265232,-0.073046 0.4,-0.1 0.122467,-0.024493 0.487699,0 0.6,0 0.4,0 0.8,0 1.2,0 0.266667,0 0.533333,0 0.8,0 0.02376,0 0.377587,-0.011207 0.4,0 0.416176,0.208088 -0.106904,-0.0069 0.1,0.2 0.03592,0.035922 0.335305,-0.032348 0.4,0 0.266667,0.1333333 -0.3,0.1 0.1,0.1 0.03333,0 0.06667,0 0.1,0 0.03333,0 0.07643,-0.02357 0.1,0 0.06126,0.061257 0.08513,0.2617106 0.2,0.3 0.06325,0.021082 0.136754,-0.021082 0.2,0 0.04472,0.014907 0.05784,0.078918 0.1,0.1 0.02981,0.014907 0.07019,-0.014907 0.1,0 0.04216,0.021082 0.05784,0.078918 0.1,0.1 0.0621,0.031052 0.535922,-0.032039 0.6,0 0.04216,0.021082 0.05784,0.078918 0.1,0.1 0.05302,0.026512 0.43197,-0.022677 0.5,0 0.04472,0.014907 0.05784,0.078918 0.1,0.1 0.02629,0.013147 0.347708,0 0.4,0 0.266667,0 0.533333,0 0.8,0 0.5,0 1,0 1.5,0 0.02425,0 0.296784,0.00322 0.3,0 0.02357,-0.02357 -0.02357,-0.07643 0,-0.1 0.03066,-0.030657 0.469096,0.030905 0.5,0 0.02357,-0.02357 -0.02357,-0.07643 0,-0.1 0.02357,-0.02357 0.06667,0 0.1,0 0.03333,0 0.06667,0 0.1,0 0.233333,0 0.466667,0 0.7,0 0.1,0 0.201361,-0.01644 0.3,0 0.135567,0.022595 0.266667,0.066667 0.4,0.1"
       id="path3789"
       inkscape:connector-curvature="0" />
    <path
       style="fill:none;stroke:#000000;stroke-width:1px;stroke-linecap:butt;stroke-linejoin:miter;stroke-opacity:1"
       d="M 2,5 C 2.033333,4.8666667 2.077405,4.7355669 2.1,4.6 c 0.019707,-0.1182435 0,-0.2761368 0,-0.4 0,-0.033333 -0.033333,-0.1 0,-0.1 0.033333,0 0,0.1333333 0,0.1 0,-0.066667 0,-0.1333333 0,-0.2 0,-0.033333 -0.033333,-0.1 0,-0.1 0.033333,0 0,0.1333333 0,0.1 0,-0.1 0,-0.2 0,-0.3 0,-0.033333 -0.033333,-0.1 0,-0.1 0.033333,0 0,0.1333333 0,0.1 0,-0.1 0,-0.2 0,-0.3 0,-0.033333 -0.02357,-0.07643 0,-0.1 0.02357,-0.02357 0.07643,0.02357 0.1,0 C 2.22357,3.27643 2.189459,3.231623 2.2,3.2 2.22357,3.129289 2.27643,3.0707107 2.3,3 2.310541,2.968377 2.3,2.933333 2.3,2.9 2.333333,2.866667 2.378918,2.842164 2.4,2.8 2.419825,2.760351 2.379556,2.5204436 2.4,2.5 2.447141,2.45286 2.5701858,2.559629 2.6,2.5 2.629814,2.440371 2.570186,2.3596285 2.6,2.3 c 0.014907,-0.029814 0.066667,0 0.1,0 0.066667,0 0.1367544,0.021082 0.2,0 C 2.944721,2.285093 2.957836,2.221082 3,2.2 3.08,2.16 3.22,2.24 3.3,2.2 3.342164,2.178918 3.355279,2.114907 3.4,2.1 3.463246,2.078918 3.5403715,2.129814 3.6,2.1 3.629814,2.085093 3.57643,2.02357 3.6,2 3.65,1.95 3.85,2.05 3.9,2 3.92357,1.97643 3.87643,1.92357 3.9,1.9 3.92357,1.87643 3.97643,1.92357 4,1.9 4.02357,1.87643 3.97643,1.82357 4,1.8 4.047141,1.752859 4.1701858,1.859628 4.2,1.8 4.229814,1.740371 4.14453,1.63698 4.2,1.6 c 0.9333333,0 0.1,0.1 0.3,-0.1 0.00322,-0.00322 0.2757473,0 0.3,0 0.1,0 0.2,0 0.3,0 0.033333,0 0.1,-0.033333 0.1,0 0,0.033333 -0.1235702,0.02357 -0.1,0 0.052705,-0.052705 0.1292893,-0.07643 0.2,-0.1 0.063246,-0.021082 0.1333333,0 0.2,0 0.1333333,0 0.2666667,0 0.4,0 0.033333,0 0.07643,0.02357 0.1,0 C 6.02357,1.37643 5.97643,1.32357 6,1.3 6.030905,1.269095 6.4693431,1.330657 6.5,1.3 6.52357,1.27643 6.47643,1.22357 6.5,1.2 6.55,1.15 6.75,1.25 6.8,1.2 6.9333333,1.0666667 6.587868,1.104044 6.9,1 6.994868,0.9683772 7.1,1 7.2,1 7.4333333,1 7.6666667,1 7.9,1 8.0666667,1 8.2333333,1 8.4,1 8.433333,1 8.466667,1 8.5,1 8.533333,1 8.570186,0.9850929 8.6,1 9.016176,1.208088 8.4930964,0.993096 8.7,1.2 c 0.02357,0.02357 0.066667,0 0.1,0 0.1666667,0 0.3333333,0 0.5,0 0.033333,0 0.07643,0.02357 0.1,0 C 9.42357,1.17643 9.37643,1.12357 9.4,1.1 9.42357,1.07643 9.468377,1.110541 9.5,1.1 9.570711,1.07643 9.6292893,1.02357 9.7,1 9.731623,0.9894591 9.77643,1.02357 9.8,1 9.852705,0.9472954 9.847295,0.85270463 9.9,0.8 c 0.02357,-0.0235702 0.066667,0 0.1,0 0.03333,0 0.1,-0.0333333 0.1,0 0,0.0333333 -0.1333333,0 -0.1,0 0.633333,0 1.266667,0 1.9,0 0.1,0 0.2,0 0.3,0 0.03333,0 0.06667,0 0.1,0 0.03333,0 0.07643,-0.0235702 0.1,0 0.02357,0.0235702 -0.02357,0.0764298 0,0.1 0.02357,0.0235702 0.06667,0 0.1,0 0.133333,0 0.266667,0 0.4,0 1,0 2,0 3,0 0.02315,0 0.564282,-0.017859 0.6,0 0.04216,0.0210818 0.05427,0.0885668 0.1,0.1 0.09701,0.024254 0.202986,-0.0242536 0.3,0 0.04573,0.011433 0.05784,0.078918 0.1,0.1 0.0445,0.022249 0.354261,-0.015246 0.4,0 0.04472,0.014907 0.05784,0.078918 0.1,0.1 0.02981,0.014907 0.06667,0 0.1,0 0.04307,0 0.57294,-0.01353 0.6,0 0.08433,0.042164 0.115673,0.1578363 0.2,0.2 0.06194,0.030971 0.370412,-0.029588 0.4,0 0.02357,0.02357 0,0.066667 0,0.1 0,0.066667 -0.02981,0.1403715 0,0.2 0.01491,0.029814 0.07643,-0.02357 0.1,0 0.02357,0.02357 -0.02357,0.07643 0,0.1 C 19.066667,1.9666667 19,1.4333333 19,2"
       id="path3794"
       inkscape:connector-curvature="0" />
  </g>
</svg>
