<?xml version="1.0" encoding="UTF-8" standalone="no"?>
<!-- Created with Sodipodi ("http://www.sodipodi.com/") -->

<svg
   xmlns:dc="http://purl.org/dc/elements/1.1/"
   xmlns:cc="http://creativecommons.org/ns#"
   xmlns:rdf="http://www.w3.org/1999/02/22-rdf-syntax-ns#"
   xmlns:svg="http://www.w3.org/2000/svg"
   xmlns="http://www.w3.org/2000/svg"
   xmlns:sodipodi="http://sodipodi.sourceforge.net/DTD/sodipodi-0.dtd"
   xmlns:inkscape="http://www.inkscape.org/namespaces/inkscape"
   id="svg831"
   sodipodi:version="0.33pre"
   width="32"
   height="32"
   sodipodi:docname="information.svg"
   version="1.1"
   inkscape:version="0.48.2 r9819">
  <metadata
     id="metadata10">
    <rdf:RDF>
      <cc:Work
         rdf:about="">
        <dc:format>image/svg+xml</dc:format>
        <dc:type
           rdf:resource="http://purl.org/dc/dcmitype/StillImage" />
      </cc:Work>
    </rdf:RDF>
  </metadata>
  <defs
     id="defs833" />
  <sodipodi:namedview
     id="base"
     showgrid="false"
     inkscape:zoom="1.909192"
     inkscape:cx="56.424999"
     inkscape:cy="61.806252"
     inkscape:window-width="992"
     inkscape:window-height="987"
     inkscape:window-x="446"
     inkscape:window-y="11"
     inkscape:window-maximized="0"
     inkscape:current-layer="svg831" />
  <g
     id="g627"
     transform="matrix(0.31436037,0,0,0.320567,-44.061378,-120.9698)">
    <g
       id="g622"
       transform="matrix(1.317701,0,0,1.276611,11.9791,-62.95154)">
      <path
         style="fill:#000000;fill-opacity:1;fill-rule:evenodd;stroke:none"
         d="m 119.675,382.181 0,2.316 5.019,0 0,34.358 c 0,0 -0.773,1.931 -5.019,1.931 l 0.001,2.316 32.813,0 0,-2.702 c -2.573,0 -4.375,0 -5.018,-1.545 l -0.386,-36.674 -27.41,0 z"
         id="path623"
         sodipodi:nodetypes="ccccccccccc"
         inkscape:connector-curvature="0" />
      <path
         sodipodi:type="arc"
         style="fill:#000000;fill-opacity:1;fill-rule:evenodd;stroke:none"
         id="path624"
         d="m 147.08477,370.40613 c 0,5.43682 -5.01236,9.84424 -11.19543,9.84424 -6.18306,0 -11.19543,-4.40742 -11.19543,-9.84424 0,-5.43682 5.01237,-9.84424 11.19543,-9.84424 6.18307,0 11.19543,4.40742 11.19543,9.84424 z"
         sodipodi:cx="135.88934"
         sodipodi:cy="370.40613"
         sodipodi:rx="11.195431"
         sodipodi:ry="9.8442383"
         transform="matrix(1.086206,0,0,1.117647,-12.29361,-44.34909)" />
    </g>
    <path
       style="fill:#000000;fill-opacity:1;fill-rule:evenodd;stroke:none"
       d="m 140.162,390.95 0,8.75 50,-13.588 51.794,13.969 0,-8.587 -51.794,-14.132 -50,13.588 z"
       id="path626"
       sodipodi:nodetypes="ccccccc"
       inkscape:connector-curvature="0" />
  </g>
</svg>
