<?xml version="1.0" encoding="UTF-8" standalone="no"?>
<!-- Created with Inkscape (http://www.inkscape.org/) -->

<svg
   xmlns:dc="http://purl.org/dc/elements/1.1/"
   xmlns:cc="http://creativecommons.org/ns#"
   xmlns:rdf="http://www.w3.org/1999/02/22-rdf-syntax-ns#"
   xmlns:svg="http://www.w3.org/2000/svg"
   xmlns="http://www.w3.org/2000/svg"
   xmlns:sodipodi="http://sodipodi.sourceforge.net/DTD/sodipodi-0.dtd"
   xmlns:inkscape="http://www.inkscape.org/namespaces/inkscape"
   width="32px"
   height="32px"
   id="svg4481"
   version="1.1"
   inkscape:version="0.48.2 r9819"
   sodipodi:docname="New document 10">
  <defs
     id="defs4483" />
  <sodipodi:namedview
     id="base"
     pagecolor="#ffffff"
     bordercolor="#666666"
     borderopacity="1.0"
     inkscape:pageopacity="0.0"
     inkscape:pageshadow="2"
     inkscape:zoom="10"
     inkscape:cx="16"
     inkscape:cy="16"
     inkscape:current-layer="layer1"
     showgrid="true"
     inkscape:grid-bbox="true"
     inkscape:document-units="px"
     inkscape:window-width="729"
     inkscape:window-height="632"
     inkscape:window-x="2095"
     inkscape:window-y="175"
     inkscape:window-maximized="0">
    <inkscape:grid
       type="xygrid"
       id="grid4489" />
  </sodipodi:namedview>
  <metadata
     id="metadata4486">
    <rdf:RDF>
      <cc:Work
         rdf:about="">
        <dc:format>image/svg+xml</dc:format>
        <dc:type
           rdf:resource="http://purl.org/dc/dcmitype/StillImage" />
        <dc:title></dc:title>
      </cc:Work>
    </rdf:RDF>
  </metadata>
  <g
     id="layer1"
     inkscape:label="Layer 1"
     inkscape:groupmode="layer">
    <path
       style="fill:#808080;fill-opacity:1;fill-rule:evenodd;stroke:#000000;stroke-width:0.5;stroke-linecap:round;stroke-linejoin:miter;stroke-miterlimit:4;stroke-opacity:1;stroke-dasharray:none"
       d="M 15.21875,8.9515213 C 16.757064,8.9515213 18,10.194457 18,11.732771 l 0,1.21875 7.21875,0 c 1.538314,0 2.78125,1.242936 2.78125,2.78125 l 0,2.4375 c 0,1.538314 -1.242936,2.78125 -2.78125,2.78125 l -20.4375,0 C 3.242936,20.951521 2,19.708585 2,18.170271 l 0,-2.4375 c 0,-1.538314 1.242936,-2.78125 2.78125,-2.78125 l 1.21875,0 0,-1.21875 C 6,10.194457 7.242936,8.9515213 8.78125,8.9515213 l 6.4375,0 z"
       id="rect4547"
       inkscape:connector-curvature="0" />
    <rect
       style="fill:#808080;fill-opacity:1;fill-rule:evenodd;stroke:#000000;stroke-width:0.4541719;stroke-linecap:round;stroke-linejoin:miter;stroke-miterlimit:4;stroke-opacity:1;stroke-dasharray:none"
       id="rect4543"
       width="26"
       height="5.5534801"
       x="2"
       y="22.219435"
       ry="2.7767401" />
    <path
       sodipodi:type="arc"
       style="fill:#ffffff;fill-opacity:1;fill-rule:evenodd;stroke:#000000;stroke-width:0.5;stroke-linecap:round;stroke-linejoin:miter;stroke-miterlimit:4;stroke-opacity:1;stroke-dasharray:none"
       id="path4491"
       sodipodi:cx="7"
       sodipodi:cy="29"
       sodipodi:rx="2"
       sodipodi:ry="2"
       d="m 9,29 a 2,2 0 1 1 -4,0 2,2 0 1 1 4,0 z"
       transform="translate(-2,-4.0484787)" />
    <path
       transform="translate(3,-4.0484787)"
       sodipodi:type="arc"
       style="fill:#ffffff;fill-opacity:1;fill-rule:evenodd;stroke:#000000;stroke-width:0.5;stroke-linecap:round;stroke-linejoin:miter;stroke-miterlimit:4;stroke-opacity:1;stroke-dasharray:none"
       id="path4491-4"
       sodipodi:cx="7"
       sodipodi:cy="29"
       sodipodi:rx="2"
       sodipodi:ry="2"
       d="m 9,29 a 2,2 0 1 1 -4,0 2,2 0 1 1 4,0 z" />
    <path
       transform="translate(8,-4.0484787)"
       sodipodi:type="arc"
       style="fill:#ffffff;fill-opacity:1;fill-rule:evenodd;stroke:#000000;stroke-width:0.5;stroke-linecap:round;stroke-linejoin:miter;stroke-miterlimit:4;stroke-opacity:1;stroke-dasharray:none"
       id="path4491-2"
       sodipodi:cx="7"
       sodipodi:cy="29"
       sodipodi:rx="2"
       sodipodi:ry="2"
       d="m 9,29 a 2,2 0 1 1 -4,0 2,2 0 1 1 4,0 z" />
    <path
       transform="translate(13,-4.0484787)"
       sodipodi:type="arc"
       style="fill:#ffffff;fill-opacity:1;fill-rule:evenodd;stroke:#000000;stroke-width:0.5;stroke-linecap:round;stroke-linejoin:miter;stroke-miterlimit:4;stroke-opacity:1;stroke-dasharray:none"
       id="path4491-3"
       sodipodi:cx="7"
       sodipodi:cy="29"
       sodipodi:rx="2"
       sodipodi:ry="2"
       d="m 9,29 a 2,2 0 1 1 -4,0 2,2 0 1 1 4,0 z" />
    <path
       transform="translate(18,-4.0484787)"
       sodipodi:type="arc"
       style="fill:#ffffff;fill-opacity:1;fill-rule:evenodd;stroke:#000000;stroke-width:0.5;stroke-linecap:round;stroke-linejoin:miter;stroke-miterlimit:4;stroke-opacity:1;stroke-dasharray:none"
       id="path4491-22"
       sodipodi:cx="7"
       sodipodi:cy="29"
       sodipodi:rx="2"
       sodipodi:ry="2"
       d="m 9,29 a 2,2 0 1 1 -4,0 2,2 0 1 1 4,0 z" />
    <path
       style="fill:none;stroke:#000000;stroke-width:2;stroke-linecap:butt;stroke-linejoin:miter;stroke-opacity:1"
       d="m 17,9.9515213 13,-5 0,0"
       id="path4550"
       inkscape:connector-curvature="0"
       sodipodi:nodetypes="ccc" />
  </g>
</svg>
