<?xml version="1.0" encoding="UTF-8" standalone="no"?>
<!-- Created with Inkscape (http://www.inkscape.org/) -->

<svg
   xmlns:dc="http://purl.org/dc/elements/1.1/"
   xmlns:cc="http://creativecommons.org/ns#"
   xmlns:rdf="http://www.w3.org/1999/02/22-rdf-syntax-ns#"
   xmlns:svg="http://www.w3.org/2000/svg"
   xmlns="http://www.w3.org/2000/svg"
   xmlns:sodipodi="http://sodipodi.sourceforge.net/DTD/sodipodi-0.dtd"
   xmlns:inkscape="http://www.inkscape.org/namespaces/inkscape"
   width="32px"
   height="32px"
   id="svg19077"
   version="1.1"
   inkscape:version="0.48.2 r9819"
   sodipodi:docname="New document 72">
  <defs
     id="defs19079" />
  <sodipodi:namedview
     id="base"
     pagecolor="#ffffff"
     bordercolor="#666666"
     borderopacity="1.0"
     inkscape:pageopacity="0.0"
     inkscape:pageshadow="2"
     inkscape:zoom="8.6875"
     inkscape:cx="17.333333"
     inkscape:cy="13.333333"
     inkscape:current-layer="layer1"
     showgrid="true"
     inkscape:grid-bbox="true"
     inkscape:document-units="px"
     inkscape:window-width="972"
     inkscape:window-height="745"
     inkscape:window-x="2070"
     inkscape:window-y="150"
     inkscape:window-maximized="0" />
  <metadata
     id="metadata19082">
    <rdf:RDF>
      <cc:Work
         rdf:about="">
        <dc:format>image/svg+xml</dc:format>
        <dc:type
           rdf:resource="http://purl.org/dc/dcmitype/StillImage" />
        <dc:title></dc:title>
      </cc:Work>
    </rdf:RDF>
  </metadata>
  <g
     id="layer1"
     inkscape:label="Layer 1"
     inkscape:groupmode="layer">
    <g
       id="g19610"
       style="stroke:#ffffff;stroke-width:3;stroke-opacity:1"
       transform="matrix(1.0510011,0,0,1.0874525,-0.9766425,-1.792642)">
      <path
         inkscape:connector-curvature="0"
         style="fill:#000000;fill-opacity:1;stroke:#ffffff;stroke-width:3;stroke-linecap:round;stroke-linejoin:round;stroke-miterlimit:4;stroke-opacity:1;stroke-dasharray:none"
         d="m 21.0998,4.1275553 -2.84234,2.49114 3.84258,3.7960997 c -1.43238,1.55433 -2.87467,3.10176 -4.31946,4.64656 0.32968,0.30748 0.65885,0.61492 0.98819,0.92277 1.40854,-1.58445 2.82069,-3.16663 4.24027,-4.73953 0.2961,-0.21091 1.97825,1.40394 2.18125,1.70782 l 4.66033,2.4567 c -0.2565,-0.18333 -2.35642,-5.28906 -2.68739,-5.5779397 -0.51127,-0.44819 -1.10874,-0.98088 -1.73192,-1.54426 l 0.98647,-0.96065 -0.75922,-0.64215 -0.9572,0.93999 c -1.34485,-1.23232 -2.7185,-2.54147 -3.60156,-3.49655 z M 13.65566,19.472055 c -0.23351,0.25033 -0.46746,0.50007 -0.70069,0.75062 l -6.78994,7.26337 1.31013,1.19478 6.60917,-7.42865 c 0.21802,-0.24402 0.4347,-0.48913 0.65248,-0.73339 -0.36043,-0.34886 -0.72037,-0.69822 -1.08115,-1.04673 z"
         id="path19612" />
      <path
         inkscape:connector-curvature="0"
         style="fill:#000000;fill-opacity:1;stroke:#ffffff;stroke-width:3;stroke-linecap:round;stroke-linejoin:round;stroke-miterlimit:4;stroke-opacity:1;stroke-dasharray:none"
         d="M 6.39105,8.3552053 C 4.82354,9.9453253 3.7707,11.972855 2.45504,13.774355 l 2.91008,2.12255 3.14932,-4.53888 c 0.37842,-0.19898 0.62461,0.2908 0.85332,0.50937 3.17232,3.14567 6.30775,6.336 9.46577,9.49919 l 7.01038,7.05096 1.24202,-1.2656 -7.18161,-6.87649 c -3.22204,-3.09795 -6.47079,-6.17281 -9.67559,-9.28538 -0.22284,-0.22456 -0.71716,-0.46149 -0.52533,-0.84359 l 4.47882,-3.2341597 -2.17692,-2.86962 c -1.94132,1.36116 -3.91501,2.64773 -5.61425,4.3125 z"
         id="path19614"
         sodipodi:nodetypes="cccccccccccccc" />
    </g>
    <g
       id="g19606"
       style="fill:#000000;fill-opacity:1;stroke:none"
       transform="matrix(1.0510011,0,0,1.0874525,-0.9766425,-1.792642)">
      <path
         id="path3604"
         d="m 21.0998,4.1275553 -2.84234,2.49114 3.84258,3.7960997 c -1.43238,1.55433 -2.87467,3.10176 -4.31946,4.64656 0.32968,0.30748 0.65885,0.61492 0.98819,0.92277 1.40854,-1.58445 2.82069,-3.16663 4.24027,-4.73953 0.2961,-0.21091 1.97825,1.40394 2.18125,1.70782 l 4.66033,2.4567 c -0.2565,-0.18333 -2.35642,-5.28906 -2.68739,-5.5779397 -0.51127,-0.44819 -1.10874,-0.98088 -1.73192,-1.54426 l 0.98647,-0.96065 -0.75922,-0.64215 -0.9572,0.93999 c -1.34485,-1.23232 -2.7185,-2.54147 -3.60156,-3.49655 z M 13.65566,19.472055 c -0.23351,0.25033 -0.46746,0.50007 -0.70069,0.75062 l -6.78994,7.26337 1.31013,1.19478 6.60917,-7.42865 c 0.21802,-0.24402 0.4347,-0.48913 0.65248,-0.73339 -0.36043,-0.34886 -0.72037,-0.69822 -1.08115,-1.04673 z"
         style="fill:#000000;fill-opacity:1;stroke:none"
         inkscape:connector-curvature="0" />
      <path
         sodipodi:nodetypes="cccccccccccccc"
         id="path3621"
         d="M 6.39105,8.3552053 C 4.82354,9.9453253 3.7707,11.972855 2.45504,13.774355 l 2.91008,2.12255 3.14932,-4.53888 c 0.37842,-0.19898 0.62461,0.2908 0.85332,0.50937 3.17232,3.14567 6.30775,6.336 9.46577,9.49919 l 7.01038,7.05096 1.24202,-1.2656 -7.18161,-6.87649 c -3.22204,-3.09795 -6.47079,-6.17281 -9.67559,-9.28538 -0.22284,-0.22456 -0.71716,-0.46149 -0.52533,-0.84359 l 4.47882,-3.2341597 -2.17692,-2.86962 c -1.94132,1.36116 -3.91501,2.64773 -5.61425,4.3125 z"
         style="fill:#000000;fill-opacity:1;stroke:none"
         inkscape:connector-curvature="0" />
    </g>
  </g>
</svg>
