<?xml version="1.0" encoding="UTF-8" standalone="no"?>
<!-- Created with Inkscape (http://www.inkscape.org/) -->

<svg
   xmlns:dc="http://purl.org/dc/elements/1.1/"
   xmlns:cc="http://creativecommons.org/ns#"
   xmlns:rdf="http://www.w3.org/1999/02/22-rdf-syntax-ns#"
   xmlns:svg="http://www.w3.org/2000/svg"
   xmlns="http://www.w3.org/2000/svg"
   xmlns:sodipodi="http://sodipodi.sourceforge.net/DTD/sodipodi-0.dtd"
   xmlns:inkscape="http://www.inkscape.org/namespaces/inkscape"
   width="32px"
   height="32px"
   id="svg3016"
   version="1.1"
   inkscape:version="0.48.2 r9819"
   sodipodi:docname="peak.svg">
  <defs
     id="defs3018" />
  <sodipodi:namedview
     id="base"
     pagecolor="#ffffff"
     bordercolor="#666666"
     borderopacity="1.0"
     inkscape:pageopacity="0.0"
     inkscape:pageshadow="2"
     inkscape:zoom="12.172943"
     inkscape:cx="16.144144"
     inkscape:cy="16.345946"
     inkscape:current-layer="layer1"
     showgrid="true"
     inkscape:grid-bbox="true"
     inkscape:document-units="px"
     inkscape:window-width="715"
     inkscape:window-height="641"
     inkscape:window-x="2403"
     inkscape:window-y="73"
     inkscape:window-maximized="0" />
  <metadata
     id="metadata3021">
    <rdf:RDF>
      <cc:Work
         rdf:about="">
        <dc:format>image/svg+xml</dc:format>
        <dc:type
           rdf:resource="http://purl.org/dc/dcmitype/StillImage" />
        <dc:title />
      </cc:Work>
    </rdf:RDF>
  </metadata>
  <g
     id="layer1"
     inkscape:label="Layer 1"
     inkscape:groupmode="layer">
    <g
       transform="matrix(0.26494179,0,0,0.32538959,-73.190168,-118.08594)"
       id="g4697">
      <path
         inkscape:connector-curvature="0"
         style="fill:none;stroke:#ffffff;stroke-width:5;stroke-linecap:butt;stroke-linejoin:miter;stroke-miterlimit:4;stroke-opacity:1;stroke-dasharray:none"
         d="m 348.78208,372.60284 c -6.88742,14.60266 -13.78726,29.19945 -20.71875,43.78125 -3.83966,-5.29946 -7.70451,-10.58057 -11.59375,-15.84375 -11.91853,19.07569 -23.7213,38.22363 -35.71875,57.25 37.43746,0.31752 74.87509,0.61481 112.3125,0.9375 -14.10629,-30.01312 -28.29628,-59.98684 -42.46875,-89.96875 -0.60417,1.28125 -1.20833,2.5625 -1.8125,3.84375 z"
         id="path4699" />
      <path
         inkscape:connector-curvature="0"
         style="font-size:medium;font-style:normal;font-variant:normal;font-weight:normal;font-stretch:normal;text-indent:0;text-align:start;text-decoration:none;line-height:normal;letter-spacing:normal;word-spacing:normal;text-transform:none;direction:ltr;block-progression:tb;writing-mode:lr-tb;text-anchor:start;color:#000000;fill:#ffffff;fill-opacity:1;fill-rule:nonzero;stroke:#000000;stroke-width:1.69527816999999990;marker:none;visibility:visible;display:inline;overflow:visible;enable-background:accumulate;font-family:Bitstream Charter;-inkscape-font-specification:Bitstream Charter;stroke-opacity:1.0"
         d="m 350.20589,363.67119 -2.23867,4.76245 -1.80336,3.82864 c -6.26082,13.28891 -12.54682,25.79565 -18.84209,39.06623 -3.01583,-4.1493 -6.03287,-8.29288 -9.07903,-12.41975 l -2.17648,-2.95707 -1.92774,3.11271 c -11.86381,19.00925 -22.65814,38.60543 -34.58612,57.54269 l -2.36304,3.76639 4.44624,0.0311 c 37.24975,0.31628 73.22875,-0.42301 110.47642,-0.10159 l 3.97986,0.0311 -1.7101,-3.57962 C 380.34459,426.85526 366.5452,398.29683 352.44455,368.43364 z"
         id="path4701"
         sodipodi:nodetypes="ccccccccccccccc" />
    </g>
    <path
       inkscape:connector-curvature="0"
       style="font-size:medium;font-style:normal;font-variant:normal;font-weight:normal;font-stretch:normal;text-indent:0;text-align:start;text-decoration:none;line-height:normal;letter-spacing:normal;word-spacing:normal;text-transform:none;direction:ltr;block-progression:tb;writing-mode:lr-tb;text-anchor:start;color:#000000;fill:#4d644d;fill-opacity:1;fill-rule:nonzero;stroke:none;stroke-width:5;marker:none;visibility:visible;display:inline;overflow:visible;enable-background:accumulate;font-family:Bitstream Charter;-inkscape-font-specification:Bitstream Charter"
       d="m 19.601989,14.206159 c 0.19287,6.21e-4 0.38335,0.117179 0.501494,0.306579 0.56959,0.891362 1.123972,1.620096 1.345273,1.730697 0.11065,0.05532 0.08364,0.06419 0.199004,-0.02966 0.115374,-0.09386 0.348326,-0.397208 0.604975,-1.018638 0.108212,-0.258772 0.338438,-0.429338 0.573136,-0.425256 0.234695,0.0041 0.462829,0.182604 0.565173,0.445036 l 5.190051,13.647768 C 28.770237,29.345747 28.432341,30.007057 28,30 l -23.4507461,0.0064 C 4.3253341,30.002594 4.1077975,29.844814 4,29.600949 3.892213,29.357084 3.8983646,29.03669 4.0159205,28.799886 l 4.6169153,-9.46098 c 0.2003169,-0.401554 0.7154576,-0.478972 0.9870648,-0.148346 0.4115364,0.506921 0.7678434,0.775223 1.1940284,0.810954 0.42619,0.03573 1.023279,-0.162619 1.90249,-0.969189 0.269644,-0.252593 0.70161,-0.171856 0.8995,0.168124 l 0.405972,0.692279 1.671643,-4.391021 c 0.09776,-0.265411 0.322421,-0.454625 0.557212,-0.464816 0.234792,-0.01024 0.468649,0.15909 0.581095,0.415368 0.16543,0.372965 0.330222,0.580817 0.453731,0.6725 0.123509,0.09167 0.203312,0.108051 0.350248,0.06923 0.293874,-0.07765 0.860558,-0.578012 1.448757,-1.641687 0.114512,-0.20915 0.313836,-0.342501 0.517412,-0.346143 z"
       id="path3744"
       sodipodi:nodetypes="cccsccccccccccscccccccccc" />
  </g>
</svg>
