<?xml version="1.0" encoding="UTF-8" standalone="no"?>
<!-- Created with Inkscape (http://www.inkscape.org/) -->

<svg
   xmlns:dc="http://purl.org/dc/elements/1.1/"
   xmlns:cc="http://creativecommons.org/ns#"
   xmlns:rdf="http://www.w3.org/1999/02/22-rdf-syntax-ns#"
   xmlns:svg="http://www.w3.org/2000/svg"
   xmlns="http://www.w3.org/2000/svg"
   xmlns:sodipodi="http://sodipodi.sourceforge.net/DTD/sodipodi-0.dtd"
   xmlns:inkscape="http://www.inkscape.org/namespaces/inkscape"
   width="32px"
   height="32px"
   id="svg10866"
   version="1.1"
   inkscape:version="0.48.2 r9819"
   sodipodi:docname="New document 36">
  <defs
     id="defs10868" />
  <sodipodi:namedview
     id="base"
     pagecolor="#ffffff"
     bordercolor="#666666"
     borderopacity="1.0"
     inkscape:pageopacity="0.0"
     inkscape:pageshadow="2"
     inkscape:zoom="8"
     inkscape:cx="15.996812"
     inkscape:cy="15.996812"
     inkscape:current-layer="layer1"
     showgrid="true"
     inkscape:grid-bbox="true"
     inkscape:document-units="px"
     inkscape:window-width="1053"
     inkscape:window-height="839"
     inkscape:window-x="2627"
     inkscape:window-y="19"
     inkscape:window-maximized="0" />
  <metadata
     id="metadata10871">
    <rdf:RDF>
      <cc:Work
         rdf:about="">
        <dc:format>image/svg+xml</dc:format>
        <dc:type
           rdf:resource="http://purl.org/dc/dcmitype/StillImage" />
        <dc:title></dc:title>
      </cc:Work>
    </rdf:RDF>
  </metadata>
  <g
     id="layer1"
     inkscape:label="Layer 1"
     inkscape:groupmode="layer">
    <path
       inkscape:connector-curvature="0"
       style="fill:#ffffff;stroke:#c04040;stroke-width:2;stroke-linecap:round;stroke-linejoin:round;stroke-miterlimit:4;stroke-opacity:1;stroke-dasharray:none;fill-opacity:1"
       d="M 15.876438,1.380974 C 15.033401,2.0390787 14.128493,2.666148 13.085213,2.9592734 11.103524,3.5870514 8.8683308,3.3284753 7.0498852,2.3381537 6.6091866,2.3081065 6.3787021,2.7722018 6.0279853,2.9587244 5.195229,3.6492023 4.321222,4.3029747 3.5385867,5.0461601 3.3957939,5.3614366 3.7492108,5.6072951 3.8015418,5.9043636 4.5500564,7.5468004 5.3673524,9.327225 5.0372659,11.178326 4.7003094,13.537035 3.246841,15.566633 2.8253228,17.907314 c -0.4686992,3.023333 0.8914374,6.303744 3.5130986,7.943226 3.0403493,2.110106 6.7820826,2.827497 9.9346736,4.724527 0.423719,0.199869 0.748715,-0.265185 1.103982,-0.407026 3.002429,-1.81733 6.544648,-2.675174 9.326452,-4.883308 1.594131,-1.189651 2.667122,-3.01931 2.968008,-4.984949 0.317086,-1.846069 -0.0362,-3.776261 -0.932978,-5.413357 -0.856067,-1.828161 -1.845626,-3.7487 -1.655673,-5.828629 0.148403,-1.5076135 0.840557,-2.8900967 1.371117,-4.2888114 0.006,-0.3743528 -0.451369,-0.4551809 -0.649893,-0.6969965 -0.938408,-0.710333 -1.858866,-1.4900343 -2.878036,-2.0794796 -0.633572,0.1380477 -1.144832,0.6339471 -1.792485,0.7502131 -2.402037,0.7933373 -5.205691,0.2863872 -7.150229,-1.3497008 -0.0331,-0.015573 -0.0712,-0.019166 -0.106922,-0.012079 z"
       id="path3610" />
    <path
       inkscape:connector-curvature="0"
       sodipodi:nodetypes="cccscccccsccc"
       d="m 16.52106,30.45352 0,0 C 21.354295,27.121349 29.482703,26.525395 29.554795,18.910413 29.589195,15.495867 27.553656,14.416931 26.848032,10.19607 26.525376,8.265988 28.27952,4.6961944 28.27952,4.6961944 L 24.909384,2.1600863 C 22.889965,3.4364059 19.09638,4.2031299 15.908758,1.5825102 12.830238,4.3263736 9.0083335,3.7007518 6.9385431,2.5001993 L 3.6740593,5.1592316 c 0,0 1.8979571,3.5021323 1.6540123,5.4427064 -0.5334904,4.24382 -2.5236392,5.397345 -2.3504359,8.808048 0.3816275,7.606567 8.5281463,7.90098 13.4932133,11.0516 l 0,0"
       style="opacity:1;fill:#4040c0;fill-opacity:1;fill-rule:evenodd;stroke:#ffffff;stroke-width:0.52648097000000005;stroke-linecap:round;stroke-linejoin:round;stroke-miterlimit:4;stroke-opacity:1;stroke-dasharray:none"
       id="path4295" />
    <path
       inkscape:connector-curvature="0"
       style="fill:#ffffff;fill-opacity:1;stroke:none"
       d="m 9.85345,12.475369 c 0.062401,0.486835 0.467159,0.847622 0.890167,0.793557 l 0.406398,-0.05191 c 0.423019,-0.0541 0.723614,-0.504993 0.661173,-0.991829 L 11.598024,10.563266 C 11.535623,10.07643 11.130875,9.7156432 10.707867,9.7697083 l -0.406398,0.051909 C 9.8784505,9.8757222 9.5778546,10.326611 9.6402958,10.813446 L 9.85345,12.475369 z m 0.789735,-0.120239 c -0.217204,-0.19363 -0.369617,-1.381924 -0.208284,-1.623939 0.161333,-0.242015 0.156183,-0.241357 0.373398,-0.04772 0.217204,0.19363 0.369617,1.381924 0.208284,1.623939 -0.161333,0.242015 -0.156183,0.241356 -0.373398,0.04772 z"
       id="rect3389"
       sodipodi:nodetypes="cccccccccczzzz" />
    <path
       inkscape:connector-curvature="0"
       sodipodi:nodetypes="cccccccccczzzz"
       id="path3395"
       d="m 14.344858,7.8250819 c 0.419638,0.2998037 0.977599,0.2687582 1.227254,-0.06828 L 15.811956,7.4329802 C 16.061611,7.0959319 15.919898,6.5650139 15.50026,6.2652002 L 14.067732,5.2417467 C 13.648094,4.941943 13.090133,4.9729885 12.840478,5.3100269 l -0.239844,0.3238116 c -0.249655,0.3370483 -0.107942,0.8679763 0.311696,1.16778 l 1.432528,1.0234534 z m 0.451148,-0.6428815 c -0.299455,0.016671 -1.323735,-0.7151146 -1.399787,-1.0000644 -0.0761,-0.2849498 -0.0791,-0.280847 0.220364,-0.2975178 0.299466,-0.016671 1.323736,0.7151147 1.399788,1.0000645 0.0761,0.2849498 0.0791,0.280857 -0.220365,0.2975177 z"
       style="fill:#ffffff;fill-opacity:1;stroke:none" />
    <path
       inkscape:connector-curvature="0"
       style="fill:#ffffff;fill-opacity:1;stroke:none"
       d="m 13.018902,6.5926454 c 0.489869,-0.042026 0.867807,-0.430694 0.831276,-0.8548394 l -0.0199,0.3874498 C 13.793777,5.7011104 13.354898,5.3825596 12.865019,5.4246057 L 11.192726,5.5681338 C 10.702857,5.61016 10.324919,5.9988278 10.36145,6.4229732 l 0.02,-0.3874499 c 0.0365,0.4241455 0.47538,0.7426863 0.965249,0.7006401 l 1.672293,-0.143518 z M 12.9314,5.7999968 C 12.728556,6.0085806 11.532853,6.1112005 11.297328,5.9402306 11.061794,5.7692707 11.077384,6.5693762 11.280228,6.3607824 11.483072,6.1521985 12.678775,6.0495687 12.9143,6.2205386 13.149834,6.3914985 13.134244,5.591403 12.9314,5.7999968 z"
       id="path3397"
       sodipodi:nodetypes="cccccccccczzzz" />
    <path
       inkscape:connector-curvature="0"
       style="fill:#ffffff;fill-opacity:1;stroke:none"
       d="M 11.440481,6.9625959 C 11.749497,6.5500401 11.730027,5.9925388 11.39768,5.7363585 L 11.078364,5.4902405 C 10.745987,5.2340602 10.211277,5.3644314 9.9022609,5.7769772 L 8.8473603,7.1853349 c -0.309016,0.4125558 -0.2895456,0.9700572 0.042801,1.2262375 l 0.3193162,0.246118 C 9.5418539,8.9138707 10.076554,8.7834995 10.38557,8.3709437 L 11.440481,6.9625959 z M 10.805989,6.4989498 c 0.0104,0.2992048 -0.743805,1.3061971 -1.0307905,1.3761643 -0.2869756,0.069977 -0.2829356,0.073072 -0.2933858,-0.226133 -0.0104,-0.2992148 0.7438143,-1.3061971 1.0308003,-1.3761643 0.286975,-0.069977 0.282925,-0.073072 0.293376,0.226133 z"
       id="path3534"
       sodipodi:nodetypes="cccccccccczzzz" />
    <path
       inkscape:connector-curvature="0"
       sodipodi:nodetypes="cccccccccczzzz"
       id="path3536"
       d="m 9.8304995,10.222334 c 0.1627932,0.463127 0.6339925,0.731706 1.0364005,0.590753 l -0.380878,0.07717 c 0.402418,-0.140953 0.602172,-0.644559 0.439369,-1.1076863 L 10.36964,8.201591 C 10.206847,7.738464 9.7356477,7.4698854 9.3332298,7.610848 L 9.7141073,7.5336835 C 9.3116994,7.674646 9.1119455,8.178242 9.2747387,8.641369 l 0.5557608,1.580975 z M 10.577734,9.9402989 C 10.324839,9.7961519 9.9274714,8.6657462 10.034684,8.3954607 10.141896,8.1251751 9.3695105,8.3395588 9.6224055,8.4837058 c 0.2528949,0.1441469 0.6502625,1.2745626 0.5430505,1.5448382 -0.107212,0.270286 0.665173,0.0559 0.412278,-0.088245 z"
       style="fill:#ffffff;fill-opacity:1;stroke:none" />
    <g
       id="g3540"
       transform="matrix(0.04095164,0,0,0.04087908,3.7235303,2.5361362)"
       style="fill:#ffffff;fill-opacity:1">
      <g
         transform="matrix(1.0907181,-0.2914957,0.2914957,1.0907181,-98.8285,72.452649)"
         id="g3490"
         style="fill:#ffffff;fill-opacity:1">
        <g
           transform="matrix(0.9826633,-0.1853992,0.1853992,0.9826633,-60.17152,31.061258)"
           id="g3500"
           style="fill:#ffffff;fill-opacity:1">
          <path
             inkscape:connector-curvature="0"
             sodipodi:nodetypes="cccsszzzssc"
             id="path3313"
             d="m 137.92957,221.66212 c -7.58542,0.60458 -11.32119,13.81445 -12.99324,20.91531 -0.79855,11.74113 9.76035,31.84764 15.41118,30.63495 40.72202,-3e-5 66.02183,27.71772 66.02183,68.43978 4e-5,40.72201 -27.11324,70.25322 -67.83529,70.25322 -16.18798,-3e-5 -24.46001,-14.39283 -40.587827,-11.81862 -15.673332,2.50166 -23.662466,9.76279 -28.251302,18.06731 -4.857361,8.79047 -9.926486,22.86389 6.128076,35.08654 16.487744,12.55244 31.261093,13.74345 53.039363,13.74342 67.62255,6e-5 127.14539,-57.70923 127.14531,-125.33187 -4e-5,-67.62265 -50.45552,-119.98994 -118.0781,-119.99004 z"
             style="fill:#ffffff;fill-opacity:1;stroke:none" />
          <path
             inkscape:connector-curvature="0"
             sodipodi:nodetypes="csccssccc"
             id="path3325"
             d="m 133.09373,224.64754 c -64.403852,-4e-5 -117.1032,52.60083 -117.103104,117.00462 3.1e-5,47.37503 23.678013,91.92373 64.401738,110.29016 l 26.601846,-46.2725 c -30.109595,-5.8038 -45.895746,-25.45708 -45.895746,-61.65394 -6.2e-5,-43.94094 30.509229,-77.95879 74.450206,-77.95879 12.23459,3e-5 16.71534,4.92072 29.06145,9.41063 l 11.3262,-42.64562 c -13.2782,-5.25876 -27.74167,-8.17456 -42.84259,-8.17456 z"
             style="opacity:0.80000000000000004;fill:#ffffff;fill-opacity:1;stroke:none" />
          <path
             inkscape:connector-curvature="0"
             sodipodi:nodetypes="ccsccscc"
             d="m 156.75706,289.14862 15.23845,10.68689 c 30.42126,23.19058 49.37576,21.86305 67.63242,-3.7246 18.25666,-25.58769 -19.43768,-82.55651 -19.43768,-82.55651 0,0 -0.55988,-0.3995 -0.55988,-0.3995 0,0 -66.13262,-17.11106 -84.38924,8.47659 -18.25666,25.58769 -13.34578,43.94302 18.47989,65.16529 l 15.06289,10.93293"
             style="fill:#ffffff;fill-opacity:1;fill-rule:evenodd;stroke:none"
             id="path3374" />
        </g>
      </g>
      <path
         d="m 187.12038,514.0683 c 0,19.4203 -15.74327,35.16356 -35.16356,35.16356 -19.4203,0 -35.16356,-15.74326 -35.16356,-35.16356 0,-19.4203 15.74326,-35.16356 35.16356,-35.16356 19.42029,0 35.16356,15.74326 35.16356,35.16356 z"
         sodipodi:ry="35.163559"
         sodipodi:rx="35.163559"
         sodipodi:cy="514.0683"
         sodipodi:cx="151.95682"
         id="path3538"
         style="fill:#ffffff;fill-opacity:1;stroke:none"
         sodipodi:type="arc" />
    </g>
    <g
       id="g3548"
       transform="matrix(-0.02990391,0.02792886,0.02797844,0.02985093,13.351228,-5.0419511)"
       style="fill:#ffffff;fill-opacity:1">
      <g
         id="g3550"
         transform="matrix(1.0907181,-0.2914957,0.2914957,1.0907181,-98.8285,72.452649)"
         style="fill:#ffffff;fill-opacity:1">
        <g
           id="g3552"
           transform="matrix(0.9826633,-0.1853992,0.1853992,0.9826633,-60.17152,31.061258)"
           style="fill:#ffffff;fill-opacity:1">
          <path
             inkscape:connector-curvature="0"
             style="fill:#ffffff;fill-opacity:1;stroke:none"
             d="m 137.92957,221.66212 c -7.58542,0.60458 -11.32119,13.81445 -12.99324,20.91531 -0.79855,11.74113 9.76035,31.84764 15.41118,30.63495 40.72202,-3e-5 66.02183,27.71772 66.02183,68.43978 4e-5,40.72201 -27.11324,70.25322 -67.83529,70.25322 -16.18798,-3e-5 -24.46001,-14.39283 -40.587827,-11.81862 -15.673332,2.50166 -23.662466,9.76279 -28.251302,18.06731 -4.857361,8.79047 -9.926486,22.86389 6.128076,35.08654 16.487744,12.55244 31.261093,13.74345 53.039363,13.74342 67.62255,6e-5 127.14539,-57.70923 127.14531,-125.33187 -4e-5,-67.62265 -50.45552,-119.98994 -118.0781,-119.99004 z"
             id="path3554"
             sodipodi:nodetypes="cccsszzzssc" />
          <path
             inkscape:connector-curvature="0"
             style="opacity:0.80000000000000004;fill:#ffffff;fill-opacity:1;stroke:none"
             d="m 133.09373,224.64754 c -64.403852,-4e-5 -117.1032,52.60083 -117.103104,117.00462 3.1e-5,47.37503 23.678013,91.92373 64.401738,110.29016 l 26.601846,-46.2725 c -30.109595,-5.8038 -45.895746,-25.45708 -45.895746,-61.65394 -6.2e-5,-43.94094 30.509229,-77.95879 74.450206,-77.95879 12.23459,3e-5 16.71534,4.92072 29.06145,9.41063 l 11.3262,-42.64562 c -13.2782,-5.25876 -27.74167,-8.17456 -42.84259,-8.17456 z"
             id="path3556"
             sodipodi:nodetypes="csccssccc" />
          <path
             inkscape:connector-curvature="0"
             id="path3558"
             style="fill:#ffffff;fill-opacity:1;fill-rule:evenodd;stroke:none"
             d="m 156.75706,289.14862 15.23845,10.68689 c 30.42126,23.19058 49.37576,21.86305 67.63242,-3.7246 18.25666,-25.58769 -19.43768,-82.55651 -19.43768,-82.55651 0,0 -0.55988,-0.3995 -0.55988,-0.3995 0,0 -66.13262,-17.11106 -84.38924,8.47659 -18.25666,25.58769 -13.34578,43.94302 18.47989,65.16529 l 15.06289,10.93293"
             sodipodi:nodetypes="ccsccscc" />
        </g>
      </g>
      <path
         sodipodi:type="arc"
         style="fill:#ffffff;fill-opacity:1;stroke:none"
         id="path3560"
         sodipodi:cx="151.95682"
         sodipodi:cy="514.0683"
         sodipodi:rx="35.163559"
         sodipodi:ry="35.163559"
         d="m 187.12038,514.0683 c 0,19.4203 -15.74327,35.16356 -35.16356,35.16356 -19.4203,0 -35.16356,-15.74326 -35.16356,-35.16356 0,-19.4203 15.74326,-35.16356 35.16356,-35.16356 19.42029,0 35.16356,15.74326 35.16356,35.16356 z" />
    </g>
  </g>
</svg>
