<?xml version="1.0" encoding="UTF-8" standalone="no"?>
<!-- Created with Inkscape (http://www.inkscape.org/) -->

<svg
   xmlns:dc="http://purl.org/dc/elements/1.1/"
   xmlns:cc="http://creativecommons.org/ns#"
   xmlns:rdf="http://www.w3.org/1999/02/22-rdf-syntax-ns#"
   xmlns:svg="http://www.w3.org/2000/svg"
   xmlns="http://www.w3.org/2000/svg"
   xmlns:sodipodi="http://sodipodi.sourceforge.net/DTD/sodipodi-0.dtd"
   xmlns:inkscape="http://www.inkscape.org/namespaces/inkscape"
   width="32px"
   height="32px"
   id="svg17922"
   version="1.1"
   inkscape:version="0.48.2 r9819"
   sodipodi:docname="New document 66">
  <defs
     id="defs17924" />
  <sodipodi:namedview
     id="base"
     pagecolor="#ffffff"
     bordercolor="#666666"
     borderopacity="1.0"
     inkscape:pageopacity="0.0"
     inkscape:pageshadow="2"
     inkscape:zoom="1"
     inkscape:cx="16"
     inkscape:cy="16"
     inkscape:current-layer="layer1"
     showgrid="true"
     inkscape:grid-bbox="true"
     inkscape:document-units="px"
     inkscape:window-width="1020"
     inkscape:window-height="729"
     inkscape:window-x="2045"
     inkscape:window-y="125"
     inkscape:window-maximized="0" />
  <metadata
     id="metadata17927">
    <rdf:RDF>
      <cc:Work
         rdf:about="">
        <dc:format>image/svg+xml</dc:format>
        <dc:type
           rdf:resource="http://purl.org/dc/dcmitype/StillImage" />
        <dc:title></dc:title>
      </cc:Work>
    </rdf:RDF>
  </metadata>
  <g
     id="layer1"
     inkscape:label="Layer 1"
     inkscape:groupmode="layer">
    <path
       sodipodi:type="arc"
       style="fill:#645848;stroke:#ffffff;stroke-width:25.13761519999999900;stroke-miterlimit:4;stroke-opacity:1;stroke-dasharray:none;stroke-dashoffset:0;fill-opacity:1"
       id="path2207"
       sodipodi:cx="217.14285"
       sodipodi:cy="305.71429"
       sodipodi:rx="288.57144"
       sodipodi:ry="288.57144"
       d="m 505.71429,305.71429 a 288.57144,288.57144 0 1 1 -577.142879,0 288.57144,288.57144 0 1 1 577.142879,0 z"
       transform="matrix(0.05226027,0,0,0.05216584,4.7286867,0.16429244)" />
    <path
       transform="matrix(0.05226027,0,0,0.05216584,4.7286867,0.16429244)"
       d="m 505.71429,305.71429 a 288.57144,288.57144 0 1 1 -577.142879,0 288.57144,288.57144 0 1 1 577.142879,0 z"
       sodipodi:ry="288.57144"
       sodipodi:rx="288.57144"
       sodipodi:cy="305.71429"
       sodipodi:cx="217.14285"
       id="path3267"
       style="opacity:0.10000000000000001;fill:#645848;fill-opacity:1;stroke:#ffffff;stroke-width:25.13761519999999900;stroke-miterlimit:4;stroke-opacity:1;stroke-dasharray:none;stroke-dashoffset:0"
       sodipodi:type="arc" />
    <path
       inkscape:connector-curvature="0"
       style="font-size:40px;font-style:normal;font-variant:normal;font-weight:normal;font-stretch:normal;text-align:start;line-height:125%;writing-mode:lr-tb;text-anchor:start;fill:#ffffff;fill-opacity:1;stroke:none;font-family:NPSPICT3;-inkscape-font-specification:NPSPICT3"
       d="m 7.2730199,10.580146 5.3229611,5.339192 -5.3229611,5.313343 0,-10.652535 z M 23.832819,9.5790534 17.276225,16.098721 c -0.325947,0.325358 -0.737415,0.488022 -1.234405,0.488022 -0.51429,0 -0.943019,-0.171283 -1.286207,-0.513871 l -6.5055738,-6.4938186 15.5827798,0 z m 1.028801,11.6536276 -5.322961,-5.313343 5.322961,-5.339192 0,10.652535 z M 8.2241433,22.233784 13.57299,16.920441 13.8045,17.151522 c 0.617323,0.598998 1.363093,0.898487 2.23732,0.898477 0.874197,10e-6 1.611332,-0.299479 2.211424,-0.898477 l 0.2315,-0.231081 5.348075,5.313343 -15.6086757,0 z m -2.3911421,1.437407 20.5204288,0 0,-15.5554034 -20.5204288,0 0,15.5554034 z"
       id="flowRoot3192" />
  </g>
</svg>
