<?xml version="1.0" encoding="UTF-8" standalone="no"?>
<!-- Created with Inkscape (http://www.inkscape.org/) -->

<svg
   xmlns:dc="http://purl.org/dc/elements/1.1/"
   xmlns:cc="http://creativecommons.org/ns#"
   xmlns:rdf="http://www.w3.org/1999/02/22-rdf-syntax-ns#"
   xmlns:svg="http://www.w3.org/2000/svg"
   xmlns="http://www.w3.org/2000/svg"
   xmlns:sodipodi="http://sodipodi.sourceforge.net/DTD/sodipodi-0.dtd"
   xmlns:inkscape="http://www.inkscape.org/namespaces/inkscape"
   width="32px"
   height="32px"
   id="svg11507"
   version="1.1"
   inkscape:version="0.48.2 r9819"
   sodipodi:docname="prison.svg">
  <defs
     id="defs11509" />
  <sodipodi:namedview
     id="base"
     pagecolor="#ffffff"
     bordercolor="#666666"
     borderopacity="1.0"
     inkscape:pageopacity="0.0"
     inkscape:pageshadow="2"
     inkscape:zoom="11.55814"
     inkscape:cx="17.493462"
     inkscape:cy="12.810828"
     inkscape:current-layer="layer1"
     showgrid="false"
     inkscape:grid-bbox="true"
     inkscape:document-units="px"
     inkscape:snap-bbox="true"
     inkscape:snap-global="false"
     inkscape:window-width="894"
     inkscape:window-height="686"
     inkscape:window-x="2061"
     inkscape:window-y="104"
     inkscape:window-maximized="0" />
  <metadata
     id="metadata11512">
    <rdf:RDF>
      <cc:Work
         rdf:about="">
        <dc:format>image/svg+xml</dc:format>
        <dc:type
           rdf:resource="http://purl.org/dc/dcmitype/StillImage" />
        <dc:title />
      </cc:Work>
    </rdf:RDF>
  </metadata>
  <g
     id="layer1"
     inkscape:label="Layer 1"
     inkscape:groupmode="layer">
    <rect
       style="fill:#ffffff;fill-opacity:1;fill-rule:evenodd;stroke:#ffffff;stroke-width:2.03709912;stroke-linecap:round;stroke-linejoin:miter;stroke-miterlimit:4;stroke-opacity:1;stroke-dasharray:none"
       id="rect11542"
       width="26.014526"
       height="29.03219"
       x="2.9927366"
       y="1.5285562" />
    <path
       style="font-size:40px;font-style:normal;font-variant:normal;font-weight:normal;font-stretch:normal;text-align:start;line-height:125%;writing-mode:lr-tb;text-anchor:start;opacity:0.5;fill:#333333;fill-opacity:1;stroke:none;font-family:NPSPICT3;-inkscape-font-specification:NPSPICT3"
       d="M 13.71875,5.4375 C 12.909569,6.2249879 12.500039,7.1825036 12.5,8.3125 c 3.8e-5,1.1313009 0.409569,2.087584 1.21875,2.875 0.809254,0.787481 1.751249,1.187531 2.96875,1.187531 1.217502,0 2.159496,-0.400049 2.96875,-1.187531 0.809181,-0.787416 1.218711,-1.7436991 1.21875,-2.875 -3.7e-5,-1.1299964 -0.40957,-2.0875121 -1.21875,-2.875 -0.809254,-0.7874102 -1.751249,-1.1874599 -2.96875,-1.1874599 -1.2175,0 -2.159496,0.4000497 -2.96875,1.1874599 z m -0.25,7.1875 c -0.245842,7e-6 -0.487921,0.0092 -0.6875,0.0625 -0.131297,-0.01196 -0.241859,-0.0031 -0.375,0 C 10.493654,12.73263 8.9560888,14.309515 9,16.21875 l 0.09375,8.0625 c -0.00722,1.248014 0.6647735,2.411534 1.75,3.03125 0.221931,0.126733 0.275976,0.06551 0.514462,0.139462 l 0.07929,2.173038 0,0.3125 5.15625,-0.15625 5.15625,0.15625 0,-0.3125 0.09375,-2.15625 c 0.115768,-0.05254 0.232982,-0.121621 0.34375,-0.1875 1.074069,-0.638789 1.716841,-1.814809 1.6875,-3.0625 l -0.09375,-8.0625 c 0.0049,-0.934839 -0.362984,-1.813808 -1.03125,-2.46875 -0.602024,-0.590019 -1.382651,-0.95289 -2.21875,-1 -0.189617,-0.04668 -0.39483,-0.06249 -0.625,-0.0625 z"
       id="path3009"
       inkscape:connector-curvature="0"
       sodipodi:nodetypes="ccscscccccccccscccccccsccsccc" />
    <path
       inkscape:connector-curvature="0"
       style="fill:#000000;fill-opacity:1;stroke:#000000;stroke-width:0.73029845999999998;stroke-linecap:round;stroke-linejoin:round;stroke-miterlimit:4;stroke-opacity:1;stroke-dashoffset:0"
       d="m 21.221005,2.6291015 c -0.124142,9.084e-4 -0.233744,0.015972 -0.308706,0.072273 0,6.6930767 0,13.3870925 0,20.0801785 0.0635,-0.566305 0.364757,-1.136045 0.943359,-1.25846 0,-6.294277 0,-12.5894227 0,-18.8836996 -0.183084,0.02835 -0.427759,-0.011879 -0.634653,-0.010282 z M 20.912299,23.241246 c 0,2.196603 0,4.393505 0,6.590097 0.292926,-0.04532 0.743465,0.08815 0.943359,-0.06199 0,-1.750166 0,-3.500573 0,-5.250739 -0.559901,-0.08824 -0.915128,-0.739931 -0.943359,-1.277387 z"
       id="path8836" />
    <path
       inkscape:connector-curvature="0"
       style="fill:#000000;fill-opacity:1;stroke:#000000;stroke-width:0.73029845999999998;stroke-linecap:round;stroke-linejoin:round;stroke-miterlimit:4;stroke-opacity:1;stroke-dashoffset:0"
       d="m 11.690803,2.6291015 c -0.124142,9.084e-4 -0.233745,0.015972 -0.308696,0.072273 0,6.2724653 0,12.5458095 0,18.8182845 0.4953,0.07108 0.824307,0.588217 0.914038,1.057024 0.0125,0.0559 0.0216,0.113511 0.0293,0.172158 0,-6.70284 0,-13.4066082 0,-20.1094476 -0.183084,0.02835 -0.427759,-0.011879 -0.634663,-0.010282 z m 0.634663,20.6792865 c -0.0727,0.547439 -0.361147,1.066367 -0.919219,1.210245 -0.008,9.98e-4 -0.0161,7.78e-4 -0.0241,0.002 0,1.770242 0,3.540733 0,5.310984 0.292926,-0.04532 0.743465,0.08815 0.943359,-0.06199 0,-2.153568 0,-4.307426 0,-6.460984 z"
       id="path9418" />
    <path
       inkscape:connector-curvature="0"
       id="path9497"
       d="m 28.196506,29.830635 c 0.292936,-0.04532 0.744695,0.08825 0.944599,-0.06189 0,-9.04289 0,-18.08579 0,-27.1286807 -0.292936,0.04532 -0.744705,-0.088245 -0.944599,0.061891 0,9.0428907 0,18.0857907 0,27.1286817 z"
       style="fill:#000000;fill-opacity:1;stroke:#000000;stroke-width:0.73029845999999998;stroke-linecap:round;stroke-linejoin:round;stroke-miterlimit:4;stroke-opacity:1;stroke-dashoffset:0" />
    <path
       inkscape:connector-curvature="0"
       id="path9499"
       d="m 2.9929077,29.830635 c 0.292936,-0.04532 0.7446951,0.08825 0.9445991,-0.06189 0,-9.04289 0,-18.08579 0,-27.1286807 -0.2929359,0.04532 -0.744705,-0.088245 -0.9445991,0.061891 0,9.0428907 0,18.0857907 0,27.1286817 z"
       style="fill:#000000;fill-opacity:1;stroke:#000000;stroke-width:0.73029845999999998;stroke-linecap:round;stroke-linejoin:round;stroke-miterlimit:4;stroke-opacity:1;stroke-dashoffset:0" />
    <path
       inkscape:connector-curvature="0"
       style="fill:#000000;fill-opacity:1;stroke:#000000;stroke-width:0.71982771000000001;stroke-linecap:round;stroke-linejoin:round;stroke-miterlimit:4;stroke-opacity:1;stroke-dashoffset:0"
       d="m 29.155735,2.565633 c -0.0437,-0.2956608 0.0849,-0.7516301 -0.0596,-0.9533858 -8.704485,0 -17.408961,0 -26.1134365,0 0.043601,0.2956608 -0.084902,0.7516301 0.059601,0.9533858 8.7044755,0 17.4089615,0 26.1134365,0 z"
       id="path9518" />
    <path
       inkscape:connector-curvature="0"
       id="path9520"
       d="m 29.155735,30.441003 c -0.0437,-0.295661 0.0849,-0.75163 -0.0596,-0.953386 -8.704485,0 -17.408961,0 -26.1134365,0 0.043601,0.295651 -0.084902,0.75162 0.059601,0.953386 8.7044755,0 17.4089615,0 26.1134365,0 z"
       style="fill:#000000;fill-opacity:1;stroke:#000000;stroke-width:0.71982771000000001;stroke-linecap:round;stroke-linejoin:round;stroke-miterlimit:4;stroke-opacity:1;stroke-dashoffset:0" />
  </g>
</svg>
