<?xml version="1.0" encoding="UTF-8" standalone="no"?>
<!-- Generator: Adobe Illustrator 12.0.1, SVG Export Plug-In . SVG Version: 6.00 Build 51448)  -->

<svg
   xmlns:dc="http://purl.org/dc/elements/1.1/"
   xmlns:cc="http://creativecommons.org/ns#"
   xmlns:rdf="http://www.w3.org/1999/02/22-rdf-syntax-ns#"
   xmlns:svg="http://www.w3.org/2000/svg"
   xmlns="http://www.w3.org/2000/svg"
   xmlns:sodipodi="http://sodipodi.sourceforge.net/DTD/sodipodi-0.dtd"
   xmlns:inkscape="http://www.inkscape.org/namespaces/inkscape"
   version="1.1"
   id="Layer_1"
   width="32"
   height="32"
   viewBox="0 0 31.999999 32"
   overflow="visible"
   enable-background="new 0 0 252.546 252.993"
   xml:space="preserve"
   inkscape:version="0.48.2 r9819"
   sodipodi:docname="ranger.svg"
   style="overflow:visible"><metadata
   id="metadata23"><rdf:RDF><cc:Work
       rdf:about=""><dc:format>image/svg+xml</dc:format><dc:type
         rdf:resource="http://purl.org/dc/dcmitype/StillImage" /></cc:Work></rdf:RDF></metadata><defs
   id="defs21" /><sodipodi:namedview
   pagecolor="#ffffff"
   bordercolor="#666666"
   borderopacity="1"
   objecttolerance="10"
   gridtolerance="10"
   guidetolerance="10"
   inkscape:pageopacity="0"
   inkscape:pageshadow="2"
   inkscape:window-width="1171"
   inkscape:window-height="947"
   id="namedview19"
   showgrid="false"
   inkscape:zoom="1"
   inkscape:cx="15.967704"
   inkscape:cy="15.995994"
   inkscape:window-x="0"
   inkscape:window-y="0"
   inkscape:window-maximized="0"
   inkscape:current-layer="Layer_1" />

<g
   id="g5"
   transform="matrix(0.15964243,0,0,0.15754234,-4.5265021,-3.708468)">
	<g
   id="g7">
		<path
   d="M 119.49,99.699 97.9,75.667 c 0,0 -35.393,-0.229 -36.049,-0.079 l -26.253,23.131 -0.98,3.439 0.98,3.921 27.638,26.056 0.458,5.082 h 30.009 v -5.541 l 26.768,-25.598 0.49,-2.941 -1.471,-3.438 z m -71.489,1.968 12.926,-10.387 1.612,26.775 -14.538,-16.388 z m 45.701,17.772 1.392,-27.693 12.001,10.617 -13.393,17.076 z"
   id="path9"
   inkscape:connector-curvature="0" />
	</g>
</g>
<path
   d="m 5.9597709,3.9540764 c 0,0 -0.3483398,2.8768807 2.0003202,2.9540765 C 10.30875,6.9853489 10.279694,3.945254 10.279694,3.945254 l -4.3199231,0.00882 z"
   id="path11"
   inkscape:connector-curvature="0" />
<path
   d="m 10.240581,3.1109098 c 0,0 -0.8757969,-2.11090981 -2.0558739,-2.11090981 -1.215357,0 -2.0937101,2.14840481 -2.0937101,2.14840481 H 3.7410604 l 0.022828,0.433399 8.5110176,-0.037338 V 3.1446239 l -2.034325,-0.033714 z"
   id="path13"
   inkscape:connector-curvature="0" />
<polygon
   points="94.951,219.893 84.169,219.893 78.279,162 74.318,220.312 63.069,220.225 64.058,141.89 93.972,141.598 "
   id="polygon15"
   transform="matrix(0.15964243,0,0,0.15754234,-4.5265021,-3.708468)" />
<path
   d="m 14.549172,15.554076 -0.02393,8.655692 h 4.095467 v -6.415282 l 4.452268,0.02474 0.01277,6.235841 4.100416,-0.01732 -0.02921,-8.792753 -2.428003,-2.087278 0.0012,-3.5769982 c 0,0 0.469508,-0.2104771 1.644475,-0.2876729 1.173692,-0.077198 1.722703,0.9279251 3.132345,1.0049621 1.409643,0.0772 1.487868,-0.6949181 1.487868,-0.6949181 V 7.4387554 c 0,0 0.15629,0.1543916 -1.253352,0.1543916 -1.409484,0 -1.566413,-1.236865 -3.132185,-1.236865 -1.566252,0 -1.958973,0.3102009 -1.958973,0.3102009 V 5.8931075 l -0.363346,0.051043 -0.0174,6.9818045 -3.534004,-2.473414 -6.186465,5.101535 z"
   id="path17"
   inkscape:connector-curvature="0" />
</svg>