<?xml version="1.0" encoding="UTF-8" standalone="no"?>
<!-- Generator: Adobe Illustrator 10.0, SVG Export Plug-In . SVG Version: 3.0.0 Build 77)  -->

<svg
   xmlns:i="http://ns.adobe.com/AdobeIllustrator/10.0/"
   xmlns:dc="http://purl.org/dc/elements/1.1/"
   xmlns:cc="http://creativecommons.org/ns#"
   xmlns:rdf="http://www.w3.org/1999/02/22-rdf-syntax-ns#"
   xmlns:svg="http://www.w3.org/2000/svg"
   xmlns="http://www.w3.org/2000/svg"
   xmlns:sodipodi="http://sodipodi.sourceforge.net/DTD/sodipodi-0.dtd"
   xmlns:inkscape="http://www.inkscape.org/namespaces/inkscape"
   enable-background="new 0 0 455.148 454.788"
   height="32"
   i:pageBounds="0 792 612 0"
   i:rulerOrigin="0 0"
   i:viewOrigin="78 623"
   overflow="visible"
   space="preserve"
   viewBox="0 0 31.999999 32"
   width="32"
   id="svg2"
   sodipodi:version="0.32"
   inkscape:version="0.48.2 r9819"
   sodipodi:docname="skiing.svg"
   version="1.1"
   style="overflow:visible">
  <defs
     id="defs110" />
  <sodipodi:namedview
     inkscape:window-height="648"
     inkscape:window-width="858"
     inkscape:pageshadow="2"
     inkscape:pageopacity="0.0"
     guidetolerance="10.0"
     gridtolerance="10.0"
     objecttolerance="10.0"
     borderopacity="1.0"
     bordercolor="#666666"
     pagecolor="#ffffff"
     id="base"
     inkscape:zoom="12.187498"
     inkscape:cx="14.629826"
     inkscape:cy="15.999998"
     inkscape:window-x="1997"
     inkscape:window-y="98"
     inkscape:current-layer="svg2"
     showgrid="false"
     inkscape:window-maximized="0" />
  <metadata
     id="metadata4">
    <rdf:RDF>
      <cc:Work
         rdf:about="">
        <dc:title>Hotel Icon Ski Area</dc:title>
        <dc:description>Part of Hotel Icons Collection</dc:description>
        <dc:subject>
          <rdf:Bag>
            <rdf:li>icon</rdf:li>
            <rdf:li>symbol</rdf:li>
            <rdf:li>hotel</rdf:li>
          </rdf:Bag>
        </dc:subject>
        <dc:publisher>
          <cc:Agent
             rdf:about="http://www.openclipart.org/">
            <dc:title>Open Clip Art Library</dc:title>
          </cc:Agent>
        </dc:publisher>
        <dc:creator>
          <cc:Agent>
            <dc:title>Gerald G.</dc:title>
          </cc:Agent>
        </dc:creator>
        <dc:rights>
          <cc:Agent>
            <dc:title>Gerald G.</dc:title>
          </cc:Agent>
        </dc:rights>
        <dc:date />
        <dc:format>image/svg+xml</dc:format>
        <dc:type
           rdf:resource="http://purl.org/dc/dcmitype/StillImage" />
        <cc:license
           rdf:resource="http://web.resource.org/cc/PublicDomain" />
        <dc:language>en</dc:language>
      </cc:Work>
      <cc:License
         rdf:about="http://web.resource.org/cc/PublicDomain">
        <cc:permits
           rdf:resource="http://web.resource.org/cc/Reproduction" />
        <cc:permits
           rdf:resource="http://web.resource.org/cc/Distribution" />
        <cc:permits
           rdf:resource="http://web.resource.org/cc/DerivativeWorks" />
      </cc:License>
    </rdf:RDF>
  </metadata>
  <path
     clip-rule="evenodd"
     d="m 10.777898,8.3416316 c 0.276978,-0.2238083 0.919908,-0.8878932 1.972814,-2.0361817 1.049109,-1.1557286 2.452983,-2.7370594 4.270734,-4.8137012 1.189598,1.8565034 2.065071,3.1956811 2.711695,4.0762362 0.631742,0.8695481 0.982711,1.2511217 1.067683,1.1447215 0.672279,-0.6604167 1.237729,-1.2217705 1.725391,-1.7134132 0.480272,-0.4916436 0.853203,-0.8952311 1.148858,-1.2254396 1.477762,2.0399527 2.704306,3.7203449 3.779378,5.1402406 1.056498,1.4088878 1.895332,2.4765618 2.545548,3.2617218 L 25.976687,8.5068377 C 25.644192,9.446096 25.101216,9.930402 24.332677,9.974429 23.541971,10.000109 22.341391,8.9471152 21.373457,8.7526591 20.405521,8.5582029 19.441283,9.156247 18.580383,8.8333761 17.701113,8.4921616 17.021446,7.1419769 16.197593,6.7934236 15.370046,6.44854 14.531415,6.44854 13.652044,6.7934236 12.695192,7.306979 11.738342,7.8243047 10.777898,8.3416313 z"
     i:knockout="Off"
     id="path93"
     style="fill:#7f7f7f;fill-rule:evenodd"
     inkscape:connector-curvature="0" />
  <path
     clip-rule="evenodd"
     d="M 10.93411,8.7685895 C 10.445709,8.9942456 10.031186,9.286094 9.6656321,9.65617 9.2971775,10.023237 8.9439932,10.309068 8.7597232,10.967984 8.5661544,11.620882 8.5017453,12.472358 8.5415851,13.558515 l -4.5637541,0 c 0.1566295,0.565646 0.4300487,1.007931 0.8322862,1.350928 0.3962659,0.33698 0.8875673,0.565645 1.5570817,0.67396 0.6633721,0.105306 1.7137112,0.09327 2.3925243,-0.07221 0.6756567,-0.180524 1.2068833,-0.511487 1.6277188,-0.992886 l 2.137532,1.844362 c -0.884497,0.872453 -1.520228,1.606588 -1.953262,2.271605 -0.439177,0.64688 -0.7677919,0.986952 -0.6173047,1.633666 0.1504867,0.646881 0.6141477,1.197481 1.5232137,2.232575 0.905994,1.035092 2.180614,2.313726 3.872741,3.905437 -2.155874,0.956698 -3.983303,1.702868 -5.577239,2.307625 -1.5908645,0.595816 -2.8316159,1.128282 -3.9126667,1.239605 -1.0933354,0.09319 -1.993102,-0.556618 -2.5705667,-0.637938 -0.5804505,-0.07212 -0.8660691,-0.06319 -0.8691402,0.177599 0.00307,0.237691 0.1627718,1.01094 0.8691402,1.206508 0.7032119,0.1776 0.8844961,0.631921 3.3137892,-0.111323 2.44772,-0.764305 7.6687042,-3.095918 11.1605362,-4.371627 3.473574,-1.275876 6.603008,-2.331779 9.542286,-3.216351 l -0.727952,-0.318931 c -0.522014,0.144504 -1.471089,0.412198 -2.859256,0.81537 -1.400453,0.40008 -3.200156,0.932712 -5.469664,1.597562 -0.509899,-0.722016 -0.964432,-1.263591 -1.375967,-1.669772 -0.420751,-0.406265 -0.767792,-0.649972 -1.087195,-0.743244 -0.88441,-0.971909 -1.440292,-1.681973 -1.667557,-2.166298 -0.22121,-0.4814 0.141188,-0.520597 0.29176,-0.710064 0.12899,-0.192643 0.09213,-0.08734 0.506658,-0.460339 0.414522,-0.403172 1.492588,-1.311897 1.956247,-1.844362 0.448391,-0.532465 0.780162,-0.785283 0.758664,-1.278802 -0.02763,-0.499367 -0.328614,-1.043951 -0.902923,-1.666762 l 4.96002,0 0.328616,1.34792 0.362397,-1.242613 2.315574,-0.246718 -2.137446,-0.318928 -0.61432,-1.278717 -0.254736,1.170403 -5.684815,-0.0361 C 14.960409,12.722084 14.02686,11.693092 13.179132,10.826573 12.32842,9.954036 11.588268,9.280077 10.93411,8.7685895 z"
     i:knockout="Off"
     id="path95"
     style="fill:#7f7f7f;fill-rule:evenodd"
     inkscape:connector-curvature="0" />
  <path
     clip-rule="evenodd"
     d="m 7.539361,5.3683704 c 1.2698421,0 2.3003893,1.009602 2.3003893,2.253552 0,1.24395 -1.0305472,2.2535516 -2.3003893,2.2535516 -1.2697571,0 -2.3002188,-1.0096016 -2.3002188,-2.2535516 0,-1.24395 1.0304617,-2.253552 2.3002188,-2.253552"
     i:knockout="Off"
     id="path97"
     style="fill:#7f7f7f;fill-rule:evenodd"
     inkscape:connector-curvature="0" />
  <path
     clip-rule="evenodd"
     d="M 10.513274,8.5910734 C 10.024959,8.8167295 9.6103512,9.108578 9.2448823,9.478654 8.8763423,9.842712 8.5231581,10.13757 8.3389733,10.793477 8.1454045,11.446375 8.0809101,12.297851 8.1208352,13.384008 l -4.5637541,0 c 0.1566296,0.568654 0.4299634,1.001914 0.8322862,1.34792 0.3962659,0.336979 0.8875673,0.565644 1.5570817,0.673959 0.663372,0.105306 1.7137111,0.09327 2.3925243,-0.07221 0.6756568,-0.180525 1.2068834,-0.511487 1.6276332,-0.992887 l 2.1375325,1.844278 c -0.884411,0.872621 -1.520142,1.606756 -1.953262,2.271605 -0.4390919,0.649973 -0.7677921,0.977926 -0.6172197,1.633833 0.1534732,0.643789 0.6050197,1.2035 1.5201427,2.235499 0.909065,1.038019 2.177457,2.307626 3.875897,3.902263 -2.155958,0.956865 -3.983303,1.703034 -5.5773238,2.307793 -1.5907791,0.592727 -2.8315306,1.134135 -3.9125814,1.242533 -1.0933354,0.08733 -1.9931874,-0.559547 -2.570652,-0.640867 -0.5804506,-0.08132 -0.8659838,-0.06026 -0.8691403,0.177432 0.00307,0.237859 0.1627718,1.011107 0.8691403,1.206676 0.7032972,0.18345 0.8845814,0.634845 3.3137891,-0.108399 2.4478054,-0.761129 7.6687891,-3.101935 11.1606201,-4.374719 3.476562,-1.275709 6.596868,-2.33178 9.539045,-3.216351 l -0.724796,-0.318927 c -0.522012,0.144503 -1.471088,0.412365 -2.859255,0.815538 -1.400452,0.400079 -3.200157,0.932544 -5.469663,1.59756 -0.509899,-0.722182 -0.964432,-1.263757 -1.375969,-1.669854 -0.420749,-0.406098 -0.767791,-0.649806 -1.087193,-0.743244 -0.890553,-0.974835 -1.431078,-1.672864 -1.667644,-2.163206 -0.233323,-0.484492 0.150574,-0.517421 0.28869,-0.713157 0.126004,-0.192476 0.09828,-0.08717 0.509899,-0.460338 0.414523,-0.403173 1.492587,-1.311731 1.956248,-1.844195 0.448391,-0.532633 0.780163,-0.785283 0.758664,-1.278802 -0.02763,-0.499452 -0.325544,-1.044035 -0.90608,-1.666846 l 4.963007,0 0.325543,1.347919 0.362398,-1.242613 2.31873,-0.246717 -2.137446,-0.318927 -0.614319,-1.278718 -0.254906,1.170403 -5.687717,-0.0361 C 14.533603,12.544568 13.609182,11.515576 12.758383,10.649057 11.907669,9.77652 11.167433,9.10256 10.513274,8.5910734 z"
     i:knockout="Off"
     id="path99"
     style="fill:#782121;fill-rule:evenodd"
     inkscape:connector-curvature="0" />
  <path
     clip-rule="evenodd"
     d="m 7.129872,5.1878455 c 1.2697569,0 2.3003041,1.0096021 2.3003041,2.253552 0,1.24395 -1.0305472,2.2535515 -2.3003041,2.2535515 -1.2697569,0 -2.300304,-1.0096015 -2.300304,-2.2535515 0,-1.2439499 1.0306324,-2.253552 2.300304,-2.253552"
     i:knockout="Off"
     id="path101"
     style="fill:#782121;fill-rule:evenodd"
     inkscape:connector-curvature="0" />
  <path
     clip-rule="evenodd"
     d="m 10.530373,7.853657 c 0.276978,-0.2311454 0.919908,-0.8878931 1.972812,-2.0399527 1.049109,-1.1557285 2.452985,-2.7370585 4.270736,-4.8137011 1.189598,1.8528344 2.06507,3.203019 2.711694,4.0799052 0.631744,0.8732171 0.982712,1.2437845 1.067684,1.1410525 0.672485,-0.660416 1.237728,-1.2217697 1.725389,-1.7134132 0.480274,-0.4916436 0.853203,-0.8989002 1.148859,-1.2217706 1.477762,2.0399527 2.704305,3.7203458 3.779378,5.1402406 1.056703,1.4088883 1.895334,2.4765613 2.54555,3.2617233 L 25.729162,8.0150921 C 25.396665,8.9616885 24.85369,9.438656 24.085152,9.486353 23.301835,9.515703 22.097663,8.4517007 21.129522,8.2609135 20.157998,8.0664581 19.197348,8.6645011 18.332858,8.3416315 17.460978,7.996747 16.777512,6.6575693 15.95366,6.3054498 c -0.831242,-0.3448845 -1.662381,-0.3448845 -2.549141,0 -0.956851,0.5135548 -1.913703,1.0308814 -2.874146,1.5482072 z"
     i:knockout="Off"
     id="path103"
     style="fill:#17057a;fill-rule:evenodd"
     inkscape:connector-curvature="0" />
  <path
     clip-rule="evenodd"
     d="M 14.719728,4.9991912 16.60757,2.6326993 19.895488,7.3656824 C 19.10858,7.3363312 18.428911,7.167558 17.841398,6.8740396 17.242905,6.5695143 16.888139,5.8797464 16.363636,5.5678829 15.831744,5.2560196 15.303444,5.0615634 14.719728,4.9991912 z"
     i:knockout="Off"
     id="path105"
     style="fill:#3d258e;fill-rule:evenodd"
     inkscape:connector-curvature="0" />
  <path
     clip-rule="evenodd"
     d="M 20.963274,7.4464004 23.34627,4.9184732 25.152835,7.4464004 C 24.591183,8.0517821 24.066679,8.3599766 23.508825,8.4260177 22.954663,8.4773837 22.289567,7.9343741 21.868508,7.7729397 21.436159,7.6004976 21.147894,7.5051036 20.963274,7.4464004 z"
     i:knockout="Off"
     id="path107"
     style="fill:#3d258e;fill-rule:evenodd"
     inkscape:connector-curvature="0" />
</svg>
