<?xml version="1.0" encoding="UTF-8" standalone="no"?>
<!-- Created with Inkscape (http://www.inkscape.org/) -->

<svg
   xmlns:dc="http://purl.org/dc/elements/1.1/"
   xmlns:cc="http://creativecommons.org/ns#"
   xmlns:rdf="http://www.w3.org/1999/02/22-rdf-syntax-ns#"
   xmlns:svg="http://www.w3.org/2000/svg"
   xmlns="http://www.w3.org/2000/svg"
   xmlns:sodipodi="http://sodipodi.sourceforge.net/DTD/sodipodi-0.dtd"
   xmlns:inkscape="http://www.inkscape.org/namespaces/inkscape"
   width="32px"
   height="32px"
   id="svg13389"
   version="1.1"
   inkscape:version="0.48.2 r9819"
   sodipodi:docname="New document 48">
  <defs
     id="defs13391" />
  <sodipodi:namedview
     id="base"
     pagecolor="#ffffff"
     bordercolor="#666666"
     borderopacity="1.0"
     inkscape:pageopacity="0.0"
     inkscape:pageshadow="2"
     inkscape:zoom="11.197802"
     inkscape:cx="16"
     inkscape:cy="16"
     inkscape:current-layer="layer1"
     showgrid="true"
     inkscape:grid-bbox="true"
     inkscape:document-units="px"
     inkscape:window-width="717"
     inkscape:window-height="667"
     inkscape:window-x="2020"
     inkscape:window-y="100"
     inkscape:window-maximized="0" />
  <metadata
     id="metadata13394">
    <rdf:RDF>
      <cc:Work
         rdf:about="">
        <dc:format>image/svg+xml</dc:format>
        <dc:type
           rdf:resource="http://purl.org/dc/dcmitype/StillImage" />
        <dc:title></dc:title>
      </cc:Work>
    </rdf:RDF>
  </metadata>
  <g
     id="layer1"
     inkscape:label="Layer 1"
     inkscape:groupmode="layer">
    <path
       style="fill:#000000;stroke:#ffffff;stroke-width:0.75;stroke-opacity:1"
       inkscape:connector-curvature="0"
       id="path2285"
       d="M 9.1912308,29.678763 8.7636323,31.507524 5.9924322,31.49977 10.737183,11.266905 7.9988774,11.243643 V 3.8820074 L 16.00411,0.492388 24.009344,3.8820074 v 7.3616356 l -2.738306,0.02326 4.73653,20.232865 -2.76298,0.0078 -0.427598,-1.820998 -6.816985,-7.846975 -6.8087742,7.839212 z m 1.1142382,-4.764096 4.193805,-4.822346 -2.417601,-2.768376 -1.776204,7.590722 z M 19.28515,14.57886 18.512175,11.259132 h -5.012013 l -0.772976,3.315842 3.276924,3.793427 3.28104,-3.789541 z m 0.641398,2.745085 -2.417601,2.768376 4.193805,4.822346 -1.776204,-7.590722 z M 11.004444,4.9108873 v 3.7157633 h 9.999343 V 4.9108873 h -9.999343 z" />
  </g>
</svg>
