<?xml version="1.0" encoding="UTF-8" standalone="no"?>
<!-- Created with Inkscape (http://www.inkscape.org/) -->

<svg
   xmlns:dc="http://purl.org/dc/elements/1.1/"
   xmlns:cc="http://creativecommons.org/ns#"
   xmlns:rdf="http://www.w3.org/1999/02/22-rdf-syntax-ns#"
   xmlns:svg="http://www.w3.org/2000/svg"
   xmlns="http://www.w3.org/2000/svg"
   xmlns:sodipodi="http://sodipodi.sourceforge.net/DTD/sodipodi-0.dtd"
   xmlns:inkscape="http://www.inkscape.org/namespaces/inkscape"
   id="svg2"
   sodipodi:version="0.32"
   inkscape:version="0.48.2 r9819"
   width="32"
   height="32"
   version="1.0"
   sodipodi:docname="transportation.svg"
   inkscape:output_extension="org.inkscape.output.svg.inkscape">
  <metadata
     id="metadata7">
    <rdf:RDF>
      <cc:Work
         rdf:about="">
        <dc:format>image/svg+xml</dc:format>
        <dc:type
           rdf:resource="http://purl.org/dc/dcmitype/StillImage" />
      </cc:Work>
    </rdf:RDF>
  </metadata>
  <defs
     id="defs5" />
  <sodipodi:namedview
     inkscape:window-height="742"
     inkscape:window-width="1024"
     inkscape:pageshadow="2"
     inkscape:pageopacity="0.0"
     guidetolerance="10.0"
     gridtolerance="10.0"
     objecttolerance="10.0"
     borderopacity="1.0"
     bordercolor="#666666"
     pagecolor="#ffffff"
     id="base"
     width="566.434px"
     height="566.43px"
     inkscape:zoom="8"
     inkscape:cx="14.39177"
     inkscape:cy="16.010857"
     inkscape:window-x="816"
     inkscape:window-y="95"
     inkscape:current-layer="svg2"
     showgrid="false"
     inkscape:window-maximized="0" />
  <rect
     style="fill:#ffffff;fill-opacity:1;fill-rule:evenodd;stroke:#000000;stroke-width:0.73004341;stroke-linecap:round;stroke-linejoin:miter;stroke-miterlimit:4;stroke-opacity:1;stroke-dasharray:none"
     id="rect3809"
     width="31.269957"
     height="31.269957"
     x="0.36502171"
     y="0.36502171"
     rx="5.4979944"
     ry="4.1557107" />
  <g
     id="g3020"
     transform="matrix(0.05526653,0,0,0.05364511,0.15201218,0.82065506)">
    <path
       inkscape:connector-curvature="0"
       sodipodi:nodetypes="cccccccccccccccccc"
       d="m 408.27118,254.10243 c 23.49314,0.14245 62.70717,6.80909 88.49244,17.48333 11.09574,5.58776 20.08849,14.81227 22.20871,24.57133 l 11.86759,90.15048 0.43894,129.91388 -20.28409,0.38639 0,18.78159 c 1.07706,24.3218 -35.96751,25.27894 -36.85889,-0.23625 l -0.35599,-18.86747 -131.01742,2.6e-4 -0.35599,18.86746 c -0.89138,25.51519 -37.93595,24.55805 -36.85889,0.23626 l 0,-18.78159 -20.28409,-0.3864 0.43894,-129.91387 11.86759,-90.15048 c 2.12022,-9.75907 11.11298,-18.98358 22.20871,-24.57134 25.60607,-11.08704 59.93536,-17.22824 88.49244,-17.48358 z"
       style="fill:#000000;fill-rule:evenodd;stroke:#000000;stroke-width:1.41663778;stroke-linecap:butt;stroke-linejoin:miter;stroke-miterlimit:4;stroke-opacity:1"
       id="path2256" />
    <path
       transform="matrix(0.7333925,0,0,0.7078052,20.806594,217.61848)"
       d="m 434.64607,341.11401 c 0,12.80287 -10.01666,23.18164 -22.37285,23.18164 -12.35618,0 -22.37285,-10.37877 -22.37285,-23.18164 0,-12.80286 10.01667,-23.18163 22.37285,-23.18163 12.35619,0 22.37285,10.37877 22.37285,23.18163 z"
       sodipodi:ry="23.181637"
       sodipodi:rx="22.37285"
       sodipodi:cy="341.11401"
       sodipodi:cx="412.27322"
       id="path4226"
       style="fill:#ffffff;fill-opacity:1;stroke:#000000;stroke-width:2;stroke-miterlimit:4;stroke-opacity:1;stroke-dasharray:none;stroke-dashoffset:0"
       sodipodi:type="arc" />
    <path
       transform="matrix(0.7333925,0,0,0.7078052,189.65627,217.61833)"
       d="m 434.64607,341.11401 c 0,12.80287 -10.01666,23.18164 -22.37285,23.18164 -12.35618,0 -22.37285,-10.37877 -22.37285,-23.18164 0,-12.80286 10.01667,-23.18163 22.37285,-23.18163 12.35619,0 22.37285,10.37877 22.37285,23.18163 z"
       sodipodi:ry="23.181637"
       sodipodi:rx="22.37285"
       sodipodi:cy="341.11401"
       sodipodi:cx="412.27322"
       id="path7262"
       style="fill:#ffffff;fill-opacity:1;stroke:#000000;stroke-width:2;stroke-miterlimit:4;stroke-opacity:1;stroke-dasharray:none;stroke-dashoffset:0"
       sodipodi:type="arc" />
    <rect
       rx="5.6703091"
       ry="4.2527318"
       y="279.61896"
       x="352.61929"
       height="12.285669"
       width="111.51608"
       id="rect7264"
       style="fill:#ffffff;fill-opacity:1;stroke:#000000;stroke-width:1.41663778;stroke-miterlimit:4;stroke-opacity:1;stroke-dasharray:none;stroke-dashoffset:0" />
    <path
       inkscape:connector-curvature="0"
       sodipodi:nodetypes="cccccccccc"
       d="m 407.74438,309.44757 81.03817,0 c 3.14135,0 7.56041,4.49561 7.56041,6.85163 4.28418,24.58706 7.34161,48.56072 10.39557,72.53267 0.70879,7.31753 -3.00148,9.21426 -12.52194,8.74173 l -172.54775,-0.0595 c -9.52045,0.47253 -13.23072,-1.4242 -12.52193,-8.74173 3.05396,-23.97195 6.11138,-47.94562 10.39557,-72.53268 0,-2.35602 4.41906,-6.85163 7.56041,-6.85163 l 81.03818,0"
       style="fill:#ffffff;fill-opacity:1;stroke:#000000;stroke-width:1.41663778;stroke-miterlimit:4;stroke-opacity:1;stroke-dashoffset:0"
       id="rect7266" />
    <path
       inkscape:connector-curvature="0"
       sodipodi:nodetypes="ccccccccccccccccccccccccc"
       d="m 173.42749,342.81059 c 6.04271,0.92071 7.22432,3.33714 7.34269,7.54666 l 0,12.44178 27.5351,0.40793 c 10.40729,-0.36819 19.35294,2.99893 24.88357,15.09331 l 19.98845,49.97111 c 14.54943,4.01128 20.87665,14.58122 21.21222,23.25187 l 0,65.47234 -19.17259,0 0,22.02808 c 0.92982,20.99679 -33.49639,21.82308 -34.2659,-0.20396 l -0.40793,-21.62015 -124.464367,-2e-4 -0.407922,21.62015 c -0.769518,22.02705 -35.195723,21.20076 -34.265904,0.20396 l 0,-22.02808 -19.172589,0 0,-65.47234 c 0.335564,-8.67065 6.662792,-19.24059 21.212224,-23.25186 l 19.988443,-49.97111 c 5.53063,-12.09439 14.476279,-15.46151 24.883575,-15.09331 l 27.5351,-0.40793 0,-12.44179 c 0.11836,-4.20952 1.29997,-6.62594 7.34269,-7.54666 l 30.23314,2e-4 z"
       style="fill:#000000;fill-rule:evenodd;stroke:#000000;stroke-width:1.2229712;stroke-linecap:butt;stroke-linejoin:miter;stroke-miterlimit:4;stroke-opacity:1"
       id="path9347" />
    <path
       inkscape:connector-curvature="0"
       sodipodi:nodetypes="ccccccc"
       id="path3253"
       d="m 83.518324,427.24863 149.754116,0.20396 -14.38742,-38.77154 c -3.51384,-7.81223 -7.02479,-7.98088 -15.28775,-7.7881 l -90.28429,-0.28845 c -7.4447,-0.30197 -13.04224,0.3128 -15.57621,8.9419 l -14.218446,37.70223 z"
       style="fill:#ffffff;fill-opacity:1;fill-rule:evenodd;stroke:#000000;stroke-width:1.2229712;stroke-linecap:butt;stroke-linejoin:miter;stroke-miterlimit:4;stroke-opacity:1;stroke-dasharray:none" />
    <path
       transform="matrix(0.6152835,0,0,0.6114138,-15.321528,254.48534)"
       d="m 438.62402,341.11401 c 0,14.64525 -11.79765,26.51758 -26.3508,26.51758 -14.55314,0 -26.35079,-11.87233 -26.35079,-26.51758 0,-14.64525 11.79765,-26.51757 26.35079,-26.51757 14.55315,0 26.3508,11.87232 26.3508,26.51757 z"
       sodipodi:ry="26.517572"
       sodipodi:rx="26.350796"
       sodipodi:cy="341.11401"
       sodipodi:cx="412.27322"
       id="path4224"
       style="fill:#ffffff;fill-opacity:1;stroke:#000000;stroke-width:2;stroke-miterlimit:4;stroke-opacity:1;stroke-dasharray:none;stroke-dashoffset:0"
       sodipodi:type="arc" />
    <path
       transform="matrix(0.6152835,0,0,0.6114138,-174.49974,254.48533)"
       d="m 438.62402,341.11401 c 0,14.64525 -11.79765,26.51758 -26.3508,26.51758 -14.55314,0 -26.35079,-11.87233 -26.35079,-26.51758 0,-14.64525 11.79765,-26.51757 26.35079,-26.51757 14.55315,0 26.3508,11.87232 26.3508,26.51757 z"
       sodipodi:ry="26.517572"
       sodipodi:rx="26.350796"
       sodipodi:cy="341.11401"
       sodipodi:cx="412.27322"
       id="path9351"
       style="fill:#ffffff;fill-opacity:1;stroke:#000000;stroke-width:2;stroke-miterlimit:4;stroke-opacity:1;stroke-dasharray:none;stroke-dashoffset:0"
       sodipodi:type="arc" />
    <rect
       id="rect4"
       height="211.15059"
       rx="41.590267"
       width="172.75957"
       y="38.717716"
       x="69.447441"
       style="fill:#000000" />
    <rect
       id="rect6"
       rx="19.195509"
       height="63.985031"
       width="127.97006"
       y="77.108727"
       x="91.842194"
       style="fill:#ffffff" />
    <rect
       id="rect8"
       rx="6.3985028"
       height="25.594011"
       width="51.188023"
       y="45.116219"
       x="130.23322"
       style="fill:#ffffff" />
    <circle
       id="circle10"
       r="15"
       cy="20"
       cx="135"
       sodipodi:cx="135"
       sodipodi:cy="20"
       sodipodi:rx="15"
       sodipodi:ry="15"
       style="fill:#000000"
       transform="matrix(0.63985029,0,0,0.63985029,56.65044,13.123702)"
       d="m 150,20 c 0,8.284271 -6.71573,15 -15,15 -8.28427,0 -15,-6.715729 -15,-15 0,-8.284271 6.71573,-15 15,-15 8.28427,0 15,6.715729 15,15 z" />
    <circle
       id="circle12"
       r="15"
       cy="20"
       cx="175"
       sodipodi:cx="175"
       sodipodi:cy="20"
       sodipodi:rx="15"
       sodipodi:ry="15"
       style="fill:#000000"
       transform="matrix(0.63985029,0,0,0.63985029,56.65044,13.123702)"
       d="m 190,20 c 0,8.284271 -6.71573,15 -15,15 -8.28427,0 -15,-6.715729 -15,-15 0,-8.284271 6.71573,-15 15,-15 8.28427,0 15,6.715729 15,15 z" />
    <circle
       id="circle14"
       r="25"
       cy="315"
       cx="85"
       sodipodi:cx="85"
       sodipodi:cy="315"
       sodipodi:rx="25"
       sodipodi:ry="25"
       style="fill:#ffffff"
       transform="matrix(0.63985029,0,0,0.63985029,56.65044,13.123702)"
       d="m 110,315 c 0,13.80712 -11.192881,25 -25,25 -13.807119,0 -25,-11.19288 -25,-25 0,-13.80712 11.192881,-25 25,-25 13.807119,0 25,11.19288 25,25 z" />
    <circle
       id="circle16"
       r="25"
       cy="315"
       cx="225"
       sodipodi:cx="225"
       sodipodi:cy="315"
       sodipodi:rx="25"
       sodipodi:ry="25"
       style="fill:#ffffff"
       transform="matrix(0.63985029,0,0,0.63985029,56.65044,13.123702)"
       d="m 250,315 c 0,13.80712 -11.19288,25 -25,25 -13.80712,0 -25,-11.19288 -25,-25 0,-13.80712 11.19288,-25 25,-25 13.80712,0 25,11.19288 25,25 z" />
    <polygon
       id="polygon18"
       points="220,400 90,400 45,475 0,475 70,360 240,360 310,475 265,475 "
       style="fill:#000000"
       transform="matrix(0.63985029,0,0,0.63985029,56.65044,13.123702)" />
    <g
       id="g3"
       transform="matrix(0,0.74924672,-0.74924672,0,508.08881,7.4377134)">
      <path
         id="path5"
         d="m 134.875,19.74 c 0.04,-22.771 34.363,-22.771 34.34,0.642 v 95.563 L 303,196.354 V 231.66 L 169.856,187.839 v 71.424 l 30.813,24.072 v 27.923 l -47.501,-14.764 -47.501,14.764 v -27.923 l 30.491,-24.072 V 187.839 L 3,231.66 V 196.354 L 134.875,115.945 V 19.74 z"
         inkscape:connector-curvature="0" />
    </g>
  </g>
</svg>
