<?xml version="1.0" encoding="UTF-8" standalone="no"?>
<!-- Created with Inkscape (http://www.inkscape.org/) -->

<svg
   xmlns:dc="http://purl.org/dc/elements/1.1/"
   xmlns:cc="http://creativecommons.org/ns#"
   xmlns:rdf="http://www.w3.org/1999/02/22-rdf-syntax-ns#"
   xmlns:svg="http://www.w3.org/2000/svg"
   xmlns="http://www.w3.org/2000/svg"
   xmlns:sodipodi="http://sodipodi.sourceforge.net/DTD/sodipodi-0.dtd"
   xmlns:inkscape="http://www.inkscape.org/namespaces/inkscape"
   width="32px"
   height="32px"
   id="svg3009"
   version="1.1"
   inkscape:version="0.48.2 r9819"
   sodipodi:docname="New document 1">
  <defs
     id="defs3011" />
  <sodipodi:namedview
     id="base"
     pagecolor="#ffffff"
     bordercolor="#666666"
     borderopacity="1.0"
     inkscape:pageopacity="0.0"
     inkscape:pageshadow="2"
     inkscape:zoom="8"
     inkscape:cx="25.484004"
     inkscape:cy="16"
     inkscape:current-layer="layer1"
     showgrid="true"
     inkscape:grid-bbox="true"
     inkscape:document-units="px"
     inkscape:window-width="983"
     inkscape:window-height="909"
     inkscape:window-x="2632"
     inkscape:window-y="73"
     inkscape:window-maximized="0">
    <inkscape:grid
       type="xygrid"
       id="grid3874" />
  </sodipodi:namedview>
  <metadata
     id="metadata3014">
    <rdf:RDF>
      <cc:Work
         rdf:about="">
        <dc:format>image/svg+xml</dc:format>
        <dc:type
           rdf:resource="http://purl.org/dc/dcmitype/StillImage" />
        <dc:title></dc:title>
      </cc:Work>
    </rdf:RDF>
  </metadata>
  <g
     id="layer1"
     inkscape:label="Layer 1"
     inkscape:groupmode="layer">
    <g
       id="g3880"
       transform="matrix(1.3801792,0,0,1.3801792,-1.519575,-10.231055)">
      <path
         transform="translate(-2,4)"
         d="m 7.5907756,10.433268 c 0,1.011076 -0.6996924,1.830716 -1.5628067,1.830716 -0.8631143,0 -1.5628067,-0.81964 -1.5628067,-1.830716 0,-1.0110771 0.6996924,-1.8307168 1.5628067,-1.8307168 0.8631143,0 1.5628067,0.8196397 1.5628067,1.8307168 z"
         sodipodi:ry="1.8307164"
         sodipodi:rx="1.5628067"
         sodipodi:cy="10.433268"
         sodipodi:cx="6.0279689"
         id="path3017"
         style="fill:#800080;fill-opacity:1;fill-rule:evenodd;stroke:#000000;stroke-width:0.1;stroke-linecap:round;stroke-linejoin:miter;stroke-miterlimit:4;stroke-opacity:1;stroke-dasharray:none"
         sodipodi:type="arc" />
      <path
         d="m 7.5907756,10.433268 c 0,1.011076 -0.6996924,1.830716 -1.5628067,1.830716 -0.8631143,0 -1.5628067,-0.81964 -1.5628067,-1.830716 0,-1.0110771 0.6996924,-1.8307168 1.5628067,-1.8307168 0.8631143,0 1.5628067,0.8196397 1.5628067,1.8307168 z"
         sodipodi:ry="1.8307164"
         sodipodi:rx="1.5628067"
         sodipodi:cy="10.433268"
         sodipodi:cx="6.0279689"
         id="path3017-1"
         style="fill:#800080;fill-opacity:1;fill-rule:evenodd;stroke:#000000;stroke-width:0.1;stroke-linecap:round;stroke-linejoin:miter;stroke-miterlimit:4;stroke-opacity:1;stroke-dasharray:none"
         sodipodi:type="arc"
         transform="translate(1.3488713,4.1339548)" />
      <path
         d="m 7.5907756,10.433268 c 0,1.011076 -0.6996924,1.830716 -1.5628067,1.830716 -0.8631143,0 -1.5628067,-0.81964 -1.5628067,-1.830716 0,-1.0110771 0.6996924,-1.8307168 1.5628067,-1.8307168 0.8631143,0 1.5628067,0.8196397 1.5628067,1.8307168 z"
         sodipodi:ry="1.8307164"
         sodipodi:rx="1.5628067"
         sodipodi:cy="10.433268"
         sodipodi:cx="6.0279689"
         id="path3017-7"
         style="fill:#800080;fill-opacity:1;fill-rule:evenodd;stroke:#000000;stroke-width:0.1;stroke-linecap:round;stroke-linejoin:miter;stroke-miterlimit:4;stroke-opacity:1;stroke-dasharray:none"
         sodipodi:type="arc"
         transform="translate(4.3851815,4.0446516)" />
      <path
         d="m 7.5907756,10.433268 c 0,1.011076 -0.6996924,1.830716 -1.5628067,1.830716 -0.8631143,0 -1.5628067,-0.81964 -1.5628067,-1.830716 0,-1.0110771 0.6996924,-1.8307168 1.5628067,-1.8307168 0.8631143,0 1.5628067,0.8196397 1.5628067,1.8307168 z"
         sodipodi:ry="1.8307164"
         sodipodi:rx="1.5628067"
         sodipodi:cy="10.433268"
         sodipodi:cx="6.0279689"
         id="path3017-4"
         style="fill:#800080;fill-opacity:1;fill-rule:evenodd;stroke:#000000;stroke-width:0.1;stroke-linecap:round;stroke-linejoin:miter;stroke-miterlimit:4;stroke-opacity:1;stroke-dasharray:none"
         sodipodi:type="arc"
         transform="translate(-0.4371935,7.6167812)" />
      <path
         d="m 7.5907756,10.433268 c 0,1.011076 -0.6996924,1.830716 -1.5628067,1.830716 -0.8631143,0 -1.5628067,-0.81964 -1.5628067,-1.830716 0,-1.0110771 0.6996924,-1.8307168 1.5628067,-1.8307168 0.8631143,0 1.5628067,0.8196397 1.5628067,1.8307168 z"
         sodipodi:ry="1.8307164"
         sodipodi:rx="1.5628067"
         sodipodi:cy="10.433268"
         sodipodi:cx="6.0279689"
         id="path3017-0"
         style="fill:#800080;fill-opacity:1;fill-rule:evenodd;stroke:#000000;stroke-width:0.1;stroke-linecap:round;stroke-linejoin:miter;stroke-miterlimit:4;stroke-opacity:1;stroke-dasharray:none"
         sodipodi:type="arc"
         transform="translate(2.8670266,7.5274784)" />
      <path
         d="m 7.5907756,10.433268 c 0,1.011076 -0.6996924,1.830716 -1.5628067,1.830716 -0.8631143,0 -1.5628067,-0.81964 -1.5628067,-1.830716 0,-1.0110771 0.6996924,-1.8307168 1.5628067,-1.8307168 0.8631143,0 1.5628067,0.8196397 1.5628067,1.8307168 z"
         sodipodi:ry="1.8307164"
         sodipodi:rx="1.5628067"
         sodipodi:cy="10.433268"
         sodipodi:cx="6.0279689"
         id="path3017-9"
         style="fill:#800080;fill-opacity:1;fill-rule:evenodd;stroke:#000000;stroke-width:0.1;stroke-linecap:round;stroke-linejoin:miter;stroke-miterlimit:4;stroke-opacity:1;stroke-dasharray:none"
         sodipodi:type="arc"
         transform="translate(1.4381743,11.278214)" />
      <path
         sodipodi:nodetypes="cccc"
         inkscape:connector-curvature="0"
         id="path3065"
         d="M 7.3768402,12.423945 8.268746,10.142994 9.430815,8.583905 10.591757,8.137389"
         style="fill:none;stroke:#000000;stroke-width:1px;stroke-linecap:butt;stroke-linejoin:miter;stroke-opacity:1" />
    </g>
    <g
       id="g3876">
      <path
         inkscape:connector-curvature="0"
         sodipodi:nodetypes="ccccc"
         id="rect3771"
         d="m 21.882238,0.47666893 2.297989,0 0,7.98377177 -2.297989,0 0,-7.98377177 z"
         style="fill:#206952;fill-opacity:1;stroke:#206952;stroke-width:0.9533366;stroke-linecap:round;stroke-linejoin:round;stroke-miterlimit:4;stroke-opacity:1;stroke-dashoffset:0" />
      <path
         inkscape:connector-curvature="0"
         sodipodi:nodetypes="cszscccc"
         id="path6978"
         d="M 19,12.232581 C 18.935542,11.850176 20.584273,9.9382818 21.803729,8.9106968 22.520295,8.3068756 22.891191,5.7322471 23,5.7320903 23.108809,5.7319335 23.703392,8.4297086 24.196271,8.9106968 25.282352,9.9705748 26.87701,11.930431 27,12.232581 L 27,30 c -1.741115,0.951531 -7.002259,0.767384 -8,0 z"
         style="fill:#206952;fill-opacity:1;stroke:#206952;stroke-width:2.88199997;stroke-linecap:round;stroke-linejoin:round;stroke-miterlimit:4;stroke-opacity:1;stroke-dasharray:none;stroke-dashoffset:0" />
    </g>
  </g>
</svg>
