<?xml version="1.0" encoding="UTF-8" standalone="no"?>
<!-- Created with Inkscape (http://www.inkscape.org/) -->

<svg
   xmlns:dc="http://purl.org/dc/elements/1.1/"
   xmlns:cc="http://creativecommons.org/ns#"
   xmlns:rdf="http://www.w3.org/1999/02/22-rdf-syntax-ns#"
   xmlns:svg="http://www.w3.org/2000/svg"
   xmlns="http://www.w3.org/2000/svg"
   xmlns:sodipodi="http://sodipodi.sourceforge.net/DTD/sodipodi-0.dtd"
   xmlns:inkscape="http://www.inkscape.org/namespaces/inkscape"
   width="32px"
   height="32px"
   id="svg16744"
   version="1.1"
   inkscape:version="0.48.2 r9819"
   sodipodi:docname="New document 60">
  <defs
     id="defs16746" />
  <sodipodi:namedview
     id="base"
     pagecolor="#ffffff"
     bordercolor="#666666"
     borderopacity="1.0"
     inkscape:pageopacity="0.0"
     inkscape:pageshadow="2"
     inkscape:zoom="7.71875"
     inkscape:cx="16"
     inkscape:cy="15.333333"
     inkscape:current-layer="layer1"
     showgrid="false"
     inkscape:grid-bbox="true"
     inkscape:document-units="px"
     inkscape:window-width="966"
     inkscape:window-height="754"
     inkscape:window-x="2020"
     inkscape:window-y="100"
     inkscape:window-maximized="0">
  </sodipodi:namedview>
  <metadata
     id="metadata16749">
    <rdf:RDF>
      <cc:Work
         rdf:about="">
        <dc:format>image/svg+xml</dc:format>
        <dc:type
           rdf:resource="http://purl.org/dc/dcmitype/StillImage" />
        <dc:title></dc:title>
      </cc:Work>
    </rdf:RDF>
  </metadata>
  <g
     id="layer1"
     inkscape:label="Layer 1"
     inkscape:groupmode="layer">
    <path
       d="m 4.19933,22.598894 c 0.3513792,0.10254 1.2144049,0.01626 0.9186007,-0.560653 C 4.9538136,21.718112 4.1816297,21.315105 3.8405575,21.219521 3.3265993,21.075432 2.4630864,21.700784 3.1229933,22.101796 L 2.9794804,22.52788 c -0.5526256,-0.261329 -0.710123,-1.061087 -0.6651319,-1.63332 0.031618,-0.402431 0.398806,-0.826802 0.5442675,-1.207226 0.3973731,-1.039287 0.723754,-2.060669 1.0328167,-3.124601 0.1235487,-0.425299 0.1601433,-1.23017 0.5337505,-1.510596 0.3500609,-0.262823 0.8876609,-0.3011 1.2807451,-0.494686 0.2897481,-0.142737 0.4790448,-0.436378 0.790677,-0.531744 0.6691248,-0.204732 1.3283535,-0.151973 1.6493183,-0.871622 0.6776645,1.01244 1.2433863,1.955851 1.3558353,3.195606 0.079952,0.881349 -0.5279905,1.784999 -0.7332108,2.627504 -0.1434364,0.588918 -0.099238,1.188774 -0.2555224,1.775338 C 8.3180645,21.483979 7.9378281,22.16003 7.7523427,22.88295 7.6404,23.319044 7.740689,23.815215 7.6031558,24.232128 7.356966,24.978417 5.9514782,25.42438 6.1185946,26.362252 c 0.077182,0.4334 0.5878257,0.518613 0.9509827,0.592188 0.8432812,0.170785 1.7510687,0.06541 2.5832216,-0.06352 0.27712,-0.04301 0.6135881,0.01012 0.8299361,-0.204023 0.522307,-0.516835 -0.09476,-1.493494 0.07441,-2.099589 0.121189,-0.434393 0.536377,-0.812897 0.753223,-1.207236 0.471431,-0.857555 0.87061,-1.760921 1.140919,-2.698518 l 0.07174,0 c 0.01719,0.826463 0.218784,1.862262 0.539176,2.627504 0.202278,0.483182 0.723161,1.176419 0.708948,1.704334 -0.02436,0.904708 -1.4095,1.496462 -0.74519,2.555138 0.668342,1.064991 2.247977,-0.0066 3.084877,-0.19387 0.458804,-0.102758 1.074044,0.03176 1.29921,-0.51797 0.310849,-0.75871 -0.320106,-1.477934 -0.425944,-2.198368 -0.121199,-0.824468 0.03534,-1.653984 -0.117321,-2.485476 -0.111646,-0.608515 -0.612146,-1.316593 -0.595362,-1.917366 0.01175,-0.422746 0.315013,-0.923322 0.413459,-1.349264 l 2.726734,1.267237 1.148103,0.650129 c 0.0048,0.603618 -0.01165,1.324836 0.09533,1.917375 0.0512,0.282987 0.319675,0.568886 0.237803,0.861393 -0.159656,0.569954 -1.569308,1.15475 -1.252079,1.758652 0.174367,0.331919 0.655714,0.445605 0.990673,0.530827 0.848296,0.215878 3.070796,0.540195 3.694433,-0.246989 0.274828,-0.346902 0.252007,-0.924098 0.252151,-1.341588 4.39e-4,-1.052275 0.112516,-2.167123 -0.143513,-3.195614 0.923357,0.563498 1.133316,1.695881 1.596141,2.627503 0.160305,0.322692 0.494328,0.834413 0.385051,1.206168 -0.168636,0.573368 -1.897018,1.468632 -1.097295,2.242752 0.221717,0.214677 0.624774,0.230653 0.910004,0.316575 0.825342,0.248548 3.33056,0.654184 3.720702,-0.428919 0.36459,-1.012232 0.271522,-2.799708 0.01777,-3.833672 -0.14932,-0.608515 -0.496191,-1.136355 -0.556829,-1.775338 -0.05578,-0.587916 0.355764,-1.182941 0.399685,-1.775337 0.06104,-0.824686 -0.196547,-1.548883 -0.222156,-2.343449 -0.01643,-0.511155 0.156857,-1.03751 0.156857,-1.562306 0.788165,2.06757 -0.03687,4.292133 0.536807,6.391231 0.08349,0.305571 0.116175,2.03851 0.734634,1.863963 0.231919,-0.06541 0.300523,-0.463368 0.253947,-0.656737 -0.203071,-0.843781 -0.57089,-1.589777 -0.572896,-2.485476 -9.55e-4,-0.445397 0.204647,-0.904425 0.254949,-1.349255 0.296999,-2.626936 0.711824,-6.280162 -1.566509,-8.206404 C 28.369446,10.480027 27.269,9.852681 26.156632,9.1415207 25.286165,8.5850091 24.395313,7.9352868 23.35815,7.7137943 22.597391,7.5513279 21.763433,7.7914062 20.990198,7.7542576 19.304209,7.6731495 17.648156,7.3573286 15.967268,7.201054 15.202344,7.1299662 14.44467,7.2759244 13.671072,7.1319531 12.008839,6.8225623 10.779437,5.57946 9.1504275,5.1728791 8.6344346,5.044105 7.7402113,5.1323241 7.2130137,5.2240218 6.7151701,5.3106148 6.4515379,5.6557015 6.0638411,5.9288951 4.937976,6.7223278 3.4614578,7.99465 2.83805,9.2483967 2.4553586,10.018045 2.4143318,11.046584 2.1688297,11.875958 1.8109837,13.084821 1.131189,14.090586 0.92998064,15.355629 0.71924869,16.680532 1.0420762,18.07225 1.0419902,19.403402 c -6.69e-5,1.000726 -0.56572182,2.224855 -0.20568837,3.195615 0.50326927,1.356996 3.17489687,1.80537 3.36295177,0 z"
       style="fill:#4d4d4d;fill-opacity:1;stroke:#ffffff;stroke-width:1.43283582;stroke-opacity:1"
       id="path17267"
       inkscape:connector-curvature="0" />
    <path
       inkscape:connector-curvature="0"
       id="path6"
       style="fill:#4d4d4d;fill-opacity:1;stroke:none"
       d="m 4.19933,22.598894 c 0.3513792,0.10254 1.2144049,0.01626 0.9186007,-0.560653 C 4.9538136,21.718112 4.1816297,21.315105 3.8405575,21.219521 3.3265993,21.075432 2.4630864,21.700784 3.1229933,22.101796 L 2.9794804,22.52788 c -0.5526256,-0.261329 -0.710123,-1.061087 -0.6651319,-1.63332 0.031618,-0.402431 0.398806,-0.826802 0.5442675,-1.207226 0.3973731,-1.039287 0.723754,-2.060669 1.0328167,-3.124601 0.1235487,-0.425299 0.1601433,-1.23017 0.5337505,-1.510596 0.3500609,-0.262823 0.8876609,-0.3011 1.2807451,-0.494686 0.2897481,-0.142737 0.4790448,-0.436378 0.790677,-0.531744 0.6691248,-0.204732 1.3283535,-0.151973 1.6493183,-0.871622 0.6776645,1.01244 1.2433863,1.955851 1.3558353,3.195606 0.079952,0.881349 -0.5279905,1.784999 -0.7332108,2.627504 -0.1434364,0.588918 -0.099238,1.188774 -0.2555224,1.775338 C 8.3180645,21.483979 7.9378281,22.16003 7.7523427,22.88295 7.6404,23.319044 7.740689,23.815215 7.6031558,24.232128 7.356966,24.978417 5.9514782,25.42438 6.1185946,26.362252 c 0.077182,0.4334 0.5878257,0.518613 0.9509827,0.592188 0.8432812,0.170785 1.7510687,0.06541 2.5832216,-0.06352 0.27712,-0.04301 0.6135881,0.01012 0.8299361,-0.204023 0.522307,-0.516835 -0.09476,-1.493494 0.07441,-2.099589 0.121189,-0.434393 0.536377,-0.812897 0.753223,-1.207236 0.471431,-0.857555 0.87061,-1.760921 1.140919,-2.698518 l 0.07174,0 c 0.01719,0.826463 0.218784,1.862262 0.539176,2.627504 0.202278,0.483182 0.723161,1.176419 0.708948,1.704334 -0.02436,0.904708 -1.4095,1.496462 -0.74519,2.555138 0.668342,1.064991 2.247977,-0.0066 3.084877,-0.19387 0.458804,-0.102758 1.074044,0.03176 1.29921,-0.51797 0.310849,-0.75871 -0.320106,-1.477934 -0.425944,-2.198368 -0.121199,-0.824468 0.03534,-1.653984 -0.117321,-2.485476 -0.111646,-0.608515 -0.612146,-1.316593 -0.595362,-1.917366 0.01175,-0.422746 0.315013,-0.923322 0.413459,-1.349264 l 2.726734,1.267237 1.148103,0.650129 c 0.0048,0.603618 -0.01165,1.324836 0.09533,1.917375 0.0512,0.282987 0.319675,0.568886 0.237803,0.861393 -0.159656,0.569954 -1.569308,1.15475 -1.252079,1.758652 0.174367,0.331919 0.655714,0.445605 0.990673,0.530827 0.848296,0.215878 3.070796,0.540195 3.694433,-0.246989 0.274828,-0.346902 0.252007,-0.924098 0.252151,-1.341588 4.39e-4,-1.052275 0.112516,-2.167123 -0.143513,-3.195614 0.923357,0.563498 1.133316,1.695881 1.596141,2.627503 0.160305,0.322692 0.494328,0.834413 0.385051,1.206168 -0.168636,0.573368 -1.897018,1.468632 -1.097295,2.242752 0.221717,0.214677 0.624774,0.230653 0.910004,0.316575 0.825342,0.248548 3.33056,0.654184 3.720702,-0.428919 0.36459,-1.012232 0.271522,-2.799708 0.01777,-3.833672 -0.14932,-0.608515 -0.496191,-1.136355 -0.556829,-1.775338 -0.05578,-0.587916 0.355764,-1.182941 0.399685,-1.775337 0.06104,-0.824686 -0.196547,-1.548883 -0.222156,-2.343449 -0.01643,-0.511155 0.156857,-1.03751 0.156857,-1.562306 0.788165,2.06757 -0.03687,4.292133 0.536807,6.391231 0.08349,0.305571 0.116175,2.03851 0.734634,1.863963 0.231919,-0.06541 0.300523,-0.463368 0.253947,-0.656737 -0.203071,-0.843781 -0.57089,-1.589777 -0.572896,-2.485476 -9.55e-4,-0.445397 0.204647,-0.904425 0.254949,-1.349255 0.296999,-2.626936 0.711824,-6.280162 -1.566509,-8.206404 C 28.369446,10.480027 27.269,9.852681 26.156632,9.1415207 25.286165,8.5850091 24.395313,7.9352868 23.35815,7.7137943 22.597391,7.5513279 21.763433,7.7914062 20.990198,7.7542576 19.304209,7.6731495 17.648156,7.3573286 15.967268,7.201054 15.202344,7.1299662 14.44467,7.2759244 13.671072,7.1319531 12.008839,6.8225623 10.779437,5.57946 9.1504275,5.1728791 8.6344346,5.044105 7.7402113,5.1323241 7.2130137,5.2240218 6.7151701,5.3106148 6.4515379,5.6557015 6.0638411,5.9288951 4.937976,6.7223278 3.4614578,7.99465 2.83805,9.2483967 2.4553586,10.018045 2.4143318,11.046584 2.1688297,11.875958 1.8109837,13.084821 1.131189,14.090586 0.92998064,15.355629 0.71924869,16.680532 1.0420762,18.07225 1.0419902,19.403402 c -6.69e-5,1.000726 -0.56572182,2.224855 -0.20568837,3.195615 0.50326927,1.356996 3.17489687,1.80537 3.36295177,0 z" />
  </g>
</svg>
